SplineFontDB: 3.0
FontName: Gandom
FullName: Gandom
FamilyName: Gandom
Weight: Regular
Copyright: Copyright (c) 2003 by Bitstream, Inc. All Rights Reserved.\nDejaVu changes are in public domain\nCopyright (c) 2015 by Saber Rastikerdar. All Rights Reserved.\nNon-Arabic(Latin) glyphs and data are imported from Roboto Serif font under the Apache License, Version 2.0.
Version: 0.4.0
ItalicAngle: 0
UnderlinePosition: -500
UnderlineWidth: 100
Ascent: 1638
Descent: 410
InvalidEm: 0
LayerCount: 2
Layer: 0 1 "Back" 1
Layer: 1 1 "Fore" 0
XUID: [1021 502 1027637223 7335572]
UniqueID: 4193122
UseUniqueID: 1
FSType: 0
OS2Version: 1
OS2_WeightWidthSlopeOnly: 0
OS2_UseTypoMetrics: 1
CreationTime: 1431850356
ModificationTime: 1475965521
PfmFamily: 17
TTFWeight: 400
TTFWidth: 5
LineGap: 0
VLineGap: 0
Panose: 2 11 6 3 3 8 4 2 2 4
OS2TypoAscent: 2350
OS2TypoAOffset: 0
OS2TypoDescent: -1200
OS2TypoDOffset: 0
OS2TypoLinegap: 0
OS2WinAscent: 2350
OS2WinAOffset: 0
OS2WinDescent: 1200
OS2WinDOffset: 0
HheadAscent: 2350
HheadAOffset: 0
HheadDescent: -1200
HheadDOffset: 0
OS2SubXSize: 1331
OS2SubYSize: 1433
OS2SubXOff: 0
OS2SubYOff: 286
OS2SupXSize: 1331
OS2SupYSize: 1433
OS2SupXOff: 0
OS2SupYOff: 983
OS2StrikeYSize: 102
OS2StrikeYPos: 530
OS2Vendor: 'PfEd'
OS2CodePages: 00000041.20080000
OS2UnicodeRanges: 8000200f.80000000.00000008.00000000
Lookup: 1 9 0 "'fina' Terminal Forms in Arabic lookup 9" { "'fina' Terminal Forms in Arabic lookup 9 subtable"  } ['fina' ('arab' <'KUR ' 'SND ' 'URD ' 'dflt' > ) ]
Lookup: 1 9 0 "'medi' Medial Forms in Arabic lookup 11" { "'medi' Medial Forms in Arabic lookup 11 subtable"  } ['medi' ('arab' <'KUR ' 'SND ' 'URD ' 'dflt' > ) ]
Lookup: 1 9 0 "'init' Initial Forms in Arabic lookup 13" { "'init' Initial Forms in Arabic lookup 13 subtable"  } ['init' ('arab' <'KUR ' 'SND ' 'URD ' 'dflt' > ) ]
Lookup: 4 1 1 "'rlig' Required Ligatures in Arabic lookup 14" { "'rlig' Required Ligatures in Arabic lookup 14 subtable"  } ['rlig' ('arab' <'KUR ' 'dflt' > ) ]

StartChar: afii57388
Encoding: 1548 1548 2
Width: 748
VWidth: 3387
GlyphClass: 2
Flags: W
LayerCount: 2
Fore
SplineSet
351.693359375 300.504882812 m 5,0,-1
 378.088867188 296.405273438 l 5,1,2
 484.275390625 278.424804688 484.275390625 278.424804688 498.997070312 184.306640625 c 132,-1,3
 513.71875 90.1884765625 513.71875 90.1884765625 464.587890625 42.1494140625 c 132,-1,4
 415.45703125 -5.8896484375 415.45703125 -5.8896484375 343.662109375 -0.232421875 c 4,5,6
 183.463867188 13.8046875 183.463867188 13.8046875 200.25 211.008789062 c 4,7,8
 221.62890625 466.758789062 221.62890625 466.758789062 493.293945312 630.275390625 c 4,9,10
 527.725585938 651.049804688 527.725585938 651.049804688 539 641.2421875 c 4,11,12
 545.021484375 636.00390625 545.021484375 636.00390625 547.141601562 633.666992188 c 4,13,14
 558.405273438 621.258789062 558.405273438 621.258789062 524.732421875 595.818359375 c 132,-1,15
 491.059570312 570.377929688 491.059570312 570.377929688 466.55859375 543.62109375 c 4,16,17
 341.04296875 406.549804688 341.04296875 406.549804688 351.693359375 300.504882812 c 5,0,-1
EndSplineSet
EndChar

StartChar: uni0615
Encoding: 1557 1557 3
Width: 0
VWidth: 3435
GlyphClass: 4
Flags: W
AnchorPoint: "Anchor-10" 591.667 1381.86 mark 0
AnchorPoint: "Anchor-9" 591.667 1381.86 mark 0
AnchorPoint: "Anchor-1" 591.667 2133 basemark 0
AnchorPoint: "Anchor-1" 591.667 1381.86 mark 0
LayerCount: 2
Fore
SplineSet
510.250976562 1601.6171875 m 5,0,-1
 611.549804688 1601.6171875 l 6,1,2
 806.836914062 1601.49804688 806.836914062 1601.49804688 875.836914062 1679.35546875 c 4,3,4
 910.025390625 1717.03710938 910.025390625 1717.03710938 902.912109375 1778.03125 c 4,5,6
 894.470703125 1850.37402344 894.470703125 1850.37402344 811.427734375 1840.58300781 c 4,7,8
 696.549804688 1827.0390625 696.549804688 1827.0390625 510.250976562 1601.6171875 c 5,0,-1
561.75 1501.5546875 m 6,9,-1
 254.150390625 1501.36523438 l 5,10,-1
 201.857421875 1601.6171875 l 5,11,-1
 338.731445312 1601.6171875 l 5,12,-1
 338.731445312 2272.65429688 l 5,13,-1
 440.4765625 2272.65429688 l 5,14,-1
 440.4765625 1651.97558594 l 5,15,16
 688.790039062 2011.36523438 688.790039062 2011.36523438 893.841796875 1948.98144531 c 4,17,18
 978.895507812 1923.10644531 978.895507812 1923.10644531 998.641601562 1824.69433594 c 4,19,20
 1026.86132812 1684.28808594 1026.86132812 1684.28808594 922 1593 c 132,-1,21
 817.138671875 1501.71191406 817.138671875 1501.71191406 561.75 1501.5546875 c 6,9,-1
EndSplineSet
EndChar

StartChar: uni061B
Encoding: 1563 1563 4
Width: 748
VWidth: 3387
GlyphClass: 2
Flags: W
LayerCount: 2
Fore
SplineSet
214 158.837890625 m 128,-1,1
 214 215.537109375 214 215.537109375 254.5 256.037109375 c 128,-1,2
 295 296.537109375 295 296.537109375 351.700195312 296.537109375 c 128,-1,3
 408.400390625 296.537109375 408.400390625 296.537109375 449.912109375 257.049804688 c 0,4,5
 489.400390625 215.537109375 489.400390625 215.537109375 489.400390625 158.837890625 c 128,-1,6
 489.400390625 102.137695312 489.400390625 102.137695312 448.900390625 61.6376953125 c 128,-1,7
 408.400390625 21.1376953125 408.400390625 21.1376953125 351.700195312 21.1376953125 c 128,-1,8
 295 21.1376953125 295 21.1376953125 254.5 61.6376953125 c 128,-1,0
 214 102.137695312 214 102.137695312 214 158.837890625 c 128,-1,1
351.692382812 820.504882812 m 5,9,-1
 378.088867188 816.404296875 l 5,10,11
 484 798 484 798 498.99609375 704.306640625 c 4,12,13
 514 610 514 610 464.416015625 561.979492188 c 132,-1,14
 415 514 415 514 339.401367188 520.127929688 c 4,15,16
 183 533 183 533 200.25 731.008789062 c 4,17,18
 222 987 222 987 493.293945312 1150.27441406 c 4,19,20
 528 1171 528 1171 539 1161.2578125 c 4,21,22
 545 1156 545 1156 547.141601562 1153.66699219 c 4,23,24
 558 1141 558 1141 524.728515625 1115.81542969 c 4,25,26
 453 1062 453 1062 398.717773438 976.794921875 c 4,27,28
 345 892 345 892 351.692382812 820.504882812 c 5,9,-1
EndSplineSet
EndChar

StartChar: uni061F
Encoding: 1567 1567 5
Width: 1024
VWidth: 3375
GlyphClass: 2
Flags: W
LayerCount: 2
Fore
SplineSet
433 158.837890625 m 128,-1,1
 433 215.537109375 433 215.537109375 473.5 256.037109375 c 128,-1,2
 514 296.537109375 514 296.537109375 570.700195312 296.537109375 c 128,-1,3
 627.400390625 296.537109375 627.400390625 296.537109375 668.912109375 257.049804688 c 0,4,5
 708.400390625 215.537109375 708.400390625 215.537109375 708.400390625 158.837890625 c 128,-1,6
 708.400390625 102.137695312 708.400390625 102.137695312 667.900390625 61.6376953125 c 128,-1,7
 627.400390625 21.1376953125 627.400390625 21.1376953125 570.700195312 21.1376953125 c 128,-1,8
 514 21.1376953125 514 21.1376953125 473.5 61.6376953125 c 128,-1,0
 433 102.137695312 433 102.137695312 433 158.837890625 c 128,-1,1
540.051757812 516.077148438 m 2,9,10
 513.529296875 516.077148438 513.529296875 516.077148438 513.529296875 543.2421875 c 2,11,-1
 513.529296875 563.87109375 l 6,12,13
 513.998016757 651.628681032 513.998016757 651.628681032 373.383789062 759.024414062 c 6,14,-1
 296.193359375 817.979492188 l 6,15,16
 152 928 152 928 150.665039062 1100.1796875 c 4,17,18
 150 1185 150 1185 181.15625 1253.17578125 c 4,19,20
 212 1321 212 1321 273.763671875 1372.72265625 c 4,21,22
 368 1451 368 1451 515.973632812 1451.18847656 c 4,23,24
 716 1451 716 1451 815.376953125 1312.05664062 c 4,25,26
 873 1231 873 1231 878.436523438 1101.76953125 c 4,27,28
 879 1087 879 1087 878.161132812 1072.50292969 c 4,29,30
 878 1058 878 1058 877.111328125 1044.93261719 c 5,31,-1
 779.184570312 1044.37109375 l 5,32,33
 738 1264 738 1264 527.547851562 1263.82714844 c 4,34,35
 403 1264 403 1264 350.168945312 1181.92773438 c 4,36,37
 326 1145 326 1145 325.96875 1091.19042969 c 4,38,39
 326 1044 326 1044 363.03515625 990.0078125 c 4,40,41
 398.762193298 937.350498202 398.762193298 937.350498202 473.865234375 876.099609375 c 6,42,-1
 521.946289062 836.88671875 l 6,43,44
 648.461914062 733.622979586 648.461914062 733.622979586 648.461914062 569.729492188 c 6,45,-1
 648.461914062 546.629882812 l 2,46,47
 648.001163437 516.077148438 648.001163437 516.077148438 620.461914062 516.077148438 c 2,48,-1
 540.051757812 516.077148438 l 2,9,10
EndSplineSet
EndChar

StartChar: uni0621
Encoding: 1569 1569 6
Width: 771
VWidth: 2472
GlyphClass: 2
Flags: W
AnchorPoint: "Anchor-7" 384.754 -252.191 basechar 0
AnchorPoint: "Anchor-10" 330.376 1111.84 basechar 0
LayerCount: 2
Fore
SplineSet
678.241210938 324 m 2,1,-1
 643 200 l 1,2,3
 422 133 422 133 81.578125 -24.2216796875 c 1,4,5
 82 121 82 121 163 164 c 0,6,7
 217 193 217 193 293 219 c 1,8,9
 87 293 87 293 85.6953125 482.706054688 c 0,10,11
 85 588 85 588 151 673 c 0,12,13
 227 771 227 771 373 773 c 0,14,15
 568 776 568 776 592.747070312 634 c 0,16,17
 598 603 598 603 575 609.451171875 c 0,18,19
 408 654 408 654 327 613 c 0,20,21
 235 567 235 567 236.712890625 473.090820312 c 0,22,23
 239.059454501 353.98216365 239.059454501 353.98216365 449 291 c 0,24,25
 479 282 479 282 633 337.255038652 c 0,26,27
 688 357 688 357 678.241210938 324 c 2,1,-1
EndSplineSet
EndChar

StartChar: uni0627
Encoding: 1575 1575 12
Width: 448
VWidth: 2448
GlyphClass: 2
Flags: W
AnchorPoint: "Anchor-10" 217.115 1676.43 basechar 0
AnchorPoint: "Anchor-7" 225.129 -304.716 basechar 0
LayerCount: 2
Fore
SplineSet
288.053710938 1514.63964844 m 2,0,-1
 306.9140625 1524.40332031 l 5,1,-1
 306.9140625 206.280273438 l 2,2,3
 307 68 307 68 201.060546875 -0.630859375 c 1,4,-1
 147.283203125 1132.74121094 l 2,5,6
 133 1434 133 1434 288.053710938 1514.63964844 c 2,0,-1
EndSplineSet
Substitution2: "'fina' Terminal Forms in Arabic lookup 9 subtable" uniFE8E
EndChar

StartChar: uni062D
Encoding: 1581 1581 18
Width: 1317
VWidth: 2474
GlyphClass: 2
Flags: W
AnchorPoint: "Anchor-10" 466.67 1374 basechar 0
AnchorPoint: "Anchor-7" 298.142 -858.693 basechar 0
LayerCount: 2
Fore
SplineSet
461.400390625 906.51953125 m 24,0,1
 597 915 597 915 880.440429688 783.48046875 c 0,2,3
 1041.96582031 709.34375 1041.96582031 709.34375 1104.28027344 696.240234375 c 0,4,5
 1171 683 1171 683 1219.20996094 687.705078125 c 1,6,-1
 1172.04003906 487.642578125 l 1,7,8
 203 323 203 323 206.396484375 -159.360351562 c 4,9,10
 209 -491 209 -491 827.346679688 -491.000976562 c 0,11,12
 1023.41854123 -491.000124243 1023.41854123 -491.000124243 1176 -457.209109499 c 0,13,14
 1224.83254534 -446.39455003 1224.83254534 -446.39455003 1196 -496.677572742 c 0,15,16
 1092.61870967 -676.971185685 1092.61870967 -676.971185685 790.318359375 -676.75 c 0,17,18
 102 -677 102 -677 101.49609375 -166.178710938 c 4,19,20
 102 408 102 408 904.200195312 602.040039062 c 1,21,22
 775 652 775 652 691.440429688 684.919921875 c 0,23,24
 535 745 535 745 421.45703125 725.16796875 c 8,25,26
 303 704 303 704 220.440429688 607.256835938 c 0,27,28
 184 564 184 564 168.440429688 570.919921875 c 0,29,30
 147 580 147 580 163.22265625 630.380859375 c 0,31,32
 246 893 246 893 461.400390625 906.51953125 c 24,0,1
EndSplineSet
Substitution2: "'fina' Terminal Forms in Arabic lookup 9 subtable" uniFEA2
Substitution2: "'medi' Medial Forms in Arabic lookup 11 subtable" uniFEA4
Substitution2: "'init' Initial Forms in Arabic lookup 13 subtable" uniFEA3
EndChar

StartChar: uni062F
Encoding: 1583 1583 20
Width: 1024
VWidth: 2467
GlyphClass: 2
Flags: W
AnchorPoint: "Anchor-10" 287.422 1235.25 basechar 0
AnchorPoint: "Anchor-7" 343.658 -265.85 basechar 0
LayerCount: 2
Fore
SplineSet
878.775390625 155.02734375 m 1,0,1
 718.16796875 -39.9814453125 718.16796875 -39.9814453125 382.708007812 -30.9951171875 c 0,2,3
 362.173828125 -30.5068359375 362.173828125 -30.5068359375 342.06640625 -29.29296875 c 0,4,5
 98.525390625 -14.58984375 98.525390625 -14.58984375 98.525390625 193.130859375 c 2,6,-1
 98.525390625 223.052734375 l 1,7,8
 228.668945312 167.552734375 228.668945312 167.552734375 394.154296875 164.765625 c 0,9,10
 585.997070312 160.865234375 585.997070312 160.865234375 723.564453125 227.572265625 c 0,11,12
 797.321289062 263.698242188 797.321289062 263.698242188 787.672851562 314.79296875 c 0,13,14
 784.112304688 333.556640625 784.112304688 333.556640625 778.559570312 342.313476562 c 2,15,-1
 622.467773438 588.495117188 l 2,16,17
 457.204101562 849.143554688 457.204101562 849.143554688 606.44140625 928.384765625 c 2,18,-1
 628.048828125 939.857421875 l 1,19,-1
 895.362304688 414.012695312 l 1,20,21
 933.653320312 335.145507812 933.653320312 335.145507812 925.752929688 268.381835938 c 128,-1,22
 917.852539062 201.618164062 917.852539062 201.618164062 878.775390625 155.02734375 c 1,0,1
EndSplineSet
Substitution2: "'fina' Terminal Forms in Arabic lookup 9 subtable" uniFEAA
EndChar

StartChar: uni0631
Encoding: 1585 1585 22
Width: 893
VWidth: 2499
GlyphClass: 2
Flags: W
AnchorPoint: "Anchor-7" 537.147 -725.422 basechar 0
AnchorPoint: "Anchor-10" 443.056 1075.93 basechar 0
LayerCount: 2
Fore
SplineSet
72 -418.690429688 m 4,0,1
 14.793298194 -404.749522013 14.793298194 -404.749522013 7.65280541474 -371 c 4,2,3
 2 -345 2 -345 88 -330.262695312 c 4,4,5
 698 -230 698 -230 670.178710938 131.9609375 c 4,6,7
 666 187 666 187 618.494140625 304.325195312 c 0,8,9
 534.001030106 514.997431568 534.001030106 514.997431568 669.220703125 618.001953125 c 2,10,-1
 709.796875 648.911132812 l 1,11,12
 796 413 796 413 798.153884713 215 c 4,13,14
 804 -206 804 -206 566 -381 c 4,15,16
 460.142857143 -459 460.142857143 -459 374 -459 c 4,17,18
 242 -459 242 -459 72 -418.690429688 c 4,0,1
EndSplineSet
PairPos2: "'kern' Horizontal Kerning lookup 15-1" uniFB7C dx=-150 dy=0 dh=-150 dv=0 dx=0 dy=0 dh=0 dv=0
PairPos2: "'kern' Horizontal Kerning lookup 15-1" uniFB90 dx=-350 dy=0 dh=-350 dv=0 dx=0 dy=0 dh=0 dv=0
PairPos2: "'kern' Horizontal Kerning lookup 15-1" uniFB8E dx=-350 dy=0 dh=-350 dv=0 dx=0 dy=0 dh=0 dv=0
PairPos2: "'kern' Horizontal Kerning lookup 15-1" uni06A9 dx=-350 dy=0 dh=-350 dv=0 dx=0 dy=0 dh=0 dv=0
PairPos2: "'kern' Horizontal Kerning lookup 15-1" uni064A dx=-100 dy=0 dh=-100 dv=0 dx=0 dy=0 dh=0 dv=0
PairPos2: "'kern' Horizontal Kerning lookup 15-1" afii57414 dx=-100 dy=0 dh=-100 dv=0 dx=0 dy=0 dh=0 dv=0
PairPos2: "'kern' Horizontal Kerning lookup 15-1" uni0649 dx=-100 dy=0 dh=-100 dv=0 dx=0 dy=0 dh=0 dv=0
PairPos2: "'kern' Horizontal Kerning lookup 15-1" uni0648 dx=-80 dy=0 dh=-80 dv=0 dx=0 dy=0 dh=0 dv=0
PairPos2: "'kern' Horizontal Kerning lookup 15-1" afii57412 dx=-80 dy=0 dh=-80 dv=0 dx=0 dy=0 dh=0 dv=0
PairPos2: "'kern' Horizontal Kerning lookup 15-1" uniFEEB dx=-250 dy=0 dh=-250 dv=0 dx=0 dy=0 dh=0 dv=0
PairPos2: "'kern' Horizontal Kerning lookup 15-1" uni0647 dx=-250 dy=0 dh=-250 dv=0 dx=0 dy=0 dh=0 dv=0
PairPos2: "'kern' Horizontal Kerning lookup 15-1" uniFEE7 dx=-250 dy=0 dh=-250 dv=0 dx=0 dy=0 dh=0 dv=0
PairPos2: "'kern' Horizontal Kerning lookup 15-1" uni0646 dx=-100 dy=0 dh=-100 dv=0 dx=0 dy=0 dh=0 dv=0
PairPos2: "'kern' Horizontal Kerning lookup 15-1" uniFEE3 dx=-250 dy=0 dh=-250 dv=0 dx=0 dy=0 dh=0 dv=0
PairPos2: "'kern' Horizontal Kerning lookup 15-1" uni0645 dx=-250 dy=0 dh=-250 dv=0 dx=0 dy=0 dh=0 dv=0
PairPos2: "'kern' Horizontal Kerning lookup 15-1" uniFEFB dx=-250 dy=0 dh=-250 dv=0 dx=0 dy=0 dh=0 dv=0
PairPos2: "'kern' Horizontal Kerning lookup 15-1" uniFEDF dx=-250 dy=0 dh=-250 dv=0 dx=0 dy=0 dh=0 dv=0
PairPos2: "'kern' Horizontal Kerning lookup 15-1" uni0644 dx=-80 dy=0 dh=-80 dv=0 dx=0 dy=0 dh=0 dv=0
PairPos2: "'kern' Horizontal Kerning lookup 15-1" uniFEDB dx=-350 dy=0 dh=-350 dv=0 dx=0 dy=0 dh=0 dv=0
PairPos2: "'kern' Horizontal Kerning lookup 15-1" uni0643 dx=-250 dy=0 dh=-250 dv=0 dx=0 dy=0 dh=0 dv=0
PairPos2: "'kern' Horizontal Kerning lookup 15-1" uniFED7 dx=-250 dy=0 dh=-250 dv=0 dx=0 dy=0 dh=0 dv=0
PairPos2: "'kern' Horizontal Kerning lookup 15-1" uni0642 dx=-80 dy=0 dh=-80 dv=0 dx=0 dy=0 dh=0 dv=0
PairPos2: "'kern' Horizontal Kerning lookup 15-1" uniFED3 dx=-250 dy=0 dh=-250 dv=0 dx=0 dy=0 dh=0 dv=0
PairPos2: "'kern' Horizontal Kerning lookup 15-1" uni0641 dx=-250 dy=0 dh=-250 dv=0 dx=0 dy=0 dh=0 dv=0
PairPos2: "'kern' Horizontal Kerning lookup 15-1" uniFECF dx=-250 dy=0 dh=-250 dv=0 dx=0 dy=0 dh=0 dv=0
PairPos2: "'kern' Horizontal Kerning lookup 15-1" uniFECB dx=-250 dy=0 dh=-250 dv=0 dx=0 dy=0 dh=0 dv=0
PairPos2: "'kern' Horizontal Kerning lookup 15-1" uniFEC7 dx=-250 dy=0 dh=-250 dv=0 dx=0 dy=0 dh=0 dv=0
PairPos2: "'kern' Horizontal Kerning lookup 15-1" uni0638 dx=-250 dy=0 dh=-250 dv=0 dx=0 dy=0 dh=0 dv=0
PairPos2: "'kern' Horizontal Kerning lookup 15-1" uniFEC3 dx=-250 dy=0 dh=-250 dv=0 dx=0 dy=0 dh=0 dv=0
PairPos2: "'kern' Horizontal Kerning lookup 15-1" uni0637 dx=-250 dy=0 dh=-250 dv=0 dx=0 dy=0 dh=0 dv=0
PairPos2: "'kern' Horizontal Kerning lookup 15-1" uniFEBF dx=-250 dy=0 dh=-250 dv=0 dx=0 dy=0 dh=0 dv=0
PairPos2: "'kern' Horizontal Kerning lookup 15-1" uni0636 dx=-250 dy=0 dh=-250 dv=0 dx=0 dy=0 dh=0 dv=0
PairPos2: "'kern' Horizontal Kerning lookup 15-1" uniFEBB dx=-250 dy=0 dh=-250 dv=0 dx=0 dy=0 dh=0 dv=0
PairPos2: "'kern' Horizontal Kerning lookup 15-1" uni0635 dx=-250 dy=0 dh=-250 dv=0 dx=0 dy=0 dh=0 dv=0
PairPos2: "'kern' Horizontal Kerning lookup 15-1" uniFEB7 dx=-250 dy=0 dh=-250 dv=0 dx=0 dy=0 dh=0 dv=0
PairPos2: "'kern' Horizontal Kerning lookup 15-1" uni0634 dx=-250 dy=0 dh=-250 dv=0 dx=0 dy=0 dh=0 dv=0
PairPos2: "'kern' Horizontal Kerning lookup 15-1" uniFEB3 dx=-250 dy=0 dh=-250 dv=0 dx=0 dy=0 dh=0 dv=0
PairPos2: "'kern' Horizontal Kerning lookup 15-1" uni0633 dx=-250 dy=0 dh=-250 dv=0 dx=0 dy=0 dh=0 dv=0
PairPos2: "'kern' Horizontal Kerning lookup 15-1" uni0632 dx=-80 dy=0 dh=-80 dv=0 dx=0 dy=0 dh=0 dv=0
PairPos2: "'kern' Horizontal Kerning lookup 15-1" uni0631 dx=-80 dy=0 dh=-80 dv=0 dx=0 dy=0 dh=0 dv=0
PairPos2: "'kern' Horizontal Kerning lookup 15-1" uni0630 dx=-250 dy=0 dh=-250 dv=0 dx=0 dy=0 dh=0 dv=0
PairPos2: "'kern' Horizontal Kerning lookup 15-1" uni062F dx=-250 dy=0 dh=-250 dv=0 dx=0 dy=0 dh=0 dv=0
PairPos2: "'kern' Horizontal Kerning lookup 15-1" uniFEA7 dx=-250 dy=0 dh=-250 dv=0 dx=0 dy=0 dh=0 dv=0
PairPos2: "'kern' Horizontal Kerning lookup 15-1" uniFEA3 dx=-250 dy=0 dh=-250 dv=0 dx=0 dy=0 dh=0 dv=0
PairPos2: "'kern' Horizontal Kerning lookup 15-1" uniFE9F dx=-250 dy=0 dh=-250 dv=0 dx=0 dy=0 dh=0 dv=0
PairPos2: "'kern' Horizontal Kerning lookup 15-1" uniFE9B dx=-250 dy=0 dh=-250 dv=0 dx=0 dy=0 dh=0 dv=0
PairPos2: "'kern' Horizontal Kerning lookup 15-1" uni062B dx=-250 dy=0 dh=-250 dv=0 dx=0 dy=0 dh=0 dv=0
PairPos2: "'kern' Horizontal Kerning lookup 15-1" uniFE97 dx=-250 dy=0 dh=-250 dv=0 dx=0 dy=0 dh=0 dv=0
PairPos2: "'kern' Horizontal Kerning lookup 15-1" uni062A dx=-250 dy=0 dh=-250 dv=0 dx=0 dy=0 dh=0 dv=0
PairPos2: "'kern' Horizontal Kerning lookup 15-1" uni0629 dx=-250 dy=0 dh=-250 dv=0 dx=0 dy=0 dh=0 dv=0
PairPos2: "'kern' Horizontal Kerning lookup 15-1" uniFE91 dx=-50 dy=0 dh=-50 dv=0 dx=0 dy=0 dh=0 dv=0
PairPos2: "'kern' Horizontal Kerning lookup 15-1" uni0628 dx=-250 dy=0 dh=-250 dv=0 dx=0 dy=0 dh=0 dv=0
PairPos2: "'kern' Horizontal Kerning lookup 15-1" uni0627 dx=-250 dy=0 dh=-250 dv=0 dx=0 dy=0 dh=0 dv=0
PairPos2: "'kern' Horizontal Kerning lookup 15-1" uni0623 dx=-250 dy=0 dh=-250 dv=0 dx=0 dy=0 dh=0 dv=0
PairPos2: "'kern' Horizontal Kerning lookup 15-1" uni0622 dx=-250 dy=0 dh=-250 dv=0 dx=0 dy=0 dh=0 dv=0
PairPos2: "'kern' Horizontal Kerning lookup 15-1" uni0621 dx=-250 dy=0 dh=-250 dv=0 dx=0 dy=0 dh=0 dv=0
PairPos2: "'kern' Horizontal Kerning lookup 15-1" uniFB94 dx=-350 dy=0 dh=-350 dv=0 dx=0 dy=0 dh=0 dv=0
PairPos2: "'kern' Horizontal Kerning lookup 15-1" uniFB92 dx=-350 dy=0 dh=-350 dv=0 dx=0 dy=0 dh=0 dv=0
PairPos2: "'kern' Horizontal Kerning lookup 15-1" afii57509 dx=-350 dy=0 dh=-350 dv=0 dx=0 dy=0 dh=0 dv=0
PairPos2: "'kern' Horizontal Kerning lookup 15-1" afii57508 dx=-80 dy=0 dh=-80 dv=0 dx=0 dy=0 dh=0 dv=0
PairPos2: "'kern' Horizontal Kerning lookup 15-1" afii57506 dx=-250 dy=0 dh=-250 dv=0 dx=0 dy=0 dh=0 dv=0
PairPos2: "'kern' Horizontal Kerning lookup 15-1" afii57440 dx=-250 dy=0 dh=-250 dv=0 dx=0 dy=0 dh=0 dv=0
PairPos2: "'kern' Horizontal Kerning lookup 15-1" uniFE8B dx=-250 dy=0 dh=-250 dv=0 dx=0 dy=0 dh=0 dv=0
Substitution2: "'fina' Terminal Forms in Arabic lookup 9 subtable" uniFEAE
EndChar

StartChar: uni0633
Encoding: 1587 1587 24
Width: 2313
VWidth: 2501
GlyphClass: 2
Flags: W
AnchorPoint: "Anchor-7" 320.176 -767.198 basechar 0
AnchorPoint: "Anchor-10" 539.988 962.057 basechar 0
LayerCount: 2
Fore
SplineSet
1904.82617188 -0.4775390625 m 24,0,1
 1838 -1 1838 -1 1801.15722656 16.7265625 c 0,2,3
 1698 67 1698 67 1657.13964844 183.109375 c 1,4,5
 1592.98469042 -1.0439453125 1592.98469042 -1.0439453125 1440.34960938 -1.0439453125 c 2,6,-1
 1424.69042969 -1.0439453125 l 2,7,8
 1314 -1 1314 -1 1269.77050781 68.0400390625 c 1,9,10
 1272 -40 1272 -40 1252.25683594 -119.879882812 c 0,11,12
 1148 -542 1148 -542 663.930664062 -545.791015625 c 0,13,14
 341 -548 341 -548 187.1328125 -346.896484375 c 0,15,16
 56 -175 56 -175 114.48046875 114.48046875 c 0,17,18
 135 217 135 217 190.567382812 336.995117188 c 0,19,20
 219 399 219 399 255.419921875 388.259765625 c 0,21,22
 292 378 292 378 265.825195312 307.799804688 c 0,23,24
 180 72 180 72 235.631835938 -109.409179688 c 0,25,26
 313 -364 313 -364 665.359375 -362.66796875 c 0,27,28
 1124 -361 1124 -361 1155.05664062 -15.0859375 c 0,29,30
 1164 84 1164 84 1092.65332031 257.984375 c 0,31,32
 989.894401893 512.2613025 989.894401893 512.2613025 1145.50878906 552.739257812 c 2,33,-1
 1180.71679688 561.897460938 l 1,34,35
 1213.52018033 392.132732226 1213.52018033 392.132732226 1248.03222656 291.599609375 c 24,36,37
 1285.99723716 181.008048105 1285.99723716 181.008048105 1402.765625 182.943359375 c 2,38,-1
 1444.01074219 183.626953125 l 1,39,40
 1561.08479506 182.999545578 1561.08479506 182.999545578 1595.36328125 328.373046875 c 2,41,-1
 1610.50488281 392.587890625 l 2,42,43
 1642.05740469 526.243164062 1642.05740469 526.243164062 1730.70898438 526.243164062 c 2,44,-1
 1743.84179688 526.243164062 l 1,45,-1
 1737.36132812 451.068359375 l 2,46,47
 1716 200 1716 200 1922.83007812 193.909179688 c 0,48,49
 2046 190 2046 190 2076.81738281 279.96484375 c 0,50,51
 2095 334 2095 334 2064.29980469 417.419921875 c 0,52,53
 2034 501 2034 501 2012.93457031 574.467773438 c 0,54,55
 1970.05868103 728.788792339 1970.05868103 728.788792339 2119.03417969 799.9921875 c 2,56,-1
 2135.62304688 807.920898438 l 1,57,58
 2203 605 2203 605 2214.41992188 415.799804688 c 0,59,60
 2226 227 2226 227 2128.55957031 113.940429688 c 128,-1,61
 2031 1 2031 1 1904.82617188 -0.4775390625 c 24,0,1
EndSplineSet
Substitution2: "'fina' Terminal Forms in Arabic lookup 9 subtable" uniFEB2
Substitution2: "'medi' Medial Forms in Arabic lookup 11 subtable" uniFEB4
Substitution2: "'init' Initial Forms in Arabic lookup 13 subtable" uniFEB3
EndChar

StartChar: uni0635
Encoding: 1589 1589 26
Width: 2498
VWidth: 2474
GlyphClass: 2
Flags: W
AnchorPoint: "Anchor-10" 419.47 963.494 basechar 0
AnchorPoint: "Anchor-7" 379.401 -808.656 basechar 0
LayerCount: 2
Fore
SplineSet
1527.60253906 193.426757812 m 1,0,-1
 1732.26464844 193.426757812 l 2,1,2
 1982.47460938 193.009765625 1982.47460938 193.009765625 2174.76074219 267.239257812 c 0,3,4
 2269.61230469 303.915039062 2269.61230469 303.915039062 2267.90722656 359 c 0,5,6
 2266.04394531 419.205078125 2266.04394531 419.205078125 2148.83984375 501.400390625 c 0,7,8
 2072.28027344 555 2072.28027344 555 2004.12011719 555.087890625 c 0,9,10
 1816.73144531 553.997070312 1816.73144531 553.997070312 1662.83984375 362.080078125 c 2,11,-1
 1527.60253906 193.426757812 l 1,0,-1
1396.35644531 212.829101562 m 1,12,-1
 1496.24023438 364.200195312 l 2,13,14
 1751 750 1751 750 1995.48046875 748.165039062 c 0,15,16
 2139 747 2139 747 2268.72070312 626.6796875 c 0,17,18
 2388 515 2388 515 2392.03613281 385.240234375 c 0,19,20
 2397 191 2397 191 2195.05078125 90.3388671875 c 0,21,22
 2008.36629486 -1.31110812576 2008.36629486 -1.31110812576 1798.41503906 -0.767578125 c 2,23,-1
 1501.91992188 0 l 2,24,25
 1317 0 1317 0 1269.77050781 68.0400390625 c 1,26,27
 1272 -40 1272 -40 1252.25683594 -119.879882812 c 0,28,29
 1151 -540 1151 -540 661.930664062 -545.791015625 c 0,30,31
 343 -550 343 -550 187.1328125 -346.896484375 c 0,32,33
 56 -176 56 -176 114.48046875 114.48046875 c 0,34,35
 135 217 135 217 190.567382812 336.995117188 c 0,36,37
 219 399 219 399 255.419921875 388.259765625 c 0,38,39
 292 378 292 378 265.825195312 307.799804688 c 0,40,41
 180 72 180 72 235.631835938 -109.409179688 c 0,42,43
 313 -364 313 -364 665.359375 -362.66796875 c 0,44,45
 1124 -361 1124 -361 1155.05664062 -15.0859375 c 0,46,47
 1164 84 1164 84 1092.65332031 257.984375 c 0,48,49
 989.894401893 512.2613025 989.894401893 512.2613025 1145.50878906 552.739257812 c 6,50,-1
 1180.71679688 561.897460938 l 5,51,52
 1215 371 1215 371 1250.19238281 291.599609375 c 0,53,54
 1284 214 1284 214 1396.35644531 212.829101562 c 1,12,-1
EndSplineSet
Substitution2: "'fina' Terminal Forms in Arabic lookup 9 subtable" uniFEBA
Substitution2: "'medi' Medial Forms in Arabic lookup 11 subtable" uniFEBC
Substitution2: "'init' Initial Forms in Arabic lookup 13 subtable" uniFEBB
EndChar

StartChar: uni0637
Encoding: 1591 1591 28
Width: 1431
VWidth: 2474
GlyphClass: 2
Flags: W
AnchorPoint: "Anchor-10" 213.774 1609.94 basechar 0
AnchorPoint: "Anchor-7" 696.88 -343.015 basechar 0
LayerCount: 2
Fore
SplineSet
309 193 m 5,0,-1
 248.788085938 1137.68164062 l 6,1,2
 230.988568869 1420.18142582 230.988568869 1420.18142582 400.482421875 1512.90625 c 6,3,-1
 422.0390625 1524.69921875 l 5,4,-1
 421.959960938 367.200195312 l 5,5,6
 675 750 675 750 918.200195312 748.165039062 c 4,7,8
 1062 747 1062 747 1191.44042969 626.6796875 c 4,9,10
 1311 515 1311 515 1314.75585938 385.240234375 c 4,11,12
 1319.52624229 202.180121309 1319.52624229 202.180121309 1117.77050781 90.3388671875 c 4,13,14
 952 -1 952 -1 711.134765625 -0.767578125 c 6,15,-1
 424.639648438 0 l 6,16,-1
 375.192382812 0.1533203125 l 6,17,18
 91.15234375 0.999546130134 91.15234375 0.999546130134 91.15234375 193.274414062 c 5,19,-1
 309 193 l 5,0,-1
450.322265625 193.426757812 m 5,20,-1
 654.984375 193.426757812 l 6,21,22
 906 193 906 193 1097.48046875 267.239257812 c 4,23,24
 1193 304 1193 304 1190.58789062 360 c 4,25,26
 1188 420 1188 420 1071.55957031 501.400390625 c 4,27,28
 995 555 995 555 926.83984375 555.087890625 c 4,29,30
 739.455679847 554.002639109 739.455679847 554.002639109 585.559570312 362.080078125 c 6,31,-1
 450.322265625 193.426757812 l 5,20,-1
EndSplineSet
Substitution2: "'fina' Terminal Forms in Arabic lookup 9 subtable" uniFEC2
Substitution2: "'medi' Medial Forms in Arabic lookup 11 subtable" uniFEC4
Substitution2: "'init' Initial Forms in Arabic lookup 13 subtable" uniFEC3
EndChar

StartChar: uni0639
Encoding: 1593 1593 30
Width: 1309
VWidth: 2474
GlyphClass: 2
Flags: W
AnchorPoint: "Anchor-10" 522.687 1601.58 basechar 0
AnchorPoint: "Anchor-7" 256.989 -848.611 basechar 0
LayerCount: 2
Fore
SplineSet
626.209960938 323.603515625 m 0,0,1
 204 157 204 157 206.396484375 -159.360351562 c 0,2,3
 209 -491 209 -491 827.346679688 -491.000976562 c 0,4,5
 1029.22569111 -491.000098999 1029.22569111 -491.000098999 1185 -455.177861145 c 0,6,7
 1222.9440577 -446.452153615 1222.9440577 -446.452153615 1201 -487.634061675 c 0,8,9
 1100.10751567 -676.976665059 1100.10751567 -676.976665059 790.318359375 -676.75 c 0,10,11
 101 -677 101 -677 101.49609375 -166.178710938 c 0,12,13
 102 248 102 248 501 465.8359375 c 5,14,15
 304 591 304 591 297.860351562 741.620117188 c 4,16,17
 293 869 293 869 379.6796875 978.719726562 c 4,18,19
 501 1133 501 1133 686.541015625 1133.11425781 c 4,20,21
 848 1133 848 1133 924.880859375 1042.66113281 c 4,22,23
 956 1006 956 1006 970.026367188 957 c 4,24,25
 994 875 994 875 940 912.138671875 c 4,26,27
 861 965 861 965 730.919921875 964.799804688 c 4,28,29
 607 965 607 965 520.599609375 889.459960938 c 4,30,31
 445 824 445 824 446.203125 739.920898438 c 4,32,33
 447 657 447 657 615.360351562 532.959960938 c 5,34,35
 801 578 801 578 1060 596.569335938 c 4,36,37
 1133.97232807 601.99796923 1133.97232807 601.99796923 1120 558 c 6,38,-1
 1073 410 l 5,39,40
 816 398 816 398 626.209960938 323.603515625 c 0,0,1
EndSplineSet
Substitution2: "'fina' Terminal Forms in Arabic lookup 9 subtable" uniFECA
Substitution2: "'medi' Medial Forms in Arabic lookup 11 subtable" uniFECC
Substitution2: "'init' Initial Forms in Arabic lookup 13 subtable" uniFECB
EndChar

StartChar: afii57440
Encoding: 1600 1600 32
Width: 253
VWidth: 2490
GlyphClass: 2
Flags: W
AnchorPoint: "Anchor-10" 126.68 1453.57 basechar 0
AnchorPoint: "Anchor-7" 126.68 -138.845 basechar 0
LayerCount: 2
Fore
SplineSet
-4.947265625 0 m 2,0,1
 -80 0 -80 0 -80 92 c 2,2,-1
 -80 98 l 2,3,4
 -80 188 -80 188 -4.947265625 188 c 2,5,-1
 258 188 l 6,6,7
 333 188 333 188 333.052734375 98 c 6,8,-1
 333.052734375 92 l 6,9,10
 333.052734375 0 333.052734375 0 258 0 c 6,11,-1
 -4.947265625 0 l 2,0,1
EndSplineSet
EndChar

StartChar: uni0643
Encoding: 1603 1603 35
Width: 1789
VWidth: 2448
GlyphClass: 2
Flags: W
AnchorPoint: "Anchor-10" 494.321 1455.59 basechar 0
AnchorPoint: "Anchor-7" 543.141 -303.584 basechar 0
LayerCount: 2
Fore
SplineSet
1101.28222656 1284.37402344 m 5,0,-1
 1101.28222656 1175.19238281 l 5,1,-1
 1078.25878906 1173.36621094 l 6,2,3
 909.323242188 1159.96777344 909.323242188 1159.96777344 870.751953125 1094.53222656 c 4,4,5
 853.471679688 1065.21777344 853.471679688 1065.21777344 882.643554688 1025.62988281 c 4,6,7
 895.979492188 1007.28613281 895.979492188 1007.28613281 952.327148438 999.318359375 c 4,8,9
 1040.99414062 986.780273438 1040.99414062 986.780273438 1076.50878906 954.374023438 c 132,-1,10
 1112.02441406 921.966796875 1112.02441406 921.966796875 1111.8984375 865.338867188 c 4,11,12
 1112.01367188 739.249023438 1112.01367188 739.249023438 996.887695312 675.719726562 c 4,13,14
 907.370117188 625.936523438 907.370117188 625.936523438 797.87890625 627 c 4,15,16
 726.913085938 627 726.913085938 627 665.01953125 637.404296875 c 6,17,-1
 644.1640625 640.91015625 l 5,18,-1
 644.1640625 757.391601562 l 5,19,-1
 672.350585938 753.76953125 l 6,20,21
 905.931640625 723.755859375 905.931640625 723.755859375 980.518554688 800.833984375 c 4,22,23
 1022.73730469 844.462890625 1022.73730469 844.462890625 980.513671875 879.369140625 c 4,24,25
 960.274414062 896.102539062 960.274414062 896.102539062 897.591796875 905.303710938 c 132,-1,26
 834.909179688 914.505859375 834.909179688 914.505859375 793.362304688 957.231445312 c 132,-1,27
 751.815429688 999.95703125 751.815429688 999.95703125 753.181640625 1076.03417969 c 4,28,29
 755.3203125 1177.47460938 755.3203125 1177.47460938 850.803710938 1226.05078125 c 132,-1,30
 946.286132812 1274.62695312 946.286132812 1274.62695312 1074.71289062 1282.70410156 c 6,31,-1
 1101.28222656 1284.37402344 l 5,0,-1
1523 424 m 6,32,33
 1480.24316406 1190.1328125 l 6,34,35
 1466.34472656 1439.16992188 1466.34472656 1439.16992188 1631.0546875 1520.26660156 c 6,36,-1
 1648.37792969 1528.77734375 l 5,37,-1
 1648.37792969 464.50390625 l 4,38,39
 1648 204 1648 204 1484.55761719 102.173828125 c 4,40,41
 1258 -39 1258 -39 832.400390625 -43.2001953125 c 4,42,43
 478 -46 478 -46 292.400390625 73.4404296875 c 4,44,45
 110 191 110 191 112.040039062 455.759765625 c 4,46,47
 113 583 113 583 150.919921875 671.759765625 c 4,48,49
 173 721 173 721 202.759765625 717.66015625 c 4,50,51
 233 714 233 714 217.145507812 643.064453125 c 4,52,53
 203 578 203 578 204.919921875 490.3203125 c 4,54,55
 211 228 211 228 586.16015625 170.639648438 c 4,56,57
 723 150 723 150 881 150.458984375 c 4,58,59
 1131 151 1131 151 1333.80078125 208.71875 c 4,60,61
 1531.87597656 264.96484375 1531.87597656 264.96484375 1523 424 c 6,32,33
EndSplineSet
Substitution2: "'fina' Terminal Forms in Arabic lookup 9 subtable" uniFEDA
Substitution2: "'medi' Medial Forms in Arabic lookup 11 subtable" uniFEDC
Substitution2: "'init' Initial Forms in Arabic lookup 13 subtable" uniFEDB
EndChar

StartChar: uni0644
Encoding: 1604 1604 36
Width: 1348
VWidth: 2461
GlyphClass: 2
Flags: W
AnchorPoint: "Anchor-10" 530.118 1088.71 basechar 0
AnchorPoint: "Anchor-7" 372.402 -643.555 basechar 0
LayerCount: 2
Fore
SplineSet
1204.25195312 13.7373046875 m 4,0,1
 1190 -522 1190 -522 636.391601562 -522.719726562 c 4,2,3
 309 -523 309 -523 167.788085938 -336.904296875 c 0,4,5
 93 -239 93 -239 90.3759765625 -87 c 0,6,7
 89 4 89 4 113.360351562 114.48046875 c 0,8,9
 140 235 140 235 173.83984375 315.360351562 c 0,10,11
 215 416 215 416 254.83984375 408.100585938 c 0,12,13
 287 402 287 402 263.896484375 336.959960938 c 0,14,15
 161 36 161 36 247.143554688 -133.298828125 c 0,16,17
 350 -337 350 -337 641.08984375 -337.14453125 c 4,18,19
 1092 -338 1092 -338 1106.1875 3.4453125 c 28,20,21
 1108.99912485 71.9786682645 1108.99912485 71.9786682645 1101.06738281 189.528320312 c 6,22,-1
 1039.85449219 1096.71289062 l 6,23,24
 1017.98252289 1425.26253227 1017.98252289 1425.26253227 1178.01953125 1508.63574219 c 6,25,-1
 1207.41601562 1523.95019531 l 5,26,-1
 1207.41601562 431.447265625 l 6,27,28
 1207 133 1207 133 1204.25195312 13.7373046875 c 4,0,1
EndSplineSet
Substitution2: "'fina' Terminal Forms in Arabic lookup 9 subtable" uniFEDE
Substitution2: "'medi' Medial Forms in Arabic lookup 11 subtable" uniFEE0
Substitution2: "'init' Initial Forms in Arabic lookup 13 subtable" uniFEDF
EndChar

StartChar: uni0645
Encoding: 1605 1605 37
Width: 1167
VWidth: 2492
GlyphClass: 2
Flags: W
AnchorPoint: "Anchor-10" 649.046 1148.62 basechar 0
AnchorPoint: "Anchor-7" 176.395 -736.445 basechar 0
LayerCount: 2
Fore
SplineSet
746.926757812 378.037109375 m 4,0,1
 901 377 901 377 905.959960938 385.559570312 c 5,2,3
 917 403 917 403 938.424804688 456.194335938 c 4,4,5
 985 569 985 569 745.287109375 673.102539062 c 4,6,7
 617 729 617 729 547.11328125 637.215820312 c 28,8,9
 497 571 497 571 511.759765625 389.879882812 c 5,10,11
 582 380 582 380 746.926757812 378.037109375 c 4,0,1
456.147460938 207.462890625 m 4,12,13
 295 207 295 207 250.171875 121.3125 c 4,14,15
 205.1640625 34.3173828125 205.1640625 34.3173828125 222.697265625 -107.647460938 c 6,16,-1
 250.876953125 -335.8203125 l 6,17,18
 277.954101562 -553.627929688 277.954101562 -553.627929688 131.112304688 -637.104492188 c 6,19,-1
 101.259765625 -654.075195312 l 5,20,-1
 101.259765625 -54.6962890625 l 6,21,22
 101 119 101 119 159.43359375 230.040039062 c 4,23,24
 212.754882812 330.5390625 212.754882812 330.5390625 362.104492188 356.370117188 c 6,25,-1
 367.095703125 357.233398438 l 5,26,-1
 366.845703125 362.293945312 l 6,27,28
 352 655 352 655 466.696289062 778.650390625 c 4,29,30
 626 950 626 950 857.673828125 797.5 c 28,31,32
 1133 616 1133 616 1094.87402344 471.911132812 c 4,33,34
 1066 362 1066 362 1022 284 c 4,35,36
 996 238 996 238 974 222 c 4,37,38
 937 195 937 195 778.028320312 200.590820312 c 4,39,40
 573 207 573 207 456.147460938 207.462890625 c 4,12,13
EndSplineSet
Substitution2: "'init' Initial Forms in Arabic lookup 13 subtable" uniFEE3
Substitution2: "'medi' Medial Forms in Arabic lookup 11 subtable" uniFEE4
Substitution2: "'fina' Terminal Forms in Arabic lookup 9 subtable" uniFEE2
EndChar

StartChar: uni0647
Encoding: 1607 1607 39
Width: 859
VWidth: 2468
GlyphClass: 2
Flags: W
AnchorPoint: "Anchor-10" 399.208 1200.77 basechar 0
AnchorPoint: "Anchor-7" 282.002 -225.928 basechar 0
LayerCount: 2
Fore
SplineSet
231.538085938 349.274414062 m 4,0,1
 203 230 203 230 335.557617188 186.825195312 c 4,2,3
 433 155 433 155 531.8359375 187.25 c 4,4,5
 677 236 677 236 617.108398438 383.658203125 c 4,6,7
 575 488 575 488 411.328125 627.19140625 c 5,8,9
 257 453 257 453 231.538085938 349.274414062 c 4,0,1
334.3359375 720.28515625 m 5,10,-1
 325.833007812 727.924804688 l 6,11,12
 308.456226678 743.588743916 308.456226678 743.588743916 375.63671875 892.099609375 c 6,13,-1
 379.809570312 901.32421875 l 5,14,15
 668.665253258 636.473133267 668.665253258 636.473133267 736.169921875 438.850585938 c 4,16,17
 814 210 814 210 682.646484375 82.7265625 c 4,18,19
 603 5 603 5 428.924804688 2.8359375 c 4,20,21
 296 1 296 1 208.689453125 52.875 c 4,22,23
 122 105 122 105 101.634765625 210.341796875 c 4,24,25
 66 396 66 396 334.3359375 720.28515625 c 5,10,-1
EndSplineSet
Substitution2: "'fina' Terminal Forms in Arabic lookup 9 subtable" uniFEEA
Substitution2: "'medi' Medial Forms in Arabic lookup 11 subtable" uniFEEC
Substitution2: "'init' Initial Forms in Arabic lookup 13 subtable" uniFEEB
EndChar

StartChar: uni0648
Encoding: 1608 1608 40
Width: 925
VWidth: 2491
GlyphClass: 2
Flags: W
AnchorPoint: "Anchor-10" 447.146 1177.23 basechar 0
AnchorPoint: "Anchor-7" 362.457 -722.626 basechar 0
LayerCount: 2
Fore
SplineSet
598 -381 m 24,0,1
 492.142857143 -459 492.142857143 -459 406 -459 c 0,2,3
 274 -459 274 -459 104 -418.690429688 c 0,4,5
 46.7933590774 -404.749537055 46.7933590774 -404.749537055 39.65234375 -371 c 0,6,7
 34 -345 34 -345 120 -330.262695312 c 0,8,9
 541 -258 541 -258 657 -75.505859375 c 0,10,11
 680 -39 680 -39 692.854492188 1 c 1,12,13
 614 -15 614 -15 526.349609375 -14.7265625 c 0,14,15
 325 -14 325 -14 251.284179688 89.7919921875 c 0,16,17
 194 171 194 171 211.59765625 296.192382812 c 0,18,19
 241 510 241 510 357.521484375 616.749023438 c 0,20,21
 431 684 431 684 523.481445312 683.17578125 c 0,22,23
 663 682 663 682 744.120117188 517.3203125 c 0,24,25
 827 349 827 349 825.626953125 155.51953125 c 0,26,27
 825 61 825 61 813.959960938 -2 c 0,28,29
 770 -254 770 -254 598 -381 c 24,0,1
495.267578125 508.27734375 m 4,30,31
 384 499 384 499 344.9375 309.765625 c 0,32,33
 315 166 315 166 522.51953125 171.217773438 c 0,34,35
 551 172 551 172 694.819335938 185.125976562 c 1,36,37
 681 326 681 326 636.850585938 415.609375 c 4,38,39
 587 516 587 516 495.267578125 508.27734375 c 4,30,31
EndSplineSet
PairPos2: "'kern' Horizontal Kerning lookup 15-1" uniFB90 dx=-150 dy=0 dh=-150 dv=0 dx=0 dy=0 dh=0 dv=0
PairPos2: "'kern' Horizontal Kerning lookup 15-1" uniFB8E dx=-150 dy=0 dh=-150 dv=0 dx=0 dy=0 dh=0 dv=0
PairPos2: "'kern' Horizontal Kerning lookup 15-1" uni06A9 dx=-150 dy=0 dh=-150 dv=0 dx=0 dy=0 dh=0 dv=0
PairPos2: "'kern' Horizontal Kerning lookup 15-1" uni064A dx=-50 dy=0 dh=-50 dv=0 dx=0 dy=0 dh=0 dv=0
PairPos2: "'kern' Horizontal Kerning lookup 15-1" afii57414 dx=-50 dy=0 dh=-50 dv=0 dx=0 dy=0 dh=0 dv=0
PairPos2: "'kern' Horizontal Kerning lookup 15-1" uni0649 dx=-50 dy=0 dh=-50 dv=0 dx=0 dy=0 dh=0 dv=0
PairPos2: "'kern' Horizontal Kerning lookup 15-1" uni0648 dx=-50 dy=0 dh=-50 dv=0 dx=0 dy=0 dh=0 dv=0
PairPos2: "'kern' Horizontal Kerning lookup 15-1" afii57412 dx=-50 dy=0 dh=-50 dv=0 dx=0 dy=0 dh=0 dv=0
PairPos2: "'kern' Horizontal Kerning lookup 15-1" uniFEEB dx=-50 dy=0 dh=-50 dv=0 dx=0 dy=0 dh=0 dv=0
PairPos2: "'kern' Horizontal Kerning lookup 15-1" uni0647 dx=-50 dy=0 dh=-50 dv=0 dx=0 dy=0 dh=0 dv=0
PairPos2: "'kern' Horizontal Kerning lookup 15-1" uniFEE7 dx=-50 dy=0 dh=-50 dv=0 dx=0 dy=0 dh=0 dv=0
PairPos2: "'kern' Horizontal Kerning lookup 15-1" uni0646 dx=-50 dy=0 dh=-50 dv=0 dx=0 dy=0 dh=0 dv=0
PairPos2: "'kern' Horizontal Kerning lookup 15-1" uniFEE3 dx=-50 dy=0 dh=-50 dv=0 dx=0 dy=0 dh=0 dv=0
PairPos2: "'kern' Horizontal Kerning lookup 15-1" uni0645 dx=-50 dy=0 dh=-50 dv=0 dx=0 dy=0 dh=0 dv=0
PairPos2: "'kern' Horizontal Kerning lookup 15-1" uniFEFB dx=-50 dy=0 dh=-50 dv=0 dx=0 dy=0 dh=0 dv=0
PairPos2: "'kern' Horizontal Kerning lookup 15-1" uniFEDF dx=-50 dy=0 dh=-50 dv=0 dx=0 dy=0 dh=0 dv=0
PairPos2: "'kern' Horizontal Kerning lookup 15-1" uni0644 dx=-50 dy=0 dh=-50 dv=0 dx=0 dy=0 dh=0 dv=0
PairPos2: "'kern' Horizontal Kerning lookup 15-1" uniFEDB dx=-150 dy=0 dh=-150 dv=0 dx=0 dy=0 dh=0 dv=0
PairPos2: "'kern' Horizontal Kerning lookup 15-1" uni0643 dx=-50 dy=0 dh=-50 dv=0 dx=0 dy=0 dh=0 dv=0
PairPos2: "'kern' Horizontal Kerning lookup 15-1" uniFED7 dx=-50 dy=0 dh=-50 dv=0 dx=0 dy=0 dh=0 dv=0
PairPos2: "'kern' Horizontal Kerning lookup 15-1" uni0642 dx=-50 dy=0 dh=-50 dv=0 dx=0 dy=0 dh=0 dv=0
PairPos2: "'kern' Horizontal Kerning lookup 15-1" uniFED3 dx=-50 dy=0 dh=-50 dv=0 dx=0 dy=0 dh=0 dv=0
PairPos2: "'kern' Horizontal Kerning lookup 15-1" uni0641 dx=-50 dy=0 dh=-50 dv=0 dx=0 dy=0 dh=0 dv=0
PairPos2: "'kern' Horizontal Kerning lookup 15-1" uniFECF dx=-50 dy=0 dh=-50 dv=0 dx=0 dy=0 dh=0 dv=0
PairPos2: "'kern' Horizontal Kerning lookup 15-1" uniFECB dx=-50 dy=0 dh=-50 dv=0 dx=0 dy=0 dh=0 dv=0
PairPos2: "'kern' Horizontal Kerning lookup 15-1" uniFEC7 dx=-50 dy=0 dh=-50 dv=0 dx=0 dy=0 dh=0 dv=0
PairPos2: "'kern' Horizontal Kerning lookup 15-1" uni0638 dx=-50 dy=0 dh=-50 dv=0 dx=0 dy=0 dh=0 dv=0
PairPos2: "'kern' Horizontal Kerning lookup 15-1" uniFEC3 dx=-50 dy=0 dh=-50 dv=0 dx=0 dy=0 dh=0 dv=0
PairPos2: "'kern' Horizontal Kerning lookup 15-1" uni0637 dx=-50 dy=0 dh=-50 dv=0 dx=0 dy=0 dh=0 dv=0
PairPos2: "'kern' Horizontal Kerning lookup 15-1" uniFEBF dx=-50 dy=0 dh=-50 dv=0 dx=0 dy=0 dh=0 dv=0
PairPos2: "'kern' Horizontal Kerning lookup 15-1" uni0636 dx=-50 dy=0 dh=-50 dv=0 dx=0 dy=0 dh=0 dv=0
PairPos2: "'kern' Horizontal Kerning lookup 15-1" uniFEBB dx=-50 dy=0 dh=-50 dv=0 dx=0 dy=0 dh=0 dv=0
PairPos2: "'kern' Horizontal Kerning lookup 15-1" uni0635 dx=-50 dy=0 dh=-50 dv=0 dx=0 dy=0 dh=0 dv=0
PairPos2: "'kern' Horizontal Kerning lookup 15-1" uniFEB7 dx=-50 dy=0 dh=-50 dv=0 dx=0 dy=0 dh=0 dv=0
PairPos2: "'kern' Horizontal Kerning lookup 15-1" uni0634 dx=-50 dy=0 dh=-50 dv=0 dx=0 dy=0 dh=0 dv=0
PairPos2: "'kern' Horizontal Kerning lookup 15-1" uniFEB3 dx=-50 dy=0 dh=-50 dv=0 dx=0 dy=0 dh=0 dv=0
PairPos2: "'kern' Horizontal Kerning lookup 15-1" uni0633 dx=-50 dy=0 dh=-50 dv=0 dx=0 dy=0 dh=0 dv=0
PairPos2: "'kern' Horizontal Kerning lookup 15-1" uni0632 dx=-50 dy=0 dh=-50 dv=0 dx=0 dy=0 dh=0 dv=0
PairPos2: "'kern' Horizontal Kerning lookup 15-1" uni0631 dx=-50 dy=0 dh=-50 dv=0 dx=0 dy=0 dh=0 dv=0
PairPos2: "'kern' Horizontal Kerning lookup 15-1" uni0630 dx=-50 dy=0 dh=-50 dv=0 dx=0 dy=0 dh=0 dv=0
PairPos2: "'kern' Horizontal Kerning lookup 15-1" uni062F dx=-50 dy=0 dh=-50 dv=0 dx=0 dy=0 dh=0 dv=0
PairPos2: "'kern' Horizontal Kerning lookup 15-1" uniFEA7 dx=-50 dy=0 dh=-50 dv=0 dx=0 dy=0 dh=0 dv=0
PairPos2: "'kern' Horizontal Kerning lookup 15-1" uniFEA3 dx=-50 dy=0 dh=-50 dv=0 dx=0 dy=0 dh=0 dv=0
PairPos2: "'kern' Horizontal Kerning lookup 15-1" uniFE9F dx=-50 dy=0 dh=-50 dv=0 dx=0 dy=0 dh=0 dv=0
PairPos2: "'kern' Horizontal Kerning lookup 15-1" uniFE9B dx=-50 dy=0 dh=-50 dv=0 dx=0 dy=0 dh=0 dv=0
PairPos2: "'kern' Horizontal Kerning lookup 15-1" uni062B dx=-50 dy=0 dh=-50 dv=0 dx=0 dy=0 dh=0 dv=0
PairPos2: "'kern' Horizontal Kerning lookup 15-1" uniFE97 dx=-50 dy=0 dh=-50 dv=0 dx=0 dy=0 dh=0 dv=0
PairPos2: "'kern' Horizontal Kerning lookup 15-1" uni062A dx=-50 dy=0 dh=-50 dv=0 dx=0 dy=0 dh=0 dv=0
PairPos2: "'kern' Horizontal Kerning lookup 15-1" uni0629 dx=-50 dy=0 dh=-50 dv=0 dx=0 dy=0 dh=0 dv=0
PairPos2: "'kern' Horizontal Kerning lookup 15-1" uni0628 dx=-50 dy=0 dh=-50 dv=0 dx=0 dy=0 dh=0 dv=0
PairPos2: "'kern' Horizontal Kerning lookup 15-1" uni0627 dx=-50 dy=0 dh=-50 dv=0 dx=0 dy=0 dh=0 dv=0
PairPos2: "'kern' Horizontal Kerning lookup 15-1" uni0623 dx=-50 dy=0 dh=-50 dv=0 dx=0 dy=0 dh=0 dv=0
PairPos2: "'kern' Horizontal Kerning lookup 15-1" uni0622 dx=-100 dy=0 dh=-100 dv=0 dx=0 dy=0 dh=0 dv=0
PairPos2: "'kern' Horizontal Kerning lookup 15-1" uni0621 dx=-50 dy=0 dh=-50 dv=0 dx=0 dy=0 dh=0 dv=0
PairPos2: "'kern' Horizontal Kerning lookup 15-1" uniFB94 dx=-150 dy=0 dh=-150 dv=0 dx=0 dy=0 dh=0 dv=0
PairPos2: "'kern' Horizontal Kerning lookup 15-1" uniFB92 dx=-150 dy=0 dh=-150 dv=0 dx=0 dy=0 dh=0 dv=0
PairPos2: "'kern' Horizontal Kerning lookup 15-1" afii57509 dx=-150 dy=0 dh=-150 dv=0 dx=0 dy=0 dh=0 dv=0
PairPos2: "'kern' Horizontal Kerning lookup 15-1" afii57508 dx=-50 dy=0 dh=-50 dv=0 dx=0 dy=0 dh=0 dv=0
PairPos2: "'kern' Horizontal Kerning lookup 15-1" uniFB7C dx=-50 dy=0 dh=-50 dv=0 dx=0 dy=0 dh=0 dv=0
PairPos2: "'kern' Horizontal Kerning lookup 15-1" afii57506 dx=-50 dy=0 dh=-50 dv=0 dx=0 dy=0 dh=0 dv=0
PairPos2: "'kern' Horizontal Kerning lookup 15-1" uniFE8B dx=-50 dy=0 dh=-50 dv=0 dx=0 dy=0 dh=0 dv=0
Substitution2: "'fina' Terminal Forms in Arabic lookup 9 subtable" uniFEEE
EndChar

StartChar: uni0649
Encoding: 1609 1609 41
Width: 1520
VWidth: 2488
GlyphClass: 2
Flags: W
AnchorPoint: "Anchor-10" 504.452 1102.8 basechar 0
AnchorPoint: "Anchor-7" 270.419 -623.612 basechar 0
LayerCount: 2
Fore
SplineSet
1385.88085938 -113.963867188 m 0,0,1
 1280 -285 1280 -285 1051.83984375 -379.360351562 c 0,2,3
 881 -450 881 -450 691.930664062 -452.655273438 c 0,4,5
 180 -460 180 -460 105.83984375 -97.2001953125 c 0,6,7
 81 24 81 24 102.599609375 165.240234375 c 0,8,9
 121 283 121 283 180.360351562 398.51953125 c 0,10,11
 254 541 254 541 298.360351562 531.649414062 c 0,12,13
 333 524 333 524 310.736328125 474.225585938 c 0,14,15
 276 397 276 397 258.229492188 339.173828125 c 0,16,17
 233 256 233 256 223.3359375 162.052734375 c 0,18,19
 205 -16 205 -16 285.7890625 -117.728515625 c 0,20,21
 405 -270 405 -270 688.87890625 -269.61328125 c 0,22,23
 886 -269 886 -269 1033.48046875 -218.822265625 c 0,24,25
 1168 -173 1168 -173 1254.92089844 -87.1162109375 c 24,26,27
 1330 -14 1330 -14 1300.95214844 22.130859375 c 0,28,29
 1276 53 1276 53 1138.41210938 53.578125 c 0,30,31
 952 54 952 54 896.022460938 102.650390625 c 0,32,33
 788 198 788 198 879.83984375 433.919921875 c 4,34,35
 1007 764 1007 764 1223.48339844 783.45703125 c 0,36,37
 1393.69940122 798.972599751 1393.69940122 798.972599751 1408.07617188 612.19140625 c 2,38,-1
 1409.99902344 587.209960938 l 1,39,40
 1165 615 1165 615 1053.35058594 486 c 0,41,42
 963 381 963 381 969.190429688 289.756835938 c 0,43,44
 974 226 974 226 1147.77441406 227.633789062 c 0,45,46
 1292 229 1292 229 1356.55957031 193.290039062 c 0,47,48
 1436 148 1436 148 1429.73242188 25.759765625 c 0,49,50
 1426 -47 1426 -47 1385.88085938 -113.963867188 c 0,0,1
EndSplineSet
Substitution2: "'fina' Terminal Forms in Arabic lookup 9 subtable" uniFEF0
Substitution2: "'medi' Medial Forms in Arabic lookup 11 subtable" uniFBE9
Substitution2: "'init' Initial Forms in Arabic lookup 13 subtable" uniFBE8
EndChar

StartChar: uni064B
Encoding: 1611 1611 43
Width: -22
VWidth: 1990
GlyphClass: 4
Flags: W
AnchorPoint: "Anchor-10" 526.624 960.612 mark 0
AnchorPoint: "Anchor-9" 526.624 960.612 mark 0
AnchorPoint: "Anchor-1" 492.064 1434.91 basemark 0
AnchorPoint: "Anchor-1" 526.624 960.612 mark 0
LayerCount: 2
Fore
SplineSet
260.94140625 914.122070312 m 1,0,-1
 260.94140625 1013.25683594 l 1,1,-1
 696.107421875 1191.20019531 l 1,2,-1
 696.107421875 1092.06347656 l 1,3,-1
 260.94140625 914.122070312 l 1,0,-1
260.94140625 1150.4296875 m 1,4,-1
 260.94140625 1249.56445312 l 1,5,-1
 696.107421875 1427.50683594 l 1,6,-1
 696.107421875 1328.37109375 l 1,7,-1
 260.94140625 1150.4296875 l 1,4,-1
EndSplineSet
EndChar

StartChar: uni064C
Encoding: 1612 1612 44
Width: -22
VWidth: 1990
GlyphClass: 4
Flags: W
AnchorPoint: "Anchor-10" 584.438 1050.75 mark 0
AnchorPoint: "Anchor-9" 584.438 1050.75 mark 0
AnchorPoint: "Anchor-1" 490.738 1648.81 basemark 0
AnchorPoint: "Anchor-1" 584.438 1050.75 mark 0
LayerCount: 2
Fore
SplineSet
563.893554688 1497.19433594 m 0,0,1
 492.016601562 1497.19433594 492.016601562 1497.19433594 492.016601562 1433.06542969 c 0,2,3
 492.016601562 1386.57421875 492.016601562 1386.57421875 545.577148438 1365.15039062 c 0,4,5
 565.571289062 1357.15429688 565.571289062 1357.15429688 604.827148438 1345.06347656 c 1,6,-1
 616.110351562 1371.38671875 l 2,7,8
 626.1328125 1394.77441406 626.1328125 1394.77441406 626.1328125 1428.27539062 c 128,-1,9
 626.1328125 1461.77636719 626.1328125 1461.77636719 604.626953125 1479.48632812 c 128,-1,10
 583.120117188 1497.19433594 583.120117188 1497.19433594 563.893554688 1497.19433594 c 0,0,1
291.37109375 1198.14257812 m 0,11,12
 329.666992188 1116.0859375 329.666992188 1116.0859375 388.407226562 1116.0859375 c 128,-1,13
 447.147460938 1116.0859375 447.147460938 1116.0859375 512.15234375 1178.99511719 c 0,14,15
 550.139648438 1215.95703125 550.139648438 1215.95703125 571.80078125 1259.28027344 c 2,16,-1
 580.659179688 1277.00097656 l 1,17,-1
 561.276367188 1281.11328125 l 2,18,19
 481.22265625 1298.08203125 481.22265625 1298.08203125 437.5234375 1358.39355469 c 0,20,21
 413.310546875 1391.80957031 413.310546875 1391.80957031 413.310546875 1417.97753906 c 128,-1,22
 413.310546875 1444.14453125 413.310546875 1444.14453125 414.555664062 1454.56054688 c 0,23,24
 419.53125 1496.21484375 419.53125 1496.21484375 450.467773438 1535.08203125 c 128,-1,25
 481.403320312 1573.94824219 481.403320312 1573.94824219 550.317382812 1573.94824219 c 128,-1,26
 619.23046875 1573.94824219 619.23046875 1573.94824219 661.059570312 1533 c 128,-1,27
 702.887695312 1492.05175781 702.887695312 1492.05175781 702.887695312 1421.34960938 c 0,28,29
 702.887695312 1385.63378906 702.887695312 1385.63378906 691.883789062 1350.78710938 c 2,30,-1
 685.924804688 1331.921875 l 1,31,-1
 705.685546875 1330.88476562 l 2,32,33
 725.780273438 1329.82324219 725.780273438 1329.82324219 760.486328125 1329.06640625 c 1,34,-1
 760.486328125 1252.21777344 l 1,35,36
 727.190429688 1252.5 727.190429688 1252.5 711.861328125 1254.03808594 c 2,37,-1
 649.938476562 1259.99121094 l 1,38,39
 621.208984375 1192.65917969 621.208984375 1192.65917969 565.984375 1135.78222656 c 128,-1,40
 510.758789062 1078.90527344 510.758789062 1078.90527344 469.83203125 1059.11914062 c 128,-1,41
 428.905273438 1039.33300781 428.905273438 1039.33300781 386.279296875 1039.33300781 c 0,42,43
 285.712890625 1039.33300781 285.712890625 1039.33300781 234.702148438 1179.625 c 0,44,45
 222.09375 1214.078125 222.09375 1214.078125 221.065429688 1309.38378906 c 1,46,-1
 278.30078125 1309.38378906 l 1,47,48
 279.317382812 1224.25976562 279.317382812 1224.25976562 291.37109375 1198.14257812 c 0,11,12
738.28125 1329.88574219 m 2,49,-1
 738.19140625 1329.89160156 l 2,50,51
 738.237304688 1329.88769531 738.237304688 1329.88769531 738.28125 1329.88574219 c 2,49,-1
EndSplineSet
EndChar

StartChar: uni064D
Encoding: 1613 1613 45
Width: -22
VWidth: 1990
GlyphClass: 4
Flags: W
AnchorPoint: "Anchor-7" 477.467 65.4287 mark 0
AnchorPoint: "Anchor-6" 477.467 65.4287 mark 0
AnchorPoint: "Anchor-0" 549.088 -404.448 basemark 0
AnchorPoint: "Anchor-0" 477.467 65.4287 mark 0
LayerCount: 2
Fore
SplineSet
265.50390625 -445.330078125 m 1,0,-1
 265.50390625 -346.1953125 l 1,1,-1
 700.668945312 -168.252929688 l 1,2,-1
 700.668945312 -267.387695312 l 1,3,-1
 265.50390625 -445.330078125 l 1,0,-1
265.50390625 -209.0234375 m 1,4,-1
 265.50390625 -109.887695312 l 1,5,-1
 700.668945312 68.0546875 l 1,6,-1
 700.668945312 -31.0810546875 l 1,7,-1
 265.50390625 -209.0234375 l 1,4,-1
EndSplineSet
EndChar

StartChar: uni064E
Encoding: 1614 1614 46
Width: -22
VWidth: 1990
GlyphClass: 4
Flags: W
AnchorPoint: "Anchor-10" 499.253 1176.03 mark 0
AnchorPoint: "Anchor-9" 499.253 1176.03 mark 0
AnchorPoint: "Anchor-1" 464.692 1456.81 basemark 0
AnchorPoint: "Anchor-1" 499.253 1176.03 mark 0
LayerCount: 2
Fore
SplineSet
234.482421875 1149.51660156 m 1,0,-1
 234.482421875 1248.65234375 l 1,1,-1
 669.6484375 1426.59472656 l 1,2,-1
 669.6484375 1327.45898438 l 1,3,-1
 234.482421875 1149.51660156 l 1,0,-1
EndSplineSet
EndChar

StartChar: uni064F
Encoding: 1615 1615 47
Width: -22
VWidth: 1990
GlyphClass: 4
Flags: W
AnchorPoint: "Anchor-10" 531.897 1106.79 mark 0
AnchorPoint: "Anchor-9" 531.897 1106.79 mark 0
AnchorPoint: "Anchor-1" 472.192 1661.64 basemark 0
AnchorPoint: "Anchor-1" 531.897 1106.79 mark 0
LayerCount: 2
Fore
SplineSet
710.8359375 1265.08984375 m 1,0,1
 661.82421875 1265.75976562 661.82421875 1265.75976562 596.794921875 1272.68945312 c 1,2,3
 551.232421875 1208.73632812 551.232421875 1208.73632812 486.758789062 1168.99121094 c 0,4,5
 384.48046875 1105.05664062 384.48046875 1105.05664062 268.704101562 1100.73632812 c 1,6,-1
 268.704101562 1177.40917969 l 1,7,8
 381.887695312 1181.08789062 381.887695312 1181.08789062 449.551757812 1237.6015625 c 0,9,10
 479.51953125 1262.30371094 479.51953125 1262.30371094 492.220703125 1276.20996094 c 2,11,-1
 510.866210938 1295.84960938 l 1,12,-1
 484.435546875 1301.71679688 l 2,13,14
 478.65625 1302.91210938 478.65625 1302.91210938 444.810546875 1320.31542969 c 0,15,16
 412.127929688 1337.47265625 412.127929688 1337.47265625 387.81640625 1370.79589844 c 0,17,18
 363.744140625 1404 363.744140625 1404 363.661132812 1444.41992188 c 0,19,20
 363.744140625 1523.23242188 363.744140625 1523.23242188 424.89453125 1569.33886719 c 0,21,22
 448.416015625 1587.16796875 448.416015625 1587.16796875 508.86328125 1586.77636719 c 0,23,24
 569.375976562 1587.16796875 569.375976562 1587.16796875 611.41015625 1545.828125 c 0,25,26
 653.18359375 1505.08789062 653.18359375 1505.08789062 653.237304688 1434.17871094 c 0,27,28
 653.18359375 1405.08105469 653.18359375 1405.08105469 640.26171875 1363.55566406 c 2,29,-1
 634.447265625 1344.86914062 l 1,30,-1
 653.98828125 1343.71386719 l 2,31,32
 686.879882812 1341.79199219 686.879882812 1341.79199219 710.8359375 1341.81640625 c 1,33,-1
 710.8359375 1265.08984375 l 1,0,1
555.177734375 1357.89257812 m 1,34,-1
 566.4609375 1384.21386719 l 2,35,36
 576.484375 1407.60644531 576.484375 1407.60644531 576.484375 1441.10644531 c 128,-1,37
 576.484375 1474.60546875 576.484375 1474.60546875 554.974609375 1492.31445312 c 128,-1,38
 533.463867188 1510.0234375 533.463867188 1510.0234375 507.396484375 1510.0234375 c 128,-1,39
 481.329101562 1510.0234375 481.329101562 1510.0234375 461.848632812 1495.18359375 c 128,-1,40
 442.3671875 1480.34472656 442.3671875 1480.34472656 442.3671875 1439.87402344 c 128,-1,41
 442.3671875 1399.40332031 442.3671875 1399.40332031 495.927734375 1377.97753906 c 0,42,43
 515.947265625 1369.97167969 515.947265625 1369.97167969 555.177734375 1357.89257812 c 1,34,-1
EndSplineSet
EndChar

StartChar: uni0650
Encoding: 1616 1616 48
Width: -22
VWidth: 1990
GlyphClass: 4
Flags: W
AnchorPoint: "Anchor-7" 490.226 -13.9971 mark 0
AnchorPoint: "Anchor-6" 490.226 -13.9971 mark 0
AnchorPoint: "Anchor-0" 531.381 -282.48 basemark 0
AnchorPoint: "Anchor-0" 490.226 -13.9971 mark 0
LayerCount: 2
Fore
SplineSet
274.627929688 -304.823242188 m 1,0,-1
 274.627929688 -205.6875 l 1,1,-1
 709.79296875 -27.74609375 l 1,2,-1
 709.79296875 -126.880859375 l 1,3,-1
 274.627929688 -304.823242188 l 1,0,-1
EndSplineSet
EndChar

StartChar: uni0651
Encoding: 1617 1617 49
Width: -22
VWidth: 1990
GlyphClass: 4
Flags: W
AnchorPoint: "Anchor-10" 526.624 1201.15 mark 0
AnchorPoint: "Anchor-9" 526.624 1201.15 mark 0
AnchorPoint: "Anchor-1" 500.123 1590.05 basemark 0
AnchorPoint: "Anchor-1" 526.624 1201.15 mark 0
LayerCount: 2
Fore
SplineSet
498.879882812 1323.58007812 m 1,0,1
 472.607421875 1181.08789062 472.607421875 1181.08789062 347.74609375 1180.98144531 c 0,2,3
 222.912109375 1181.08789062 222.912109375 1181.08789062 222.208984375 1341.69921875 c 0,4,5
 222.047851562 1373.75976562 222.047851562 1373.75976562 235.623046875 1463.30371094 c 1,6,-1
 300.521484375 1463.30371094 l 1,7,8
 289.440429688 1385.85644531 289.440429688 1385.85644531 289.440429688 1361.6640625 c 0,9,10
 289.440429688 1264.03222656 289.440429688 1264.03222656 358.516601562 1264.09863281 c 0,11,12
 453.599609375 1264.03222656 453.599609375 1264.03222656 458.443359375 1388.83886719 c 0,13,14
 459.647460938 1423.0078125 459.647460938 1423.0078125 459.540039062 1463.71679688 c 0,15,16
 459.647460938 1504.22363281 459.647460938 1504.22363281 459.529296875 1511.96191406 c 1,17,-1
 523.690429688 1511.96191406 l 1,18,19
 525.3125 1480.89648438 525.3125 1480.89648438 525.560546875 1439.41601562 c 0,20,21
 525.3125 1317.77636719 525.3125 1317.77636719 631.11328125 1317.95117188 c 2,22,-1
 631.658203125 1317.95214844 l 2,23,24
 695.51953125 1318.46386719 695.51953125 1318.46386719 695.711914062 1420.84570312 c 0,25,26
 696.383789062 1512 696.383789062 1512 686.295898438 1565.85742188 c 1,27,-1
 755.086914062 1565.85742188 l 1,28,29
 764.639648438 1497.3125 764.639648438 1497.3125 764.639648438 1416.09667969 c 0,30,31
 764.639648438 1283.90332031 764.639648438 1283.90332031 691.765625 1252.72851562 c 0,32,33
 663.552734375 1240.70410156 663.552734375 1240.70410156 635.903320312 1239.83984375 c 0,34,35
 574.559570312 1237.24804688 574.559570312 1237.24804688 542.592773438 1260.57617188 c 0,36,37
 503.712890625 1289.08789062 503.712890625 1289.08789062 498.879882812 1323.58007812 c 1,0,1
EndSplineSet
EndChar

StartChar: uni0652
Encoding: 1618 1618 50
Width: -29
VWidth: 2488
GlyphClass: 4
Flags: W
AnchorPoint: "Anchor-10" 635.609 1282.72 mark 0
AnchorPoint: "Anchor-9" 635.609 1282.72 mark 0
AnchorPoint: "Anchor-1" 619.643 1936.77 basemark 0
AnchorPoint: "Anchor-1" 635.609 1282.72 mark 0
LayerCount: 2
Fore
SplineSet
763.932617188 1573.67089844 m 0,0,1
 763.932617188 1626.24609375 763.932617188 1626.24609375 727.1640625 1663.01464844 c 128,-1,2
 690.399414062 1699.78320312 690.399414062 1699.78320312 637.075195312 1699.78320312 c 0,3,4
 583.004882812 1699.78320312 583.004882812 1699.78320312 546.614257812 1663.390625 c 128,-1,5
 510.221679688 1626.99902344 510.221679688 1626.99902344 510.221679688 1573.67089844 c 0,6,7
 510.221679688 1519.6015625 510.221679688 1519.6015625 546.614257812 1483.20996094 c 128,-1,8
 583.004882812 1446.81835938 583.004882812 1446.81835938 637.075195312 1446.81835938 c 0,9,10
 690.401367188 1446.81835938 690.401367188 1446.81835938 727.1640625 1483.58691406 c 128,-1,11
 763.932617188 1520.35449219 763.932617188 1520.35449219 763.932617188 1573.67089844 c 0,0,1
841.771484375 1573.79589844 m 128,-1,13
 841.771484375 1487.93164062 841.771484375 1487.93164062 782.490234375 1428.27050781 c 128,-1,14
 723.248046875 1368.65527344 723.248046875 1368.65527344 637.4296875 1368.65527344 c 0,15,16
 608.748046875 1368.65527344 608.748046875 1368.65527344 583.114257812 1375.26757812 c 128,-1,17
 557.481445312 1381.87890625 557.481445312 1381.87890625 534.819335938 1395.11816406 c 128,-1,18
 512.158203125 1408.35839844 512.158203125 1408.35839844 492.370117188 1428.27050781 c 0,19,20
 462.672851562 1458.15820312 462.672851562 1458.15820312 447.880859375 1494.46191406 c 128,-1,21
 433.086914062 1530.76464844 433.086914062 1530.76464844 433.086914062 1573.79589844 c 0,22,23
 433.086914062 1659.63085938 433.086914062 1659.63085938 492.336914062 1718.890625 c 128,-1,24
 551.584960938 1778.13867188 551.584960938 1778.13867188 637.4296875 1778.13867188 c 128,-1,25
 723.274414062 1778.13867188 723.274414062 1778.13867188 782.521484375 1718.890625 c 128,-1,12
 841.771484375 1659.63085938 841.771484375 1659.63085938 841.771484375 1573.79589844 c 128,-1,13
EndSplineSet
EndChar

StartChar: uni0653
Encoding: 1619 1619 51
Width: -3
VWidth: 2459
GlyphClass: 4
Flags: W
AnchorPoint: "Anchor-10" 504.319 1404.45 mark 0
AnchorPoint: "Anchor-9" 504.319 1404.45 mark 0
AnchorPoint: "Anchor-1" 504.319 1829.56 basemark 0
AnchorPoint: "Anchor-1" 504.319 1404.45 mark 0
LayerCount: 2
Fore
SplineSet
349.712890625 1479.8984375 m 4,0,1
 245 1487 245 1487 182.056105073 1422.87393039 c 0,2,3
 164 1405 164 1405 152.039487084 1407.0242072 c 128,-1,4
 140 1409 140 1409 139.81562286 1424.12192167 c 0,5,6
 139.322769595 1433.11224041 139.322769595 1433.11224041 143.810937121 1449.60505296 c 0,7,8
 165 1527 165 1527 217.444576628 1581.58453678 c 0,9,10
 255 1620 255 1620 306.507942574 1621.97143522 c 0,11,12
 346 1624 346 1624 388.670440814 1618.67700286 c 0,13,14
 431 1614 431 1614 548.323195724 1615.41580723 c 0,15,16
 665 1617 665 1617 689.072829829 1622.18150115 c 0,17,18
 713 1627 713 1627 722.913884117 1623.07841555 c 0,19,20
 734 1619 734 1619 722.977484178 1601.49400935 c 0,21,22
 656 1502 656 1502 579.953125 1481.41601562 c 4,23,24
 528 1467 528 1467 349.712890625 1479.8984375 c 4,0,1
EndSplineSet
EndChar

StartChar: uni0657
Encoding: 1623 1623 54
Width: -31
VWidth: 2687
GlyphClass: 4
Flags: W
AnchorPoint: "Anchor-10" 664.286 1572.39 mark 0
AnchorPoint: "Anchor-9" 664.286 1572.39 mark 0
AnchorPoint: "Anchor-1" 664.286 2429.06 basemark 0
AnchorPoint: "Anchor-1" 664.286 1572.39 mark 0
LayerCount: 2
Fore
SplineSet
768.813476562 1871.73046875 m 0,0,1
 768.657226562 1669.03222656 768.657226562 1669.03222656 572.7890625 1670.83398438 c 0,2,3
 491.053710938 1671.36425781 491.053710938 1671.36425781 434.354492188 1726.11523438 c 0,4,5
 377.913085938 1781.00683594 377.913085938 1781.00683594 377.884765625 1876.84179688 c 0,6,7
 377.913085938 1915.97070312 377.913085938 1915.97070312 395.40234375 1972.18261719 c 2,8,-1
 403.251953125 1997.41015625 l 1,9,-1
 376.870117188 1998.96777344 l 2,10,11
 334.756835938 2001.45605469 334.756835938 2001.45605469 300.126953125 2001.53027344 c 1,12,-1
 300.126953125 2105.11132812 l 1,13,14
 366.25 2104.09960938 366.25 2104.09960938 454.083984375 2094.85253906 c 1,15,16
 515.548828125 2182.24804688 515.548828125 2182.24804688 602.633789062 2234.84472656 c 0,17,18
 814.147460938 2364.20605469 814.147460938 2364.20605469 915.624023438 2369.73632812 c 5,19,-1
 915.624023438 2266.22949219 l 5,20,21
 807.149414062 2262.72949219 807.149414062 2262.72949219 652.860351562 2142.21875 c 0,22,23
 621.690429688 2118.09667969 621.690429688 2118.09667969 595.259765625 2090.10058594 c 2,24,-1
 570.08984375 2063.60351562 l 1,25,-1
 605.763671875 2055.66503906 l 2,26,27
 615.859375 2053.94335938 615.859375 2053.94335938 659.262695312 2030.55566406 c 0,28,29
 703.33984375 2007.28710938 703.33984375 2007.28710938 736.204101562 1962.40625 c 0,30,31
 768.657226562 1917.47558594 768.657226562 1917.47558594 768.813476562 1871.73046875 c 0,0,1
560.067382812 1774.453125 m 0,32,33
 662.559570312 1774.453125 662.559570312 1774.453125 662.559570312 1861.02636719 c 0,34,35
 662.559570312 1923.78710938 662.559570312 1923.78710938 590.255859375 1952.71191406 c 0,36,37
 563.344726562 1963.48144531 563.344726562 1963.48144531 510.267578125 1979.83007812 c 1,38,-1
 495.03515625 1944.29394531 l 2,39,40
 481.501953125 1912.71972656 481.501953125 1912.71972656 481.501953125 1867.5 c 128,-1,41
 481.501953125 1822.28027344 481.501953125 1822.28027344 510.537109375 1798.36621094 c 128,-1,42
 539.572265625 1774.453125 539.572265625 1774.453125 560.067382812 1774.453125 c 0,32,33
EndSplineSet
EndChar

StartChar: uni065A
Encoding: 1626 1626 55
Width: 1316
VWidth: 2687
GlyphClass: 4
Flags: W
AnchorPoint: "Anchor-10" 664.286 1572.39 mark 0
AnchorPoint: "Anchor-9" 664.286 1572.39 mark 0
AnchorPoint: "Anchor-1" 661.651 2165.48 basemark 0
AnchorPoint: "Anchor-1" 664.286 1572.39 mark 0
LayerCount: 2
Fore
SplineSet
578.485351562 1674.78808594 m 1,0,-1
 346.224609375 2063.08007812 l 1,1,-1
 481.889648438 2063.08007812 l 1,2,-1
 664.286132812 1789.47753906 l 1,3,-1
 846.682617188 2063.08007812 l 1,4,-1
 982.349609375 2063.08007812 l 1,5,-1
 750.084960938 1674.78808594 l 1,6,-1
 578.485351562 1674.78808594 l 1,0,-1
EndSplineSet
EndChar

StartChar: afii57392
Encoding: 1632 1632 56
Width: 864
VWidth: 2457
GlyphClass: 2
Flags: W
LayerCount: 2
Fore
SplineSet
303.16015625 652.879882812 m 0,0,1
 304 599.120117188 304 599.120117188 340.959960938 562.16015625 c 128,-1,2
 377.919921875 525.200195312 377.919921875 525.200195312 430.83984375 525.200195312 c 128,-1,3
 483.759765625 525.200195312 483.759765625 525.200195312 520.719726562 562.16015625 c 128,-1,4
 557.6796875 599.120117188 557.6796875 599.120117188 558.51953125 652.879882812 c 0,5,6
 557.6796875 706.639648438 557.6796875 706.639648438 520.719726562 743.599609375 c 128,-1,7
 483.759765625 780.559570312 483.759765625 780.559570312 430.83984375 780.559570312 c 128,-1,8
 377.919921875 780.559570312 377.919921875 780.559570312 340.959960938 743.599609375 c 128,-1,9
 304 706.639648438 304 706.639648438 303.16015625 652.879882812 c 0,0,1
162.6328125 648.606445312 m 128,-1,11
 162.6328125 760.637695312 162.6328125 760.637695312 241.728515625 840.194335938 c 128,-1,12
 320.741262385 919.671875 320.741262385 919.671875 431.943359375 919.671875 c 128,-1,13
 543.14718421 919.671875 543.14718421 919.671875 622.158203125 840.194335938 c 128,-1,14
 701.250976562 760.63671875 701.250976562 760.63671875 701.250976562 648.606445312 c 128,-1,15
 701.250976562 536.568359375 701.250976562 536.568359375 622.158203125 457.020507812 c 128,-1,16
 543.137695312 377.543945312 543.137695312 377.543945312 431.943359375 377.543945312 c 128,-1,17
 320.738620753 377.543945312 320.738620753 377.543945312 241.728515625 457.020507812 c 128,-1,10
 162.6328125 536.57421875 162.6328125 536.57421875 162.6328125 648.606445312 c 128,-1,11
EndSplineSet
EndChar

StartChar: afii57393
Encoding: 1633 1633 57
Width: 817
VWidth: 2299
GlyphClass: 2
Flags: W
LayerCount: 2
Fore
SplineSet
295.435546875 1482.98339844 m 5,0,1
 503.289859096 1082.51485554 503.289859096 1082.51485554 547.559570312 566.959960938 c 4,2,3
 587 106 587 106 445.470703125 18.8505859375 c 1,4,5
 434 714 434 714 216.423828125 1254.39941406 c 4,6,7
 148.03730626 1423.90752982 148.03730626 1423.90752982 280.124023438 1476.84667969 c 6,8,-1
 295.435546875 1482.98339844 l 5,0,1
EndSplineSet
EndChar

StartChar: afii57394
Encoding: 1634 1634 58
Width: 1122
VWidth: 2299
GlyphClass: 2
Flags: W
LayerCount: 2
Fore
SplineSet
205.795898438 1482.98339844 m 5,0,1
 258 1360 258 1360 286.711914062 1303.35546875 c 4,2,3
 373 1136 373 1136 542.759765625 1113.09277344 c 4,4,5
 747 1085 747 1085 819.846679688 1256.03222656 c 4,6,7
 837 1296 837 1296 848.879882812 1347.79980469 c 4,8,9
 880.028428623 1482.12259359 880.028428623 1482.12259359 1001.47070312 1452.60644531 c 6,10,-1
 1023.76660156 1447.1875 l 5,11,12
 1022 1387 1022 1387 1004.23242188 1303.63769531 c 4,13,14
 931 955 931 955 612.360351562 939.559570312 c 4,15,16
 498 934 498 934 405 964.400390625 c 5,17,18
 446 741 446 741 457.919921875 606.959960938 c 0,19,20
 503 108 503 108 355.830078125 18.8505859375 c 1,21,22
 345 710 345 710 126.784179688 1254.39941406 c 4,23,24
 58.948690893 1424.12837884 58.948690893 1424.12837884 190.484375 1476.84667969 c 6,25,-1
 205.795898438 1482.98339844 l 5,0,1
EndSplineSet
EndChar

StartChar: afii57395
Encoding: 1635 1635 59
Width: 1304
VWidth: 2299
GlyphClass: 2
Flags: W
LayerCount: 2
Fore
SplineSet
206.680664062 1484.84863281 m 5,0,1
 271 1346 271 1346 280.5234375 1322.07421875 c 4,2,3
 381 1073 381 1073 576.618164062 1136.55273438 c 4,4,5
 615 1149 615 1149 635.833007812 1177.64160156 c 4,6,7
 687 1246 687 1246 688.479492188 1418.50976562 c 5,8,-1
 800.010742188 1440.33105469 l 5,9,10
 802 1258 802 1258 818.1171875 1219.40527344 c 4,11,12
 858 1124 858 1124 943.842773438 1125.36328125 c 4,13,14
 1071 1127 1071 1127 1080.28710938 1335.1640625 c 4,15,16
 1085 1438 1085 1438 1138.76464844 1462.06933594 c 4,17,18
 1158 1471 1158 1471 1203.69042969 1463.35058594 c 5,19,20
 1217 1175 1217 1175 1136.61230469 1061.90039062 c 4,21,22
 1071 970 1071 970 947.990234375 973.045898438 c 132,-1,23
 824.807108746 976.004633054 824.807108746 976.004633054 758.998046875 1076.94824219 c 6,24,-1
 749.458984375 1091.58007812 l 5,25,-1
 740.630859375 1076.5078125 l 6,26,27
 685 982 685 982 564.41796875 971.776367188 c 4,28,29
 493 966 493 966 396.126953125 1000.0625 c 5,30,31
 441 778 441 778 457.919921875 560.48046875 c 28,32,33
 495 86 495 86 359.637695312 18.41796875 c 1,34,35
 347 754 347 754 127.987304688 1252.265625 c 4,36,37
 55 1418 55 1418 206.680664062 1484.84863281 c 5,0,1
EndSplineSet
EndChar

StartChar: afii57396
Encoding: 1636 1636 60
Width: 972
VWidth: 2626
GlyphClass: 2
Flags: W
LayerCount: 2
Fore
SplineSet
411.409179688 731.01171875 m 5,0,1
 165 854 165 854 107.203125 934.69140625 c 5,2,3
 163 1280 163 1280 613.36328125 1461.55371094 c 5,4,5
 642 1417 642 1417 647.40625 1280.36914062 c 5,6,7
 270 1088 270 1088 228.551757812 984.388671875 c 5,8,9
 411 894 411 894 718.150390625 842.391601562 c 5,10,11
 712 773 712 773 707.278320312 708.431640625 c 5,12,13
 287 462 287 462 221.903320312 335.17578125 c 1,14,15
 448 226 448 226 846.296875 271.969726562 c 1,16,-1
 878.603515625 55.0986328125 l 1,17,18
 370 18 370 18 93.431640625 234.61328125 c 1,19,20
 114 489 114 489 411.409179688 731.01171875 c 5,0,1
EndSplineSet
EndChar

StartChar: afii57397
Encoding: 1637 1637 61
Width: 1288
VWidth: 2452
GlyphClass: 2
Flags: W
LayerCount: 2
Fore
SplineSet
266.687826066 601.591890176 m 0,0,1
 239.58134006 488.301303036 239.58134006 488.301303036 291.469048722 407.278951441 c 0,2,3
 369.668615063 285.170788987 369.668615063 285.170788987 578.728059943 262.891915984 c 0,4,5
 646.270188983 255.694142565 646.270188983 255.694142565 710.183864932 264.221404403 c 128,-1,6
 774.129301 272.752903626 774.129301 272.752903626 834.175818141 297.019512056 c 0,7,8
 849.282492336 303.124574678 849.282492336 303.124574678 863.089618531 309.9520845 c 128,-1,9
 876.896744726 316.779594323 876.896744726 316.779594323 889.404818305 324.333759299 c 0,10,11
 914.479612689 339.477508839 914.479612689 339.477508839 934.336576677 357.574271333 c 128,-1,12
 954.262555472 375.733930881 954.262555472 375.733930881 968.747482247 396.948344307 c 128,-1,13
 983.253345304 418.193420707 983.253345304 418.193420707 992.100213601 442.296330074 c 0,14,15
 1026.92221159 537.167354862 1026.92221159 537.167354862 974.990790021 663.529037153 c 0,16,17
 902.250227844 843.775243595 902.250227844 843.775243595 626.331537745 1078.42518526 c 2,18,-1
 596.471728649 1103.81890709 l 1,19,-1
 570.478200991 1074.47975531 l 2,20,21
 440.805595914 928.1170033 440.805595914 928.1170033 365.017837418 810.460220389 c 0,22,23
 288.984305419 692.421886153 288.984305419 692.421886153 266.687826066 601.591890176 c 0,0,1
529.453217324 1204.71675512 m 1,24,-1
 494.349337164 1236.2537074 l 1,25,26
 494.998466747 1250.15606414 494.998466747 1250.15606414 502.798876493 1276.56312345 c 128,-1,27
 510.599286239 1302.97018275 510.599286239 1302.97018275 525.660253757 1341.85188084 c 128,-1,28
 540.721221276 1380.73357893 540.721221276 1380.73357893 562.436136736 1430.26092693 c 1,29,30
 778.220794844 1227.66153872 778.220794844 1227.66153872 911.132610981 1051.93838199 c 128,-1,31
 1044.04442712 876.215225249 1044.04442712 876.215225249 1095.28834995 726.195978716 c 0,32,33
 1155.13780956 549.649295405 1155.13780956 549.649295405 1135.61400483 414.445496919 c 128,-1,34
 1116.0902001 279.241698434 1116.0902001 279.241698434 1017.44272736 183.658428433 c 0,35,36
 987.923959163 154.851173892 987.923959163 154.851173892 948.961562013 132.906697905 c 128,-1,37
 909.999164862 110.962221919 909.999164862 110.962221919 861.519524354 95.9041948246 c 0,38,39
 764.249553177 65.691638665 764.249553177 65.691638665 628.723980209 64.0069278635 c 0,40,41
 422.031837627 61.1523044489 422.031837627 61.1523044489 290.863998782 139.545033253 c 0,42,43
 161.804624437 216.677633909 161.804624437 216.677633909 131.804427676 371.860230646 c 0,44,45
 76.9168130815 657.824482558 76.9168130815 657.824482558 504.968914044 1175.12736487 c 2,46,-1
 529.453217324 1204.71675512 l 1,24,-1
EndSplineSet
EndChar

StartChar: afii57398
Encoding: 1638 1638 62
Width: 1258
VWidth: 2451
GlyphClass: 2
Flags: W
LayerCount: 2
Fore
SplineSet
967.237304688 1446.89941406 m 5,0,1
 970 1043 970 1043 1012.58984375 710.369140625 c 4,2,3
 1035 534 1035 534 1158.9140625 14.03125 c 1,4,5
 913 14 913 14 848.482421875 716.576171875 c 4,6,7
 813.535103442 1106.18285274 813.535103442 1106.18285274 811.869140625 1225.70507812 c 6,8,-1
 811.293945312 1266.97167969 l 5,9,-1
 771.673828125 1255.41699219 l 6,10,11
 667 1225 667 1225 502.434570312 1225.36035156 c 4,12,13
 377 1226 377 1226 257.700195312 1242.53515625 c 4,14,15
 176 1254 176 1254 136.928710938 1293.54296875 c 4,16,17
 97.7333984375 1332.26337128 97.7333984375 1332.26337128 97.7333984375 1402.48046875 c 6,18,-1
 97.7333984375 1445.58300781 l 5,19,20
 301 1394 301 1394 488.9296875 1393.78613281 c 4,21,22
 729 1394 729 1394 967.237304688 1446.89941406 c 5,0,1
EndSplineSet
EndChar

StartChar: afii57399
Encoding: 1639 1639 63
Width: 1223
VWidth: 2451
GlyphClass: 2
Flags: W
LayerCount: 2
Fore
SplineSet
530.65625 11.7177734375 m 1,0,1
 514.299486826 182.305794858 514.299486826 182.305794858 389.951171875 638.3828125 c 4,2,3
 269 1082 269 1082 75.9267578125 1417.21679688 c 5,4,5
 168 1464 168 1464 217.967773438 1445.80175781 c 4,6,7
 268 1428 268 1428 298.54296875 1360.6328125 c 4,8,9
 434 1061 434 1061 506.359375 807.592773438 c 4,10,11
 580.461788183 544.816315632 580.461788183 544.816315632 580.92578125 542.263671875 c 6,12,-1
 611.825195312 372.271484375 l 5,13,-1
 642.724609375 542.263671875 l 6,14,15
 644 551 644 551 717.061523438 806.787109375 c 4,16,17
 789 1059 789 1059 923.645507812 1357.39941406 c 4,18,19
 986.946206011 1498.87976764 986.946206011 1498.87976764 1130.09863281 1426.09570312 c 6,20,-1
 1147.51757812 1417.23925781 l 5,21,22
 957 1089 957 1089 844.98046875 679.5703125 c 4,23,24
 723 234 723 234 694.328125 11.7177734375 c 1,25,-1
 530.65625 11.7177734375 l 1,0,1
EndSplineSet
EndChar

StartChar: afii57400
Encoding: 1640 1640 64
Width: 1251
VWidth: 2451
GlyphClass: 2
Flags: W
LayerCount: 2
Fore
SplineSet
544.719726562 1465.68261719 m 5,0,-1
 708.366210938 1465.68261719 l 5,1,2
 743 1209 743 1209 846.712890625 842.731445312 c 0,3,4
 989 345 989 345 1175.37890625 42.88671875 c 1,5,-1
 1159.29980469 36.869140625 l 2,6,7
 1003 -22 1003 -22 954.397460938 83.3642578125 c 0,8,9
 809 400 809 400 733.744628906 661.36328125 c 0,10,11
 658.921860284 923.273520911 658.921860284 923.273520911 636.491210938 1046.66992188 c 2,12,-1
 625.865234375 1105.12597656 l 1,13,-1
 615.239257812 1046.66992188 l 2,14,15
 593 926 593 926 517.833144513 660.829336223 c 0,16,17
 445 406 445 406 296.336914062 81.2080078125 c 0,18,19
 249.107284438 -21.7660892486 249.107284438 -21.7660892486 93.3408203125 36.4755859375 c 2,20,-1
 75.857421875 43.0126953125 l 1,21,22
 216 284 216 284 404.65625 841.525390625 c 0,23,24
 521 1186 521 1186 544.719726562 1465.68261719 c 5,0,-1
EndSplineSet
EndChar

StartChar: afii57401
Encoding: 1641 1641 65
Width: 1233
VWidth: 2451
GlyphClass: 2
Flags: W
LayerCount: 2
Fore
SplineSet
830 680 m 5,0,1
 329 641 329 641 183.599609375 810.200195312 c 0,2,3
 98 910 98 910 98.2802734375 1034.29980469 c 0,4,5
 98 1225 98 1225 209.743164062 1347.38867188 c 0,6,7
 321 1470 321 1470 520.243164062 1469.82519531 c 0,8,9
 707 1470 707 1470 825.120117188 1356.6796875 c 0,10,11
 939 1247 939 1247 954.122070312 1044.19238281 c 0,12,13
 972 812 972 812 1001.70019531 605.540039062 c 0,14,15
 1009 555 1009 555 1134.77734375 12.126953125 c 1,16,-1
 1125.61914062 12.126953125 l 2,17,18
 974.682180684 12.0105516016 974.682180684 12.0105516016 908.309570312 280.228515625 c 0,19,20
 871 431 871 431 830 680 c 5,0,1
809.860351562 838.8359375 m 1,21,-1
 801.596679688 960.31640625 l 2,22,23
 790 1131 790 1131 749.069335938 1189.58300781 c 0,24,25
 664 1312 664 1312 531.604492188 1312.671875 c 0,26,27
 406 1313 406 1313 331.010742188 1240.56152344 c 128,-1,28
 256 1168 256 1168 250.123046875 1057.31738281 c 0,29,30
 244 944 244 944 345.08984375 881.708984375 c 24,31,32
 475 802 475 802 809.860351562 838.8359375 c 1,21,-1
EndSplineSet
EndChar

StartChar: afii57381
Encoding: 1642 1642 66
Width: 1517
VWidth: 3432
GlyphClass: 2
Flags: W
LayerCount: 2
Fore
SplineSet
928.860351562 389.670898438 m 0,0,1
 928.860351562 395.845361155 928.860351562 395.845361155 929.289682253 401.835808597 c 128,-1,2
 929.719012944 407.826256039 929.719012944 407.826256039 930.57848379 413.637391257 c 128,-1,3
 931.437954636 419.448526475 931.437954636 419.448526475 932.727129858 425.078388055 c 128,-1,4
 934.01630508 430.708249635 934.01630508 430.708249635 935.736863634 436.16187697 c 128,-1,5
 937.457422189 441.615504306 937.457422189 441.615504306 939.608000838 446.890577216 c 128,-1,6
 941.758579487 452.165650125 941.758579487 452.165650125 944.341784648 457.267566771 c 128,-1,7
 946.924989808 462.369483418 946.924989808 462.369483418 949.938530781 467.29556485 c 128,-1,8
 952.952071754 472.221646283 952.952071754 472.221646283 956.399482417 476.977649433 c 128,-1,9
 959.846893079 481.733652582 959.846893079 481.733652582 963.724955273 486.316539731 c 128,-1,10
 967.603017467 490.89942688 967.603017467 490.89942688 971.916134562 495.315291303 c 0,11,12
 1017.05797376 539.430664062 1017.05797376 539.430664062 1078.62011719 539.430664062 c 0,13,14
 1092.34109593 539.430664062 1092.34109593 539.430664062 1105.19370237 537.159971021 c 128,-1,15
 1118.04630881 534.889277981 1118.04630881 534.889277981 1130.08845276 530.339503736 c 128,-1,16
 1142.13059671 525.789729492 1142.13059671 525.789729492 1153.43655449 518.937471269 c 0,17,18
 1188.36619646 498.390456025 1188.36619646 498.390456025 1207.87556815 464.507301228 c 0,19,20
 1228.37988281 430.673481841 1228.37988281 430.673481841 1228.37988281 389.670898438 c 0,21,22
 1228.37988281 328.107808965 1228.37988281 328.107808965 1184.26451006 282.966914946 c 0,23,24
 1177.95589181 276.804952164 1177.95589181 276.804952164 1171.30525581 271.530288074 c 128,-1,25
 1164.65461982 266.255623984 1164.65461982 266.255623984 1157.64992599 261.859817762 c 128,-1,26
 1150.64523215 257.46401154 1150.64523215 257.46401154 1143.28789068 253.952004318 c 128,-1,27
 1135.9305492 250.439997096 1135.9305492 250.439997096 1128.21328353 247.806031179 c 128,-1,28
 1120.49601785 245.172065262 1120.49601785 245.172065262 1112.41515706 243.418219779 c 128,-1,29
 1104.33429627 241.664374295 1104.33429627 241.664374295 1095.88764491 240.787753554 c 128,-1,30
 1087.44099356 239.911132812 1087.44099356 239.911132812 1078.62011719 239.911132812 c 0,31,32
 1037.52296736 239.911132812 1037.52296736 239.911132812 1002.66806309 259.38851232 c 0,33,34
 967.814467603 279.890793975 967.814467603 279.890793975 948.349079122 313.697560363 c 0,35,36
 928.860351562 348.572772048 928.860351562 348.572772048 928.860351562 389.670898438 c 0,0,1
296.024414062 1246.92871094 m 0,37,38
 296.024414062 1308.49164342 296.024414062 1308.49164342 339.080197062 1352.5731038 c 0,39,40
 384.222036266 1396.68847656 384.222036266 1396.68847656 445.784179688 1396.68847656 c 0,41,42
 466.356428179 1396.68847656 466.356428179 1396.68847656 485.001196278 1391.5797756 c 128,-1,43
 503.645964378 1386.47107465 503.645964378 1386.47107465 520.600616986 1376.19528377 c 0,44,45
 555.530258959 1355.64826853 555.530258959 1355.64826853 575.039630648 1321.76511373 c 0,46,47
 581.903912487 1310.43847952 581.903912487 1310.43847952 586.455741715 1298.39370399 c 128,-1,48
 591.007570942 1286.34892846 591.007570942 1286.34892846 593.275758127 1273.50330235 c 128,-1,49
 595.543945312 1260.65767625 595.543945312 1260.65767625 595.543945312 1246.92871094 c 0,50,51
 595.543945312 1226.36021297 595.543945312 1226.36021297 590.655282132 1207.68493678 c 128,-1,52
 585.766618952 1189.00966059 585.766618952 1189.00966059 575.968208324 1172.1591464 c 128,-1,53
 566.169797695 1155.30863222 566.169797695 1155.30863222 551.428572558 1140.22472744 c 0,54,55
 507.348057519 1097.16894531 507.348057519 1097.16894531 445.784179688 1097.16894531 c 0,56,57
 425.222555018 1097.16894531 425.222555018 1097.16894531 406.229877546 1102.04454265 c 128,-1,58
 387.237200074 1106.92013999 387.237200074 1106.92013999 369.832125593 1116.64632482 c 0,59,60
 361.127247415 1121.76688302 361.127247415 1121.76688302 353.369695045 1127.73197435 c 128,-1,61
 345.612142675 1133.69706567 345.612142675 1133.69706567 338.819851087 1140.49019612 c 128,-1,62
 332.027559499 1147.28332657 332.027559499 1147.28332657 326.198315662 1154.90254977 c 128,-1,63
 320.369071826 1162.52177298 320.369071826 1162.52177298 315.513141622 1170.95537286 c 0,64,65
 305.771066008 1188.38888402 305.771066008 1188.38888402 300.897740035 1207.37157627 c 128,-1,66
 296.024414062 1226.35426853 296.024414062 1226.35426853 296.024414062 1246.92871094 c 0,37,38
1039.05904661 1538.78627278 m 1,67,-1
 1174.55647793 1468.97808775 l 1,68,-1
 432.384006813 32.4372641869 l 1,69,-1
 297.321679311 106.660761879 l 1,70,-1
 1039.05904661 1538.78627278 l 1,67,-1
EndSplineSet
EndChar

StartChar: uni066B
Encoding: 1643 1643 67
Width: 938
VWidth: 3435
GlyphClass: 2
Flags: W
LayerCount: 2
Fore
SplineSet
638.796875 639.668945312 m 1,0,-1
 758.693359375 565.4609375 l 1,1,-1
 185.013671875 -390.555664062 l 1,2,-1
 63.0546875 -309.609375 l 1,3,-1
 638.796875 639.668945312 l 1,0,-1
EndSplineSet
EndChar

StartChar: uni066C
Encoding: 1644 1644 68
Width: 539
VWidth: 3387
GlyphClass: 2
Flags: W
LayerCount: 2
Fore
SplineSet
254.902979427 297.616029867 m 0,0,1
 261.874011014 297.677647707 261.874011014 297.677647707 268.465918438 297.325717344 c 0,2,3
 409.366163792 289.803300648 409.366163792 289.803300648 398.074342356 89.2855053963 c 0,4,5
 383.355841257 -171.637508309 383.355841257 -171.637508309 124.35460321 -325.986188385 c 0,6,7
 79.0023426507 -353.038713392 79.0023426507 -353.038713392 59.160987689 -329.024937288 c 0,8,9
 52.8173246584 -318.897878593 52.8173246584 -318.897878593 70.6313450323 -305.564290923 c 0,10,11
 150.48550924 -247.392109035 150.48550924 -247.392109035 205.099351938 -161.001846363 c 0,12,13
 260.108416846 -73.9864061008 260.108416846 -73.9864061008 253.451524221 -0.0720120792025 c 2,14,-1
 253.10097362 3.82030476469 l 1,15,-1
 222.703057887 8.54262864321 l 1,16,-1
 222.485101947 8.55720905307 l 2,17,18
 157.113562721 12.9303123382 157.113562721 12.9303123382 125.220292183 60.033304844 c 0,19,20
 93.1257972843 107.433484482 93.1257972843 107.433484482 105.963354765 172.607428847 c 128,-1,21
 118.803119667 237.792579894 118.803119667 237.792579894 163.48862015 267.746689701 c 0,22,23
 208.613508961 297.995335457 208.613508961 297.995335457 254.902979427 297.616029867 c 0,0,1
EndSplineSet
EndChar

StartChar: afii63167
Encoding: 1645 1645 69
Width: 1289
VWidth: 2360
GlyphClass: 2
Flags: W
LayerCount: 2
Fore
SplineSet
143.533203125 858.200195312 m 1,0,-1
 525.563476562 858.200195312 l 1,1,-1
 644.826171875 1221.30761719 l 1,2,-1
 764.0859375 858.200195312 l 1,3,-1
 1146.1171875 858.200195312 l 1,4,-1
 837.489257812 632.583007812 l 1,5,-1
 955.581054688 269.793945312 l 1,6,-1
 644.826171875 494.34765625 l 1,7,-1
 334.068359375 269.793945312 l 1,8,-1
 452.16015625 632.583007812 l 1,9,-1
 143.533203125 858.200195312 l 1,0,-1
EndSplineSet
EndChar

StartChar: uni066E
Encoding: 1646 1646 70
Width: 1764
VWidth: 2471
GlyphClass: 2
Flags: W
AnchorPoint: "Anchor-10" 804.34 1180.13 basechar 0
AnchorPoint: "Anchor-7" 541.037 -262.897 basechar 0
LayerCount: 2
Fore
SplineSet
1465.91796875 97.853515625 m 28,0,1
 1232.79980469 -44.2802734375 1232.79980469 -44.2802734375 823.48046875 -43.2001953125 c 4,2,3
 462.759765625 -42.1201171875 462.759765625 -42.1201171875 283.48046875 73.4404296875 c 4,4,5
 100.959960938 191.16015625 100.959960938 191.16015625 103.120117188 455.759765625 c 4,6,7
 104.200195312 583.200195312 104.200195312 583.200195312 142 671.759765625 c 4,8,9
 163.599609375 721.440429688 163.599609375 721.440429688 193.83984375 717.66015625 c 132,-1,10
 224.080078125 713.879882812 224.080078125 713.879882812 208.225585938 643.064453125 c 4,11,12
 193.83984375 577.799804688 193.83984375 577.799804688 196 490.3203125 c 4,13,14
 202.48046875 225.719726562 202.48046875 225.719726562 577.240234375 170.639648438 c 4,15,16
 717.639648438 150.120117188 717.639648438 150.120117188 872.080078125 150.458984375 c 4,17,18
 1148.81152344 151.189453125 1148.81152344 151.189453125 1340.79980469 213.383789062 c 4,19,20
 1443.40039062 246.240234375 1443.40039062 246.240234375 1503.15625 293.32421875 c 4,21,22
 1585.93066406 356.631835938 1585.93066406 356.631835938 1553.796875 438.475585938 c 4,23,24
 1497.40039062 582.120117188 1497.40039062 582.120117188 1487.10742188 612.040039062 c 4,25,26
 1433.54589844 772.6015625 1433.54589844 772.6015625 1569.44628906 837.56640625 c 6,27,-1
 1586.03613281 845.49609375 l 5,28,29
 1656.16015625 637.200195312 1656.16015625 637.200195312 1664.97265625 459.475585938 c 4,30,31
 1675.59960938 224.639648438 1675.59960938 224.639648438 1465.91796875 97.853515625 c 28,0,1
EndSplineSet
Substitution2: "'init' Initial Forms in Arabic lookup 13 subtable" uni066E.init
Substitution2: "'medi' Medial Forms in Arabic lookup 11 subtable" uni066E.medi
Substitution2: "'fina' Terminal Forms in Arabic lookup 9 subtable" uni066E.fina
EndChar

StartChar: uni066F
Encoding: 1647 1647 71
Width: 1409
VWidth: 2491
GlyphClass: 2
Flags: W
AnchorPoint: "Anchor-10" 354.999 1265.61 basechar 0
AnchorPoint: "Anchor-7" 496.955 -621.591 basechar 0
LayerCount: 2
Fore
SplineSet
834.138671875 404.26953125 m 0,0,1
 804.59375 263.086914062 804.59375 263.086914062 1014.59375 268.086914062 c 0,2,3
 1098.59375 270.086914062 1098.59375 270.086914062 1200.13769531 294.112304688 c 1,4,5
 1188.59375 390.086914062 1188.59375 390.086914062 1139.58007812 484.140625 c 0,6,7
 1086.59375 585.086914062 1086.59375 585.086914062 1010.9140625 585.59375 c 0,8,9
 871.59375 586.086914062 871.59375 586.086914062 834.138671875 404.26953125 c 0,0,1
1310.3515625 124.064453125 m 28,10,11
 1306 14 1306 14 1292.25683594 -37.7998046875 c 4,12,13
 1190 -453 1190 -453 659.930664062 -463.7109375 c 4,14,15
 345 -470 345 -470 187.1328125 -264.81640625 c 4,16,17
 56 -94 56 -94 114.48046875 196.559570312 c 4,18,19
 135 299 135 299 190.567382812 419.075195312 c 4,20,21
 219 481 219 481 255.419921875 470.33984375 c 4,22,23
 292 460 292 460 265.825195312 389.879882812 c 4,24,25
 180 154 180 154 235.631835938 -27.3291015625 c 4,26,27
 313 -282 313 -282 665.359375 -280.587890625 c 4,28,29
 1168 -279 1168 -279 1195.05664062 66.994140625 c 4,30,31
 1197 92 1197 92 1197.79296875 117.440429688 c 5,32,33
 1086 86 1086 86 996.59375 86.4560546875 c 0,34,35
 818 87 818 87 748.654296875 186.858398438 c 0,36,37
 711 241 711 241 708.797851562 340.086914062 c 0,38,39
 707 415 707 415 766.478515625 559.086914062 c 0,40,41
 852 767 852 767 1016.546875 770.423828125 c 0,42,43
 1183 773 1183 773 1260.22070312 576.637695312 c 0,44,45
 1317 434 1317 434 1315.24902344 253.52734375 c 0,46,47
 1315 227 1315 227 1310.3515625 124.064453125 c 28,10,11
EndSplineSet
Substitution2: "'init' Initial Forms in Arabic lookup 13 subtable" uni066F.init
Substitution2: "'medi' Medial Forms in Arabic lookup 11 subtable" uni066F.medi
Substitution2: "'fina' Terminal Forms in Arabic lookup 9 subtable" uni066F.fina
EndChar

StartChar: uni0670
Encoding: 1648 1648 72
Width: 0
VWidth: 2655
GlyphClass: 4
Flags: W
AnchorPoint: "Anchor-10" 675.06 1564.84 mark 0
AnchorPoint: "Anchor-9" 675.06 1564.84 mark 0
AnchorPoint: "Anchor-1" 664.561 2244.49 basemark 0
AnchorPoint: "Anchor-1" 675.06 1564.84 mark 0
LayerCount: 2
Fore
SplineSet
655.760742188 1614.21386719 m 1,0,-1
 606.6328125 2121.61425781 l 5,1,-1
 722.418945312 2189.80078125 l 5,2,-1
 722.418945312 1614.21386719 l 1,3,-1
 655.760742188 1614.21386719 l 1,0,-1
EndSplineSet
EndChar

StartChar: uni0674
Encoding: 1652 1652 73
Width: 690
VWidth: 2360
GlyphClass: 2
Flags: W
LayerCount: 2
Fore
SplineSet
232.438934885 1669.73930398 m 1,0,1
 142 1727 142 1727 142 1827.5 c 128,-1,2
 142 1928 142 1928 207.84308629 1984.97886803 c 128,-1,3
 273.686172581 2041.95773607 273.686172581 2041.95773607 381.912986288 2042.06583527 c 0,4,5
 447.825972575 2042.13167053 447.825972575 2042.13167053 514.046875 2003.12831015 c 1,6,-1
 514.046875 1887.11434193 l 1,7,8
 426.218425663 1931.024267 426.218425663 1931.024267 367.609212832 1924.5121335 c 0,9,10
 259.306597044 1912.47851185 259.306597044 1912.47851185 252.63642297 1832.841186 c 0,11,12
 245.387134644 1753.41691469 245.387134644 1753.41691469 360.923692855 1717.87216059 c 0,13,14
 395.742544794 1707.07980014 395.742544794 1707.07980014 538.314453125 1740.05023572 c 1,15,-1
 534.41015625 1619.42871094 l 1,16,-1
 140.0234375 1530.88593699 l 1,17,-1
 140.0234375 1648.41323107 l 1,18,-1
 232.438934885 1669.73930398 l 1,0,1
EndSplineSet
EndChar

StartChar: uni06A1
Encoding: 1697 1697 77
Width: 1738
VWidth: 2491
GlyphClass: 2
Flags: W
AnchorPoint: "Anchor-10" 525.175 1372.5 basechar 0
AnchorPoint: "Anchor-7" 647.668 -205.226 basechar 0
LayerCount: 2
Fore
SplineSet
1151.33984375 684.232421875 m 4,0,1
 1122 543 1122 543 1331.79492188 548.049804688 c 0,2,3
 1416 550 1416 550 1517.33886719 574.075195312 c 1,4,5
 1507 667 1507 667 1456.78125 764.103515625 c 4,6,7
 1404 865 1404 865 1328.11523438 865.556640625 c 4,8,9
 1189 866 1189 866 1151.33984375 684.232421875 c 4,0,1
1627.55273438 444.02734375 m 0,10,11
 1609 192 1609 192 1454.55761719 89.173828125 c 24,12,13
 1255 -44 1255 -44 847.799804688 -43.2001953125 c 0,14,15
 482 -42 482 -42 302.400390625 73.4404296875 c 0,16,17
 120 191 120 191 122.040039062 455.759765625 c 0,18,19
 123 587 123 587 160.919921875 671.759765625 c 0,20,21
 183 721 183 721 212.759765625 717.66015625 c 0,22,23
 243 714 243 714 227.145507812 643.064453125 c 0,24,25
 213 578 213 578 214.919921875 490.3203125 c 0,26,27
 221 231 221 231 596.16015625 170.639648438 c 0,28,29
 725 150 725 150 891 150.458984375 c 0,30,31
 1185 151 1185 151 1310 198 c 24,32,33
 1465 257 1465 257 1514.99414062 397.403320312 c 1,34,35
 1403 366 1403 366 1313.79492188 366.418945312 c 0,36,37
 1135 367 1135 367 1065.85546875 466.821289062 c 0,38,39
 1030 519 1030 519 1027.99902344 608.049804688 c 0,40,41
 1025 698 1025 698 1083.6796875 839.049804688 c 4,42,43
 1169 1047 1169 1047 1333.74804688 1050.38671875 c 4,44,45
 1500 1053 1500 1053 1577.421875 856.600585938 c 4,46,47
 1628 726 1628 726 1632.45019531 533.490234375 c 0,48,49
 1633 507 1633 507 1627.55273438 444.02734375 c 0,10,11
EndSplineSet
Substitution2: "'init' Initial Forms in Arabic lookup 13 subtable" uni06A1.init
Substitution2: "'medi' Medial Forms in Arabic lookup 11 subtable" uni06A1.medi
Substitution2: "'fina' Terminal Forms in Arabic lookup 9 subtable" uni06A1.fina
EndChar

StartChar: uni06A9
Encoding: 1705 1705 78
Width: 2021
VWidth: 2471
GlyphClass: 2
Flags: W
AnchorPoint: "Anchor-10" 290.272 1329.39 basechar 0
AnchorPoint: "Anchor-7" 423.068 -316.854 basechar 0
LayerCount: 2
Fore
SplineSet
1343.80078125 208.71875 m 4,0,1
 1544 266 1544 266 1530.36035156 340.740234375 c 4,2,3
 1523 382 1523 382 1479.59960938 442.462890625 c 4,4,5
 1128 932 1128 932 1111.62988281 994.095703125 c 0,6,7
 1065 1168 1065 1168 1243.171875 1235.56054688 c 2,8,-1
 1977.66503906 1514.24804688 l 1,9,-1
 1977.66503906 1490.09863281 l 2,10,11
 1977.66503906 1304.89374278 1977.66503906 1304.89374278 1739.87988281 1229.46289062 c 2,12,-1
 1259.28027344 1076.42285156 l 1,13,14
 1339 919 1339 919 1595.88183594 523.799804688 c 4,15,16
 1769 258 1769 258 1494.55761719 102.173828125 c 12,17,18
 1246 -39 1246 -39 842.400390625 -43.2001953125 c 4,19,20
 488 -46 488 -46 302.400390625 73.4404296875 c 4,21,22
 120 191 120 191 122.040039062 455.759765625 c 4,23,24
 123 583 123 583 160.919921875 671.759765625 c 4,25,26
 183 721 183 721 212.759765625 717.66015625 c 4,27,28
 243 714 243 714 227.145507812 643.064453125 c 4,29,30
 213 578 213 578 214.919921875 490.3203125 c 4,31,32
 221 228 221 228 596.16015625 170.639648438 c 4,33,34
 733 150 733 150 891 150.458984375 c 4,35,36
 1141 151 1141 151 1343.80078125 208.71875 c 4,0,1
EndSplineSet
Substitution2: "'init' Initial Forms in Arabic lookup 13 subtable" uniFB90
Substitution2: "'medi' Medial Forms in Arabic lookup 11 subtable" uniFB91
Substitution2: "'fina' Terminal Forms in Arabic lookup 9 subtable" uniFB8F
EndChar

StartChar: afii57514
Encoding: 1722 1722 80
Width: 1369
VWidth: 2501
GlyphClass: 2
Flags: W
AnchorPoint: "Anchor-10" 634.998 1076.75 basechar 0
AnchorPoint: "Anchor-7" 330.305 -818.087 basechar 0
LayerCount: 2
Fore
SplineSet
1261.28417969 252.587890625 m 4,0,1
 1292 46 1292 46 1252.25683594 -119.879882812 c 0,2,3
 1150 -539 1150 -539 664.930664062 -545.791015625 c 0,4,5
 342 -550 342 -550 187.1328125 -346.896484375 c 0,6,7
 56 -176 56 -176 114.48046875 114.48046875 c 0,8,9
 135 217 135 217 190.567382812 336.994140625 c 0,10,11
 219 399 219 399 255.419921875 388.259765625 c 0,12,13
 292 378 292 378 265.825195312 307.799804688 c 0,14,15
 180 72 180 72 235.631835938 -109.409179688 c 0,16,17
 313 -364 313 -364 665.360351562 -362.66796875 c 0,18,19
 1124 -361 1124 -361 1155.05664062 -15.0859375 c 0,20,21
 1164 88 1164 88 1102.65332031 237.984375 c 4,22,23
 991.165653018 512.591976592 991.165653018 512.591976592 1145.50878906 552.739257812 c 6,24,-1
 1180.71679688 561.897460938 l 5,25,26
 1245 355 1245 355 1261.28417969 252.587890625 c 4,0,1
EndSplineSet
Substitution2: "'init' Initial Forms in Arabic lookup 13 subtable" uni06BA.init
Substitution2: "'medi' Medial Forms in Arabic lookup 11 subtable" uni06BA.medi
Substitution2: "'fina' Terminal Forms in Arabic lookup 9 subtable" uniFB9F
EndChar

StartChar: uni06F4
Encoding: 1780 1780 87
Width: 1155
VWidth: 2451
GlyphClass: 2
Flags: W
LayerCount: 2
Fore
SplineSet
320.197265625 1161.49121094 m 2,0,-1
 339.02734375 1103.1171875 l 1,1,-1
 359.26171875 1161.01660156 l 2,2,3
 469 1476 469 1476 738 1476.63085938 c 0,4,5
 930.225829897 1477.00043418 930.225829897 1477.00043418 968.041992188 1334 c 4,6,7
 978 1295 978 1295 942 1301.74609375 c 0,8,9
 672 1355 672 1355 562.745117188 1244.36035156 c 0,10,11
 437 1117 437 1117 515.8046875 987.600585938 c 0,12,13
 566 906 566 906 767.912109375 904.505859375 c 0,14,15
 849 904 849 904 944.416015625 917.934570312 c 0,16,17
 1046 933 1046 933 1018 881 c 2,18,-1
 958 767 l 1,19,20
 883 749 883 749 744.25 748.502929688 c 0,21,22
 541 747 541 747 399.263671875 863.819335938 c 1,23,24
 437 713 437 713 453.599609375 519.6796875 c 0,25,26
 492 68 492 68 351.68359375 17.732421875 c 1,27,28
 340 702 340 702 123.165039062 1226.29101562 c 0,29,30
 72.1220135066 1349.70499061 72.1220135066 1349.70499061 205.044921875 1437.21582031 c 2,31,-1
 221.6953125 1448.17773438 l 1,32,33
 294 1242 294 1242 320.197265625 1161.49121094 c 2,0,-1
EndSplineSet
EndChar

StartChar: uni06F5
Encoding: 1781 1781 88
Width: 1232
VWidth: 2300
GlyphClass: 2
Flags: W
LayerCount: 2
Fore
SplineSet
658.831054688 401.984375 m 0,0,1
 725 187 725 187 876.66015625 186.83984375 c 0,2,3
 979.394046798 186.958778933 979.394046798 186.958778933 979.142610743 321 c 0,4,5
 978 630 978 630 581.952148438 1151.78808594 c 1,6,7
 233 573 233 573 256.594919724 317 c 0,8,9
 267.10930437 192.781851588 267.10930437 192.781851588 380.883789062 187.603515625 c 0,10,11
 514 182 514 182 570.719726562 398.840820312 c 0,12,13
 583 446 583 446 613.120117188 445.559570312 c 0,14,15
 645 446 645 446 658.831054688 401.984375 c 0,0,1
375.548828125 10.6806640625 m 0,16,17
 101 11 101 11 104.1796875 315 c 4,18,19
 109 720 109 720 470.079101562 1248.37207031 c 1,20,-1
 446.391601562 1268.93945312 l 2,21,22
 409 1301 409 1301 491.625 1475.72851562 c 1,23,24
 1133 856 1133 856 1127.33308056 329 c 0,25,26
 1124 7 1124 7 870.758789062 11.2236328125 c 0,27,28
 695 14 695 14 617.458007812 200.500976562 c 1,29,30
 547 11 547 11 375.548828125 10.6806640625 c 0,16,17
EndSplineSet
EndChar

StartChar: uni06F6
Encoding: 1782 1782 89
Width: 1079
VWidth: 2451
GlyphClass: 2
Flags: W
LayerCount: 2
Fore
SplineSet
98.6513671875 6.48046875 m 1,0,1
 147 179 147 179 280.090820312 389.879882812 c 0,2,3
 428 624 428 624 487.69140625 665.907226562 c 1,4,5
 191 745 191 745 193.931640625 1038.40039062 c 0,6,7
 196 1206 196 1206 280.331054688 1311.63964844 c 0,8,9
 399 1459 399 1459 598 1455.44937641 c 0,10,11
 810 1452 810 1452 868 1312.07998832 c 0,12,13
 902 1231 902 1231 836 1254.38721489 c 0,14,15
 728 1293 728 1293 644 1292.80295753 c 0,16,17
 532 1293 532 1293 452 1219 c 0,18,19
 366 1139 366 1139 365.418985161 1021 c 0,20,21
 364 815 364 815 665.891601562 782.547851562 c 1,22,23
 782 793 782 793 913.481445312 846.459960938 c 0,24,25
 972.154296875 870.062068424 972.154296875 870.062068424 972.154296875 830.989257812 c 2,26,-1
 972.154296875 695.735351562 l 1,27,28
 712 622 712 622 564.46484375 474.23046875 c 4,29,30
 436 346 436 346 367.64453125 250.302734375 c 4,31,32
 195.339538984 6.48046875 195.339538984 6.48046875 132.484375 6.48046875 c 2,33,-1
 98.6513671875 6.48046875 l 1,0,1
EndSplineSet
EndChar

StartChar: uniFB8F
Encoding: 64399 64399 104
Width: 2020
VWidth: 2471
GlyphClass: 2
Flags: W
AnchorPoint: "Anchor-10" 447.937 1296.93 basechar 0
AnchorPoint: "Anchor-7" 538.376 -290.334 basechar 0
LayerCount: 2
Fore
SplineSet
1595.88183594 523.799804688 m 28,0,1
 1811.16403783 192.747749411 1811.16403783 192.747749411 1993.8203125 193.232421875 c 2,2,-1
 2032.09570312 193.333984375 l 1,3,-1
 2032.09570312 0 l 1,4,-1
 1959.12011719 0 l 2,5,6
 1777 0 1777 0 1620.7265625 208 c 1,7,8
 1579 150 1579 150 1494.55761719 102.173828125 c 0,9,10
 1244 -40 1244 -40 842.400390625 -43.2001953125 c 0,11,12
 488 -46 488 -46 302.400390625 73.4404296875 c 0,13,14
 120 191 120 191 122.040039062 455.759765625 c 0,15,16
 123 587 123 587 160.919921875 671.759765625 c 0,17,18
 183 721 183 721 212.759765625 717.66015625 c 0,19,20
 243 714 243 714 227.145507812 643.064453125 c 0,21,22
 213 578 213 578 214.919921875 490.3203125 c 0,23,24
 221 228 221 228 596.16015625 170.639648438 c 0,25,26
 733 150 733 150 891 150.458984375 c 0,27,28
 1141 151 1141 151 1343.80078125 208.71875 c 0,29,30
 1544 266 1544 266 1530.36035156 340.740234375 c 0,31,32
 1523 382 1523 382 1479.59960938 442.462890625 c 0,33,34
 1128 932 1128 932 1111.62988281 994.095703125 c 0,35,36
 1065.01044237 1167.96105558 1065.01044237 1167.96105558 1243.171875 1235.56054688 c 2,37,-1
 1977.66503906 1514.24804688 l 1,38,-1
 1977.66503906 1490.09863281 l 2,39,40
 1977.99947764 1305.28865366 1977.99947764 1305.28865366 1739.87988281 1229.46289062 c 2,41,-1
 1259.28027344 1076.42285156 l 1,42,43
 1339 919 1339 919 1595.88183594 523.799804688 c 28,0,1
EndSplineSet
EndChar

StartChar: uniFB9F
Encoding: 64415 64415 112
Width: 1441
VWidth: 2501
GlyphClass: 2
Flags: W
AnchorPoint: "Anchor-10" 364.705 813.531 basechar 0
AnchorPoint: "Anchor-7" 256.66 -803.562 basechar 0
LayerCount: 2
Fore
SplineSet
1425.09375 0 m 6,0,1
 1313 0 1313 0 1269.77050781 68.0400390625 c 1,2,3
 1272 -40 1272 -40 1252.25683594 -119.879882812 c 0,4,5
 1148 -544 1148 -544 661.930664062 -545.791015625 c 0,6,7
 343 -547 343 -547 187.1328125 -346.896484375 c 0,8,9
 56 -178 56 -178 114.48046875 114.48046875 c 0,10,11
 135 217 135 217 190.567382812 336.994140625 c 0,12,13
 219 399 219 399 255.419921875 388.259765625 c 0,14,15
 292 378 292 378 265.825195312 307.799804688 c 0,16,17
 179 75 179 75 235.631835938 -109.409179688 c 0,18,19
 313 -364 313 -364 665.360351562 -362.66796875 c 0,20,21
 1124 -361 1124 -361 1155.05664062 -15.0859375 c 0,22,23
 1164 84 1164 84 1092.65332031 257.984375 c 0,24,25
 988.989429722 512.025903809 988.989429722 512.025903809 1145.50878906 552.739257812 c 2,26,-1
 1180.71679688 561.897460938 l 1,27,28
 1218 377 1218 377 1248.03222656 291.599609375 c 0,29,30
 1284 188 1284 188 1429.56738281 188 c 6,31,-1
 1446 188 l 6,32,33
 1521.05273438 188 1521.05273438 188 1521.05273438 98 c 6,34,-1
 1521.05273438 92 l 6,35,36
 1521 0 1521 0 1446 0 c 6,37,-1
 1425.09375 0 l 6,0,1
EndSplineSet
EndChar

StartChar: uniFBE8
Encoding: 64488 64488 115
Width: 584
VWidth: 2473
GlyphClass: 2
Flags: W
AnchorPoint: "Anchor-10" 242.869 1140.81 basechar 0
AnchorPoint: "Anchor-7" 248.422 -233.744 basechar 0
LayerCount: 2
Fore
SplineSet
18.8798828125 188 m 2,0,1
 382 188 382 188 344.639648438 366.439453125 c 4,2,3
 336 408 336 408 321.83984375 447.120117188 c 4,4,5
 287.423914517 541.995563689 287.423914517 541.995563689 278.37890625 574.717773438 c 4,6,7
 236 727 236 727 389.6328125 800.275390625 c 6,8,-1
 406.216796875 808.205078125 l 5,9,10
 474 605 474 605 485.15625 422.18359375 c 4,11,12
 497 227 497 227 402.73046875 117.666992188 c 4,13,14
 301.304916129 -2.86437540353e-14 301.304916129 -2.86437540353e-14 20.0927734375 0 c 2,15,-1
 -4.947265625 0 l 2,16,17
 -80 0 -80 0 -80 92 c 2,18,-1
 -80 98 l 2,19,20
 -80 188 -80 188 -4.947265625 188 c 2,21,-1
 18.8798828125 188 l 2,0,1
EndSplineSet
EndChar

StartChar: uniFBE9
Encoding: 64489 64489 116
Width: 717
VWidth: 2477
GlyphClass: 2
Flags: W
AnchorPoint: "Anchor-10" 341.202 1085.49 basechar 0
AnchorPoint: "Anchor-7" 320.596 -156.627 basechar 0
LayerCount: 2
Fore
SplineSet
722 0 m 6,0,-1
 701.09375 0 l 6,1,2
 475 0 475 0 395.959960938 164.803710938 c 1,3,4
 284 0 284 0 20.0927734375 0 c 2,5,-1
 -4.947265625 0 l 2,6,7
 -80 0 -80 0 -80 92 c 2,8,-1
 -80 98 l 2,9,10
 -80 188 -80 188 -4.947265625 188 c 2,11,-1
 18.8798828125 188 l 2,12,13
 165 188 165 188 242.600585938 218.803710938 c 0,14,15
 310.956132207 245.982557728 310.956132207 245.982557728 325.760742188 361.36328125 c 2,16,-1
 339.120117188 465.48046875 l 2,17,18
 352.029927165 563.226592362 352.029927165 563.226592362 463.28125 567.498046875 c 2,19,-1
 478.440429688 568.080078125 l 1,20,-1
 461.940429688 438.5390625 l 2,21,22
 430.362980293 188 430.362980293 188 705.567382812 188 c 6,23,-1
 722 188 l 6,24,25
 797.052734375 188 797.052734375 188 797.052734375 98 c 6,26,-1
 797.052734375 92 l 6,27,28
 797 0 797 0 722 0 c 6,0,-1
EndSplineSet
EndChar

StartChar: uniFE73
Encoding: 65139 65139 124
Width: 618
VWidth: 2360
GlyphClass: 2
Flags: W
AnchorPoint: "Anchor-10" 227.653 1381.86 basechar 0
AnchorPoint: "Anchor-7" 227.653 -120.42 basechar 0
LayerCount: 2
Fore
SplineSet
319.928710938 378.798828125 m 2,0,1
 319.928710938 309.426757812 319.928710938 309.426757812 380.665039062 248.689453125 c 0,2,3
 435.622070312 193.73046875 435.622070312 193.73046875 555.84375 193.73046875 c 2,4,-1
 628.473632812 193.73046875 l 1,5,-1
 628.473632812 9.1796875 l 1,6,-1
 492.28515625 9.1796875 l 2,7,8
 334.006835938 9.1796875 334.006835938 9.1796875 231.803710938 111.383789062 c 0,9,10
 135.377929688 207.80859375 135.377929688 207.80859375 135.377929688 364.931640625 c 2,11,-1
 135.377929688 400.583007812 l 1,12,-1
 319.928710938 400.583007812 l 1,13,-1
 319.928710938 378.798828125 l 2,0,1
EndSplineSet
EndChar

StartChar: uniFE8E
Encoding: 65166 65166 150
Width: 564
VWidth: 2448
GlyphClass: 2
Flags: W
AnchorPoint: "Anchor-10" 203.317 1657.96 basechar 0
AnchorPoint: "Anchor-7" 260.601 -284.03 basechar 0
LayerCount: 2
Fore
SplineSet
180.142578125 422.80078125 m 2,0,-1
 139.038085938 1141.7265625 l 2,1,2
 122.983206696 1428.29975378 122.983206696 1428.29975378 286.94921875 1516.58398438 c 2,3,-1
 303.657226562 1525.58007812 l 1,4,5
 315 1245 315 1245 302.400390625 676.3203125 c 0,6,7
 295 352 295 352 366.872070312 262.046875 c 0,8,9
 421.729443999 193.338867186 421.729443999 193.338867186 542.170898438 193.338867188 c 6,10,-1
 572.890625 193.338867188 l 1,11,-1
 572.890625 -0.1083984375 l 1,12,-1
 538.125976562 -0.1083984375 l 6,13,14
 204 -0 204 -0 180.142578125 422.80078125 c 2,0,-1
EndSplineSet
EndChar

StartChar: uniFEA2
Encoding: 65186 65186 170
Width: 1307
VWidth: 2474
GlyphClass: 2
Flags: W
AnchorPoint: "Anchor-10" 584.497 1201.59 basechar 0
AnchorPoint: "Anchor-7" 308.817 -955.419 basechar 0
LayerCount: 2
Fore
SplineSet
1295.56738281 188 m 6,0,1
 1312 188 l 6,2,3
 1387 188 1387 188 1387.05273438 98 c 6,4,-1
 1387.05273438 92 l 6,5,6
 1387.05273438 0 1387.05273438 0 1312 0 c 6,7,-1
 1291.09375 0 l 6,8,9
 923 0 923 0 901 433.1796875 c 1,10,11
 194 253 194 253 196.396484375 -159.360351562 c 0,12,13
 199 -491 199 -491 817.346679688 -491.000976562 c 0,14,15
 1006 -491 1006 -491 1155 -459.588867188 c 0,16,17
 1221 -446 1221 -446 1175 -514.50390625 c 0,18,19
 1067 -677 1067 -677 780.318359375 -676.75 c 0,20,21
 92 -677 92 -677 91.49609375 -166.178710938 c 0,22,23
 91 408 91 408 895.200195312 602.040039062 c 1,24,25
 766 652 766 652 682.440429688 684.919921875 c 0,26,27
 529 745 529 745 412.45703125 725.16796875 c 8,28,29
 294 704 294 704 211.440429688 607.256835938 c 0,30,31
 175 564 175 564 159.440429688 570.919921875 c 0,32,33
 138 580 138 580 154.22265625 630.380859375 c 0,34,35
 239 893 239 893 452.400390625 906.51953125 c 24,36,37
 585 915 585 915 871.440429688 783.48046875 c 0,38,39
 1033 709 1033 709 1095.28027344 696.240234375 c 0,40,41
 1162 683 1162 683 1210.20996094 687.705078125 c 1,42,-1
 1162.04003906 487.642578125 l 1,43,44
 1079 474 1079 474 1003 457.123046875 c 1,45,46
 1022 188 1022 188 1295.56738281 188 c 6,0,1
EndSplineSet
EndChar

StartChar: uniFEA3
Encoding: 65187 65187 171
Width: 1389
VWidth: 2474
GlyphClass: 2
Flags: W
AnchorPoint: "Anchor-10" 310.656 1183.1 basechar 0
AnchorPoint: "Anchor-7" 533.893 -260.763 basechar 0
LayerCount: 2
Fore
SplineSet
58.8798828125 188 m 6,0,1
 326 188 326 188 626 309 c 0,2,3
 786 374 786 374 945.166015625 439.932617188 c 1,4,5
 690 536 690 536 664 547 c 0,6,7
 495 618 495 618 414.016601562 607.248046875 c 0,8,9
 297 592 297 592 213 489.337327431 c 0,10,11
 177 446 177 446 161 453 c 0,12,13
 140 462 140 462 155.782226562 512.4609375 c 0,14,15
 244 793 244 793 433.959960938 794.599609375 c 0,16,17
 525 795 525 795 785 669 c 0,18,19
 1016 556 1016 556 1160 532 c 0,20,21
 1210 524 1210 524 1293.65625 529.91796875 c 1,22,-1
 1251.19042969 368.11328125 l 1,23,24
 1134 368 1134 368 995 312 c 0,25,26
 810 238 810 238 566.5 125 c 0,27,28
 297 0 297 0 50.0927734375 0 c 6,29,-1
 -4.947265625 0 l 6,30,31
 -80 0 -80 0 -80 92 c 6,32,-1
 -80 98 l 6,33,34
 -80 188 -80 188 -4.947265625 188 c 6,35,-1
 58.8798828125 188 l 6,0,1
EndSplineSet
EndChar

StartChar: uniFEA4
Encoding: 65188 65188 172
Width: 1389
VWidth: 2474
GlyphClass: 2
Flags: W
AnchorPoint: "Anchor-10" 393.362 1206.52 basechar 0
AnchorPoint: "Anchor-7" 585.688 -269.341 basechar 0
LayerCount: 2
Fore
SplineSet
1202.06640625 188 m 6,0,1
 1394 188 l 2,2,3
 1469 188 1469 188 1469.05273438 98 c 2,4,-1
 1469.05273438 92 l 2,5,6
 1469.05273438 0 1469.05273438 0 1394 0 c 2,7,-1
 1199.41015625 0 l 6,8,9
 915 0 915 0 895.3203125 274.200195312 c 1,10,11
 798 228 798 228 567 122 c 24,12,13
 303 0 303 0 50.0927734375 0 c 2,14,-1
 -4.947265625 0 l 2,15,16
 -80 0 -80 0 -80 92 c 2,17,-1
 -80 98 l 2,18,19
 -80 188 -80 188 -4.947265625 188 c 2,20,-1
 58.8798828125 188 l 2,21,22
 333 188 333 188 626 309 c 0,23,24
 872 411 872 411 945.166015625 439.932617188 c 1,25,26
 690 536 690 536 665 547 c 0,27,28
 502 619 502 619 415.016601562 607.248046875 c 0,29,30
 298 592 298 592 214 489.336914062 c 0,31,32
 178 446 178 446 162 453 c 0,33,34
 141 462 141 462 156.782226562 512.4609375 c 0,35,36
 245 793 245 793 434.959960938 794.599609375 c 0,37,38
 530 795 530 795 786 669 c 0,39,40
 1016 556 1016 556 1160 532 c 0,41,42
 1210 524 1210 524 1293.65625 529.91796875 c 1,43,-1
 1251.19042969 368.11328125 l 1,44,45
 1122 369 1122 369 993 313.576171875 c 1,46,47
 1005 188 1005 188 1202.06640625 188 c 6,0,1
EndSplineSet
EndChar

StartChar: uniFEAA
Encoding: 65194 65194 178
Width: 1132
VWidth: 2467
GlyphClass: 2
Flags: W
AnchorPoint: "Anchor-10" 488.198 1264.83 basechar 0
AnchorPoint: "Anchor-7" 385.75 -298.564 basechar 0
LayerCount: 2
Fore
SplineSet
1120.56738281 188 m 6,0,1
 1137 188 l 6,2,3
 1212 188 1212 188 1212.05273438 98 c 6,4,-1
 1212.05273438 92 l 6,5,6
 1212.05273438 0 1212.05273438 0 1137 0 c 6,7,-1
 1116.09375 0 l 6,8,9
 961 0 961 0 838.416992188 163.204101562 c 1,10,11
 663 -40 663 -40 349.6484375 -32.826171875 c 0,12,13
 329 -32 329 -32 309.008789062 -31.1240234375 c 0,14,15
 65 -20 65 -20 65.466796875 191.30078125 c 2,16,17
 65.466796875 221.221679688 l 1,18,19
 193 167 193 167 361.09765625 162.935546875 c 0,20,21
 521 159 521 159 656.639648438 219.240234375 c 0,22,23
 764 267 764 267 744.413085938 345.032226562 c 0,24,25
 742 356 742 356 733.140625 369.313476562 c 2,26,-1
 592.823242188 589.575195312 l 2,27,28
 426.940227911 849.968292047 426.940227911 849.968292047 576.795898438 929.463867188 c 2,29,-1
 598.403320312 940.9375 l 1,30,-1
 854.26171875 441.012695312 l 2,31,32
 983.752038894 188 983.752038894 188 1120.56738281 188 c 6,0,1
EndSplineSet
EndChar

StartChar: uniFEAE
Encoding: 65198 65198 182
Width: 990
VWidth: 2499
GlyphClass: 2
Flags: W
AnchorPoint: "Anchor-10" 488.979 933.966 basechar 0
AnchorPoint: "Anchor-7" 457.984 -714.031 basechar 0
LayerCount: 2
Fore
SplineSet
964.09375 0 m 6,0,1
 842 0 842 0 790 61 c 1,2,3
 755 -243 755 -243 567 -381 c 0,4,5
 461 -459 461 -459 375 -459 c 0,6,7
 238 -459 238 -459 73 -418.690429688 c 0,8,9
 16 -405 16 -405 8.65234375 -371 c 0,10,11
 3 -345 3 -345 89 -330.262695312 c 0,12,13
 705 -225 705 -225 671.178710938 131.9609375 c 0,14,15
 666 187 666 187 618.494140625 304.325195312 c 0,16,17
 554.199226715 464.503664779 554.199226715 464.503664779 669.220703125 552.122070312 c 2,18,-1
 709.796875 583.03125 l 1,19,20
 749 460 749 460 793.0703125 300.6015625 c 0,21,22
 824 188 824 188 968.567382812 188 c 6,23,-1
 995 188 l 2,24,25
 1070.05273438 188 1070.05273438 188 1070.05273438 98 c 2,26,-1
 1070.05273438 92 l 2,27,28
 1070 0 1070 0 995 0 c 2,29,-1
 964.09375 0 l 6,0,1
EndSplineSet
PairPos2: "'kern' Horizontal Kerning lookup 15-1" uniFB7C dx=-150 dy=0 dh=-150 dv=0 dx=0 dy=0 dh=0 dv=0
PairPos2: "'kern' Horizontal Kerning lookup 15-1" uniFB90 dx=-350 dy=0 dh=-350 dv=0 dx=0 dy=0 dh=0 dv=0
PairPos2: "'kern' Horizontal Kerning lookup 15-1" uniFB8E dx=-350 dy=0 dh=-350 dv=0 dx=0 dy=0 dh=0 dv=0
PairPos2: "'kern' Horizontal Kerning lookup 15-1" uni06A9 dx=-350 dy=0 dh=-350 dv=0 dx=0 dy=0 dh=0 dv=0
PairPos2: "'kern' Horizontal Kerning lookup 15-1" uni064A dx=-100 dy=0 dh=-100 dv=0 dx=0 dy=0 dh=0 dv=0
PairPos2: "'kern' Horizontal Kerning lookup 15-1" afii57414 dx=-100 dy=0 dh=-100 dv=0 dx=0 dy=0 dh=0 dv=0
PairPos2: "'kern' Horizontal Kerning lookup 15-1" uni0649 dx=-100 dy=0 dh=-100 dv=0 dx=0 dy=0 dh=0 dv=0
PairPos2: "'kern' Horizontal Kerning lookup 15-1" uni0648 dx=-80 dy=0 dh=-80 dv=0 dx=0 dy=0 dh=0 dv=0
PairPos2: "'kern' Horizontal Kerning lookup 15-1" afii57412 dx=-80 dy=0 dh=-80 dv=0 dx=0 dy=0 dh=0 dv=0
PairPos2: "'kern' Horizontal Kerning lookup 15-1" uniFEEB dx=-250 dy=0 dh=-250 dv=0 dx=0 dy=0 dh=0 dv=0
PairPos2: "'kern' Horizontal Kerning lookup 15-1" uni0647 dx=-250 dy=0 dh=-250 dv=0 dx=0 dy=0 dh=0 dv=0
PairPos2: "'kern' Horizontal Kerning lookup 15-1" uniFEE7 dx=-250 dy=0 dh=-250 dv=0 dx=0 dy=0 dh=0 dv=0
PairPos2: "'kern' Horizontal Kerning lookup 15-1" uni0646 dx=-100 dy=0 dh=-200 dv=0 dx=0 dy=0 dh=0 dv=0
PairPos2: "'kern' Horizontal Kerning lookup 15-1" uniFEE3 dx=-250 dy=0 dh=-250 dv=0 dx=0 dy=0 dh=0 dv=0
PairPos2: "'kern' Horizontal Kerning lookup 15-1" uni0645 dx=-250 dy=0 dh=-250 dv=0 dx=0 dy=0 dh=0 dv=0
PairPos2: "'kern' Horizontal Kerning lookup 15-1" uniFEFB dx=-250 dy=0 dh=-250 dv=0 dx=0 dy=0 dh=0 dv=0
PairPos2: "'kern' Horizontal Kerning lookup 15-1" uniFEDF dx=-250 dy=0 dh=-250 dv=0 dx=0 dy=0 dh=0 dv=0
PairPos2: "'kern' Horizontal Kerning lookup 15-1" uni0644 dx=-80 dy=0 dh=-80 dv=0 dx=0 dy=0 dh=0 dv=0
PairPos2: "'kern' Horizontal Kerning lookup 15-1" uniFEDB dx=-350 dy=0 dh=-350 dv=0 dx=0 dy=0 dh=0 dv=0
PairPos2: "'kern' Horizontal Kerning lookup 15-1" uni0643 dx=-250 dy=0 dh=-250 dv=0 dx=0 dy=0 dh=0 dv=0
PairPos2: "'kern' Horizontal Kerning lookup 15-1" uniFED7 dx=-250 dy=0 dh=-250 dv=0 dx=0 dy=0 dh=0 dv=0
PairPos2: "'kern' Horizontal Kerning lookup 15-1" uni0642 dx=-100 dy=0 dh=-100 dv=0 dx=0 dy=0 dh=0 dv=0
PairPos2: "'kern' Horizontal Kerning lookup 15-1" uniFED3 dx=-250 dy=0 dh=-250 dv=0 dx=0 dy=0 dh=0 dv=0
PairPos2: "'kern' Horizontal Kerning lookup 15-1" uni0641 dx=-250 dy=0 dh=-250 dv=0 dx=0 dy=0 dh=0 dv=0
PairPos2: "'kern' Horizontal Kerning lookup 15-1" uniFECF dx=-250 dy=0 dh=-250 dv=0 dx=0 dy=0 dh=0 dv=0
PairPos2: "'kern' Horizontal Kerning lookup 15-1" uniFECB dx=-250 dy=0 dh=-250 dv=0 dx=0 dy=0 dh=0 dv=0
PairPos2: "'kern' Horizontal Kerning lookup 15-1" uniFEC7 dx=-250 dy=0 dh=-250 dv=0 dx=0 dy=0 dh=0 dv=0
PairPos2: "'kern' Horizontal Kerning lookup 15-1" uni0638 dx=-250 dy=0 dh=-250 dv=0 dx=0 dy=0 dh=0 dv=0
PairPos2: "'kern' Horizontal Kerning lookup 15-1" uniFEC3 dx=-250 dy=0 dh=-250 dv=0 dx=0 dy=0 dh=0 dv=0
PairPos2: "'kern' Horizontal Kerning lookup 15-1" uni0637 dx=-250 dy=0 dh=-250 dv=0 dx=0 dy=0 dh=0 dv=0
PairPos2: "'kern' Horizontal Kerning lookup 15-1" uniFEBF dx=-250 dy=0 dh=-250 dv=0 dx=0 dy=0 dh=0 dv=0
PairPos2: "'kern' Horizontal Kerning lookup 15-1" uni0636 dx=-250 dy=0 dh=-250 dv=0 dx=0 dy=0 dh=0 dv=0
PairPos2: "'kern' Horizontal Kerning lookup 15-1" uniFEBB dx=-250 dy=0 dh=-250 dv=0 dx=0 dy=0 dh=0 dv=0
PairPos2: "'kern' Horizontal Kerning lookup 15-1" uni0635 dx=-250 dy=0 dh=-250 dv=0 dx=0 dy=0 dh=0 dv=0
PairPos2: "'kern' Horizontal Kerning lookup 15-1" uniFEB7 dx=-250 dy=0 dh=-250 dv=0 dx=0 dy=0 dh=0 dv=0
PairPos2: "'kern' Horizontal Kerning lookup 15-1" uni0634 dx=-250 dy=0 dh=-250 dv=0 dx=0 dy=0 dh=0 dv=0
PairPos2: "'kern' Horizontal Kerning lookup 15-1" uniFEB3 dx=-250 dy=0 dh=-250 dv=0 dx=0 dy=0 dh=0 dv=0
PairPos2: "'kern' Horizontal Kerning lookup 15-1" uni0633 dx=-250 dy=0 dh=-250 dv=0 dx=0 dy=0 dh=0 dv=0
PairPos2: "'kern' Horizontal Kerning lookup 15-1" uni0632 dx=-80 dy=0 dh=-80 dv=0 dx=0 dy=0 dh=0 dv=0
PairPos2: "'kern' Horizontal Kerning lookup 15-1" uni0631 dx=-80 dy=0 dh=-80 dv=0 dx=0 dy=0 dh=0 dv=0
PairPos2: "'kern' Horizontal Kerning lookup 15-1" uni0630 dx=-250 dy=0 dh=-250 dv=0 dx=0 dy=0 dh=0 dv=0
PairPos2: "'kern' Horizontal Kerning lookup 15-1" uni062F dx=-250 dy=0 dh=-250 dv=0 dx=0 dy=0 dh=0 dv=0
PairPos2: "'kern' Horizontal Kerning lookup 15-1" uniFEA7 dx=-250 dy=0 dh=-250 dv=0 dx=0 dy=0 dh=0 dv=0
PairPos2: "'kern' Horizontal Kerning lookup 15-1" uniFEA3 dx=-250 dy=0 dh=-250 dv=0 dx=0 dy=0 dh=0 dv=0
PairPos2: "'kern' Horizontal Kerning lookup 15-1" uniFE9F dx=-250 dy=0 dh=-250 dv=0 dx=0 dy=0 dh=0 dv=0
PairPos2: "'kern' Horizontal Kerning lookup 15-1" uniFE9B dx=-250 dy=0 dh=-250 dv=0 dx=0 dy=0 dh=0 dv=0
PairPos2: "'kern' Horizontal Kerning lookup 15-1" uni062B dx=-250 dy=0 dh=-250 dv=0 dx=0 dy=0 dh=0 dv=0
PairPos2: "'kern' Horizontal Kerning lookup 15-1" uniFE97 dx=-250 dy=0 dh=-250 dv=0 dx=0 dy=0 dh=0 dv=0
PairPos2: "'kern' Horizontal Kerning lookup 15-1" uni062A dx=-250 dy=0 dh=-250 dv=0 dx=0 dy=0 dh=0 dv=0
PairPos2: "'kern' Horizontal Kerning lookup 15-1" uni0629 dx=-250 dy=0 dh=-250 dv=0 dx=0 dy=0 dh=0 dv=0
PairPos2: "'kern' Horizontal Kerning lookup 15-1" uniFE91 dx=-50 dy=0 dh=-50 dv=0 dx=0 dy=0 dh=0 dv=0
PairPos2: "'kern' Horizontal Kerning lookup 15-1" uni0628 dx=-250 dy=0 dh=-250 dv=0 dx=0 dy=0 dh=0 dv=0
PairPos2: "'kern' Horizontal Kerning lookup 15-1" uni0627 dx=-250 dy=0 dh=-250 dv=0 dx=0 dy=0 dh=0 dv=0
PairPos2: "'kern' Horizontal Kerning lookup 15-1" uni0623 dx=-250 dy=0 dh=-250 dv=0 dx=0 dy=0 dh=0 dv=0
PairPos2: "'kern' Horizontal Kerning lookup 15-1" uni0622 dx=-250 dy=0 dh=-250 dv=0 dx=0 dy=0 dh=0 dv=0
PairPos2: "'kern' Horizontal Kerning lookup 15-1" uni0621 dx=-250 dy=0 dh=-250 dv=0 dx=0 dy=0 dh=0 dv=0
PairPos2: "'kern' Horizontal Kerning lookup 15-1" uniFB94 dx=-350 dy=0 dh=-350 dv=0 dx=0 dy=0 dh=0 dv=0
PairPos2: "'kern' Horizontal Kerning lookup 15-1" uniFB92 dx=-350 dy=0 dh=-350 dv=0 dx=0 dy=0 dh=0 dv=0
PairPos2: "'kern' Horizontal Kerning lookup 15-1" afii57509 dx=-350 dy=0 dh=-350 dv=0 dx=0 dy=0 dh=0 dv=0
PairPos2: "'kern' Horizontal Kerning lookup 15-1" afii57508 dx=-80 dy=0 dh=-80 dv=0 dx=0 dy=0 dh=0 dv=0
PairPos2: "'kern' Horizontal Kerning lookup 15-1" afii57506 dx=-250 dy=0 dh=-250 dv=0 dx=0 dy=0 dh=0 dv=0
PairPos2: "'kern' Horizontal Kerning lookup 15-1" afii57440 dx=-250 dy=0 dh=-250 dv=0 dx=0 dy=0 dh=0 dv=0
PairPos2: "'kern' Horizontal Kerning lookup 15-1" uniFE8B dx=-250 dy=0 dh=-250 dv=0 dx=0 dy=0 dh=0 dv=0
EndChar

StartChar: uniFEB2
Encoding: 65202 65202 186
Width: 2500
VWidth: 2501
GlyphClass: 2
Flags: W
AnchorPoint: "Anchor-10" 605.736 1005.83 basechar 0
AnchorPoint: "Anchor-7" 416.845 -806.392 basechar 0
LayerCount: 2
Fore
SplineSet
2488.56738281 188 m 6,0,1
 2505 188 l 6,2,3
 2580 188 2580 188 2580.05273438 98 c 6,4,-1
 2580.05273438 92 l 6,5,6
 2580.05273438 0 2580.05273438 0 2505 0 c 6,7,-1
 2484.09375 0 l 6,8,9
 2229 0 2229 0 2173.5 180.876953125 c 1,10,11
 2100 9 2100 9 1926.54589844 4.0029296875 c 8,12,13
 1752 -1 1752 -1 1682.66015625 193.836914062 c 1,14,15
 1613 2 1613 2 1454.95117188 1.578125 c 2,16,-1
 1426.3203125 1.578125 l 2,17,18
 1317.30171003 1.578125 1317.30171003 1.578125 1269.77050781 68.0400390625 c 1,19,20
 1272 -40 1272 -40 1252.25683594 -119.879882812 c 0,21,22
 1149 -541 1149 -541 662.930664062 -545.791015625 c 0,23,24
 345 -549 345 -549 187.1328125 -346.896484375 c 0,25,26
 56 -178 56 -178 114.48046875 114.48046875 c 0,27,28
 135 217 135 217 190.567382812 336.995117188 c 0,29,30
 219 399 219 399 255.419921875 388.259765625 c 0,31,32
 292 378 292 378 265.825195312 307.799804688 c 0,33,34
 179 75 179 75 235.631835938 -109.409179688 c 0,35,36
 313 -364 313 -364 665.359375 -362.66796875 c 0,37,38
 1124 -361 1124 -361 1155.05664062 -15.0859375 c 0,39,40
 1164 84 1164 84 1092.65332031 257.984375 c 0,41,42
 989 512 989 512 1145.50878906 552.739257812 c 2,43,-1
 1180.71679688 561.897460938 l 1,44,45
 1212 400 1212 400 1248.03222656 291.599609375 c 24,46,47
 1285 181 1285 181 1427.3671875 185.56640625 c 2,48,-1
 1448.61328125 186.249023438 l 1,49,50
 1574 185 1574 185 1619.68457031 343.653320312 c 2,51,-1
 1645.95019531 434.133789062 l 2,52,53
 1674.06957847 531.000129364 1674.06957847 531.000129364 1757.51367188 531.155273438 c 2,54,-1
 1770.64746094 531.155273438 l 1,55,-1
 1763.84277344 413.189453125 l 2,56,57
 1749.98775679 172.999377679 1749.98775679 172.999377679 1950.15429688 183.173828125 c 0,58,59
 2093 190 2093 190 2101.15039062 376.21484375 c 2,60,-1
 2103.60253906 430.333007812 l 2,61,62
 2111.83402686 611.99941925 2111.83402686 611.99941925 2213.58984375 612.35546875 c 2,63,-1
 2232.54296875 612.35546875 l 1,64,-1
 2232.00292969 412.654296875 l 2,65,66
 2231.39541149 188 2231.39541149 188 2488.56738281 188 c 6,0,1
EndSplineSet
EndChar

StartChar: uniFEB3
Encoding: 65203 65203 187
Width: 1443
VWidth: 2490
GlyphClass: 2
Flags: W
AnchorPoint: "Anchor-10" 691.558 1068.67 basechar 0
AnchorPoint: "Anchor-7" 669.093 -240.408 basechar 0
LayerCount: 2
Fore
SplineSet
-4.947265625 0 m 2,0,1
 -80 0 -80 0 -80 92 c 2,2,-1
 -80 98 l 2,3,4
 -80 188 -80 188 -4.947265625 188 c 2,5,-1
 18.8798828125 188 l 2,6,7
 240 188 240 188 259.708984375 313.203125 c 2,8,-1
 271.579101562 389.989257812 l 2,9,10
 292.759113436 526.999801093 292.759113436 526.999801093 388.795898438 527.079101562 c 2,11,-1
 407.66015625 527.079101562 l 1,12,-1
 394.682617188 411.583007812 l 2,13,14
 369.446996874 186.993772868 369.446996874 186.993772868 551.119140625 184.462890625 c 0,15,16
 697 183 697 183 731.633789062 329.208984375 c 2,17,-1
 746.77734375 393.423828125 l 2,18,19
 778.27818827 527.000247308 778.27818827 527.000247308 866.978515625 527.079101562 c 2,20,-1
 880.109375 527.079101562 l 1,21,-1
 873.626953125 451.90234375 l 2,22,23
 851.991898588 201.000244727 851.991898588 201.000244727 1059.09277344 194.744140625 c 0,24,25
 1183 191 1183 191 1213.08007812 280.799804688 c 0,26,27
 1232 337 1232 337 1190.40039062 446.040039062 c 0,28,29
 1170 499 1170 499 1149.19726562 575.303710938 c 0,30,31
 1106 730 1106 730 1255.296875 800.827148438 c 2,32,-1
 1271.88574219 808.756835938 l 1,33,34
 1340 602 1340 602 1350.82324219 422.735351562 c 0,35,36
 1362 228 1362 228 1268.39746094 118.21875 c 0,37,38
 1168 2 1168 2 1041.08886719 0.357421875 c 24,39,40
 975 0 975 0 937.421875 17.5615234375 c 0,41,42
 834 67 834 67 793.407226562 183.944335938 c 1,43,44
 730 0 730 0 547.458007812 -0.208984375 c 0,45,46
 375 -0 375 -0 306.887695312 177.46484375 c 1,47,48
 231 0 231 0 20.0927734375 0 c 2,49,-1
 -4.947265625 0 l 2,0,1
EndSplineSet
EndChar

StartChar: uniFEB4
Encoding: 65204 65204 188
Width: 1629
VWidth: 2478
GlyphClass: 2
Flags: W
AnchorPoint: "Anchor-10" 655.434 1067.99 basechar 0
AnchorPoint: "Anchor-7" 761.9 -258.261 basechar 0
LayerCount: 2
Fore
SplineSet
1617.56738281 188 m 2,0,1
 1634 188 l 2,2,3
 1709 188 1709 188 1709.05273438 98 c 2,4,-1
 1709.05273438 92 l 2,5,6
 1709.05273438 0 1709.05273438 0 1634 0 c 2,7,-1
 1613.09375 0 l 2,8,9
 1343 0 1343 0 1287.98925781 178.734375 c 1,10,11
 1215 6 1215 6 1041.03613281 1.859375 c 8,12,13
 867 -3 867 -3 797.1484375 191.694335938 c 1,14,15
 727 -1 727 -1 539.439453125 -0.5654296875 c 0,16,17
 375 0 375 0 306.068359375 181.974609375 c 1,18,19
 229 0 229 0 20.0927734375 0 c 2,20,-1
 -4.947265625 0 l 2,21,22
 -80 0 -80 0 -80 92 c 2,23,-1
 -80 98 l 2,24,25
 -80 188 -80 188 -4.947265625 188 c 2,26,-1
 18.8798828125 188 l 2,27,28
 236 188 236 188 260.088867188 322.609375 c 2,29,-1
 278.762695312 428.555664062 l 2,30,31
 296.466773677 529.00006097 296.466773677 529.00006097 393.193359375 529.012695312 c 2,32,-1
 412.057617188 529.012695312 l 1,33,-1
 397.223632812 414.508789062 l 2,34,35
 367.620843751 186.004100255 367.620843751 186.004100255 543.099609375 184.106445312 c 0,36,37
 688 183 688 183 734.174804688 341.509765625 c 2,38,-1
 760.442382812 431.991210938 l 2,39,40
 788.604890046 528.999939567 788.604890046 528.999939567 872.001953125 529.012695312 c 2,41,-1
 885.1328125 529.012695312 l 1,42,-1
 878.327148438 411.045898438 l 2,43,44
 864.479960101 171.023993333 864.479960101 171.023993333 1064.64453125 181.030273438 c 0,45,46
 1195 188 1195 188 1203.76074219 374.071289062 c 2,47,-1
 1206.21191406 428.189453125 l 2,48,49
 1214.44669286 610.000901908 1214.44669286 610.000901908 1319.43945312 610.212890625 c 2,50,-1
 1350.2734375 610.212890625 l 1,51,-1
 1342.17285156 410.510742188 l 2,52,53
 1333.14707291 188 1333.14707291 188 1617.56738281 188 c 2,0,1
EndSplineSet
EndChar

StartChar: uniFEBA
Encoding: 65210 65210 194
Width: 2613
VWidth: 2474
GlyphClass: 2
Flags: W
AnchorPoint: "Anchor-10" 640.512 966.827 basechar 0
AnchorPoint: "Anchor-7" 391.269 -776.618 basechar 0
LayerCount: 2
Fore
SplineSet
2601.56738281 188 m 2,0,1
 2618 188 l 2,2,3
 2693 188 2693 188 2693.05273438 98 c 2,4,-1
 2693.05273438 92 l 2,5,6
 2693.05273438 0 2693.05273438 0 2618 0 c 2,7,-1
 2597.09375 0 l 2,8,9
 2400 0 2400 0 2281.5625 148.708007812 c 1,10,11
 2253 123 2253 123 2195.05078125 90.3388671875 c 0,12,13
 2032 -1 2032 -1 1798.41503906 -0.767578125 c 2,14,-1
 1501.91992188 0 l 2,15,16
 1316.66709631 0.479589741149 1316.66709631 0.479589741149 1269.77050781 68.0400390625 c 1,17,18
 1272 -40 1272 -40 1252.25683594 -119.879882812 c 0,19,20
 1148 -541 1148 -541 669.930664062 -545.791015625 c 0,21,22
 341 -549 341 -549 187.1328125 -346.896484375 c 0,23,24
 56 -176 56 -176 114.48046875 114.48046875 c 0,25,26
 135 217 135 217 190.567382812 336.995117188 c 0,27,28
 219 399 219 399 255.419921875 388.259765625 c 0,29,30
 292 378 292 378 265.825195312 307.799804688 c 0,31,32
 179 75 179 75 235.631835938 -109.409179688 c 0,33,34
 313 -364 313 -364 665.359375 -362.66796875 c 0,35,36
 1124 -361 1124 -361 1155.05664062 -15.0859375 c 0,37,38
 1164 84 1164 84 1092.65332031 257.984375 c 0,39,40
 989 512 989 512 1145.50878906 552.739257812 c 2,41,-1
 1180.71679688 561.897460938 l 1,42,43
 1209 415 1209 415 1250.19238281 291.599609375 c 0,44,45
 1280 202 1280 202 1396.35644531 200.829101562 c 5,46,-1
 1496.24023438 364.200195312 l 2,47,48
 1732.11468226 749.999201317 1732.11468226 749.999201317 1995.48046875 748.165039062 c 0,49,50
 2139 747 2139 747 2268.72070312 626.6796875 c 0,51,52
 2390 513 2390 513 2392.03613281 385.240234375 c 0,53,54
 2393 334 2393 334 2377.28027344 281 c 1,55,56
 2447 188 2447 188 2601.56738281 188 c 2,0,1
1527.60253906 188.426757812 m 1,57,-1
 1732.26464844 188.426757812 l 2,58,59
 1973 188 1973 188 2174.76074219 267.239257812 c 0,60,61
 2272 305 2272 305 2267.74414062 362 c 0,62,63
 2263 421 2263 421 2148.83984375 501.400390625 c 0,64,65
 2072 555 2072 555 2004.12011719 555.087890625 c 0,66,67
 1812.30410845 554.001722031 1812.30410845 554.001722031 1662.83984375 362.080078125 c 2,68,-1
 1527.60253906 188.426757812 l 1,57,-1
EndSplineSet
EndChar

StartChar: uniFEBB
Encoding: 65211 65211 195
Width: 1708
VWidth: 2474
GlyphClass: 2
Flags: W
AnchorPoint: "Anchor-10" 578.359 1202.98 basechar 0
AnchorPoint: "Anchor-7" 714.591 -311.358 basechar 0
LayerCount: 2
Fore
SplineSet
18.8798828125 188 m 2,0,1
 130 188 130 188 198.719726562 228.959960938 c 0,2,3
 264.889102036 267.934679496 264.889102036 267.934679496 274.692382812 344.598632812 c 2,4,-1
 287.192382812 442.3515625 l 2,5,6
 302.968907831 562.762695312 302.968907831 562.762695312 421.200195312 562.762695312 c 2,7,-1
 431.221679688 562.762695312 l 1,8,-1
 414.912109375 416.799804688 l 2,9,10
 394 231 394 231 605.076171875 207.829101562 c 1,11,-1
 704.959960938 364.200195312 l 2,12,13
 951 750 951 750 1204.20019531 748.165039062 c 0,14,15
 1348 747 1348 747 1477.44042969 626.6796875 c 0,16,17
 1597 515 1597 515 1600.75585938 385.240234375 c 0,18,19
 1606 191 1606 191 1403.77050781 90.3388671875 c 0,20,21
 1217.36577649 -1.3118323666 1217.36577649 -1.3118323666 1007.13476562 -0.767578125 c 2,22,-1
 710.639648438 0 l 2,23,24
 456 1 456 1 346.766601562 178.680664062 c 1,25,26
 215 0 215 0 20.0927734375 0 c 2,27,-1
 -4.947265625 0 l 2,28,29
 -80 0 -80 0 -80 92 c 2,30,-1
 -80 98 l 2,31,32
 -80 188 -80 188 -4.947265625 188 c 2,33,-1
 18.8798828125 188 l 2,0,1
736.322265625 188.426757812 m 1,34,-1
 940.984375 188.426757812 l 2,35,36
 1182 188 1182 188 1383.48046875 267.239257812 c 0,37,38
 1478 304 1478 304 1476.62704167 359 c 0,39,40
 1475 419 1475 419 1357.55957031 501.400390625 c 0,41,42
 1281 555 1281 555 1212.83984375 555.087890625 c 0,43,44
 1021.02259371 554.000128125 1021.02259371 554.000128125 871.559570312 362.080078125 c 2,45,-1
 736.322265625 188.426757812 l 1,34,-1
EndSplineSet
EndChar

StartChar: uniFEBC
Encoding: 65212 65212 196
Width: 1821
VWidth: 2474
GlyphClass: 2
Flags: W
AnchorPoint: "Anchor-10" 608.232 1277.32 basechar 0
AnchorPoint: "Anchor-7" 706.685 -319.104 basechar 0
LayerCount: 2
Fore
SplineSet
1809.56738281 188 m 6,0,1
 1826 188 l 6,2,3
 1901 188 1901 188 1901.05273438 98 c 6,4,-1
 1901.05273438 92 l 6,5,6
 1901.05273438 0 1901.05273438 0 1826 0 c 6,7,-1
 1805.09375 0 l 6,8,9
 1608 0 1608 0 1490.28222656 148.708007812 c 1,10,11
 1466 126 1466 126 1403.77050781 90.3388671875 c 0,12,13
 1244 -1 1244 -1 1007.13476562 -0.767578125 c 2,14,-1
 710.639648438 0 l 2,15,16
 456.209835896 0.658677823471 456.209835896 0.658677823471 346.766601562 178.680664062 c 1,17,18
 215 0 215 0 20.0927734375 0 c 2,19,-1
 -4.947265625 0 l 2,20,21
 -80 0 -80 0 -80 92 c 2,22,-1
 -80 98 l 2,23,24
 -80 188 -80 188 -4.947265625 188 c 2,25,-1
 18.8798828125 188 l 2,26,27
 132 188 132 188 198.719726562 228.959960938 c 0,28,29
 265 270 265 270 274.692382812 344.598632812 c 2,30,-1
 287.192382812 442.3515625 l 2,31,32
 302.620206865 563.000762492 302.620206865 563.000762492 421.200195312 562.762695312 c 2,33,-1
 431.221679688 562.762695312 l 1,34,-1
 414.912109375 416.799804688 l 2,35,36
 394.149417702 230.983597664 394.149417702 230.983597664 605.076171875 207.829101562 c 1,37,-1
 704.959960938 364.200195312 l 2,38,39
 951.392095953 749.997158451 951.392095953 749.997158451 1204.20019531 748.165039062 c 0,40,41
 1348 747 1348 747 1477.44042969 626.6796875 c 0,42,43
 1597 515 1597 515 1600.75585938 385.240234375 c 0,44,45
 1602 334 1602 334 1586 281 c 1,46,47
 1656 188 1656 188 1809.56738281 188 c 6,0,1
736.322265625 188.426757812 m 1,48,-1
 940.984375 188.426757812 l 2,49,50
 1178.85440298 188.005569797 1178.85440298 188.005569797 1383.48046875 267.239257812 c 0,51,52
 1481 305 1481 305 1476.46365244 362 c 0,53,54
 1472 421 1472 421 1357.55957031 501.400390625 c 0,55,56
 1281 555 1281 555 1212.83984375 555.087890625 c 0,57,58
 1021.02259371 554.000128125 1021.02259371 554.000128125 871.559570312 362.080078125 c 2,59,-1
 736.322265625 188.426757812 l 1,48,-1
EndSplineSet
EndChar

StartChar: uniFEC2
Encoding: 65218 65218 202
Width: 1534
VWidth: 2474
GlyphClass: 2
Flags: W
AnchorPoint: "Anchor-7" 701.43 -305.237 basechar 0
AnchorPoint: "Anchor-10" 258.858 1689.24 basechar 0
LayerCount: 2
Fore
SplineSet
1522.56738281 188 m 6,0,1
 1539 188 l 6,2,3
 1614 188 1614 188 1614.05273438 98 c 6,4,-1
 1614.05273438 92 l 6,5,6
 1614.05273438 0 1614.05273438 0 1539 0 c 6,7,-1
 1518.09375 0 l 6,8,9
 1325 0 1325 0 1207.28222656 148.708007812 c 1,10,11
 1196 135 1196 135 1117.77050781 90.3388671875 c 0,12,13
 956 -1 956 -1 711.134765625 -0.767578125 c 2,14,-1
 424.639648438 0 l 2,15,-1
 375.192382812 0.1533203125 l 2,16,17
 91.0000273438 1.0345108131 91.0000273438 1.0345108131 91.15234375 193.274414062 c 1,18,-1
 309 193 l 1,19,-1
 248.788085938 1137.68164062 l 2,20,21
 230.800702771 1419.89074998 230.800702771 1419.89074998 400.482421875 1512.90625 c 2,22,-1
 422.0390625 1524.69921875 l 1,23,-1
 421.959960938 367.200195312 l 1,24,25
 675 750 675 750 918.200195312 748.165039062 c 0,26,27
 1062 747 1062 747 1191.44042969 626.6796875 c 0,28,29
 1311 515 1311 515 1314.75585938 385.240234375 c 0,30,31
 1316 330 1316 330 1298 281 c 1,32,33
 1368 188 1368 188 1522.56738281 188 c 6,0,1
450.322265625 193.426757812 m 1,34,-1
 654.984375 193.426757812 l 2,35,36
 906 193 906 193 1097.48046875 267.239257812 c 0,37,38
 1193 304 1193 304 1190.58789062 360 c 0,39,40
 1188 420 1188 420 1071.55957031 501.400390625 c 0,41,42
 995 555 995 555 926.83984375 555.087890625 c 0,43,44
 739.455679847 554.002639109 739.455679847 554.002639109 585.559570312 362.080078125 c 2,45,-1
 450.322265625 193.426757812 l 1,34,-1
EndSplineSet
EndChar

StartChar: uniFEC3
Encoding: 65219 65219 203
Width: 1299
VWidth: 2474
GlyphClass: 2
Flags: W
AnchorPoint: "Anchor-10" 228.798 1712.96 basechar 0
AnchorPoint: "Anchor-7" 521.478 -320.118 basechar 0
LayerCount: 2
Fore
SplineSet
-4.947265625 188 m 2,0,-1
 189 188 l 1,1,-1
 128.788085938 1137.68164062 l 2,2,3
 110.988568869 1420.18142582 110.988568869 1420.18142582 280.482421875 1512.90625 c 2,4,-1
 302.0390625 1524.69921875 l 1,5,-1
 301.959960938 367.200195312 l 1,6,7
 555 750 555 750 798.200195312 748.165039062 c 0,8,9
 942 747 942 747 1071.44042969 626.6796875 c 0,10,11
 1191 515 1191 515 1194.75585938 385.240234375 c 0,12,13
 1199.02769237 187.719562214 1199.02769237 187.719562214 997.770507812 90.3388671875 c 0,14,15
 807.279731534 -1.34667402475 807.279731534 -1.34667402475 591.134765625 -0.767578125 c 2,16,-1
 304.639648438 0 l 2,17,-1
 -4.947265625 0 l 18,18,19
 -80 0 -80 0 -80 92 c 2,20,-1
 -80 98 l 2,21,22
 -80 188 -80 188 -4.947265625 188 c 2,0,-1
330.322265625 188.426757812 m 1,23,-1
 534.984375 188.426757812 l 2,24,25
 773 188 773 188 977.48046875 267.239257812 c 0,26,27
 1073 304 1073 304 1070.58789062 360 c 0,28,29
 1068 420 1068 420 951.559570312 501.400390625 c 0,30,31
 875 555 875 555 806.83984375 555.087890625 c 0,32,33
 615.022593712 554.000128125 615.022593712 554.000128125 465.559570312 362.080078125 c 2,34,-1
 330.322265625 188.426757812 l 1,23,-1
EndSplineSet
EndChar

StartChar: uniFEC4
Encoding: 65220 65220 204
Width: 1414
VWidth: 2474
GlyphClass: 2
Flags: W
AnchorPoint: "Anchor-10" 215.935 1697.49 basechar 0
AnchorPoint: "Anchor-7" 580.011 -288.065 basechar 0
LayerCount: 2
Fore
SplineSet
1402.56738281 188 m 6,0,1
 1419 188 l 6,2,3
 1494 188 1494 188 1494.05273438 98 c 6,4,-1
 1494.05273438 92 l 6,5,6
 1494.05273438 0 1494.05273438 0 1419 0 c 6,7,-1
 1398.09375 0 l 6,8,9
 1205 0 1205 0 1087.28222656 148.708007812 c 1,10,11
 1024 104 1024 104 997.770507812 90.3388671875 c 0,12,13
 822.392455493 -1.00346029472 822.392455493 -1.00346029472 591.134765625 -0.767578125 c 2,14,-1
 304.639648438 0 l 2,15,-1
 -4.947265625 0 l 18,16,17
 -80 0 -80 0 -80 92 c 2,18,-1
 -80 98 l 2,19,20
 -80 188 -80 188 -4.947265625 188 c 2,21,-1
 189 188 l 1,22,-1
 128.788085938 1137.68164062 l 2,23,24
 110.892224069 1419.94091979 110.892224069 1419.94091979 280.482421875 1512.90625 c 2,25,-1
 302.0390625 1524.69921875 l 1,26,-1
 301.959960938 367.200195312 l 1,27,28
 555 750 555 750 798.200195312 748.165039062 c 0,29,30
 942 747 942 747 1071.44042969 626.6796875 c 0,31,32
 1191 515 1191 515 1194.75585938 385.240234375 c 0,33,34
 1196 330 1196 330 1178 281 c 1,35,36
 1248 188 1248 188 1402.56738281 188 c 6,0,1
330.322265625 188.426757812 m 1,37,-1
 534.984375 188.426757812 l 2,38,39
 773 188 773 188 977.48046875 267.239257812 c 0,40,41
 1073 304 1073 304 1070.58789062 360 c 0,42,43
 1068 420 1068 420 951.559570312 501.400390625 c 0,44,45
 875 555 875 555 806.83984375 555.087890625 c 0,46,47
 615.022593712 554.000128125 615.022593712 554.000128125 465.559570312 362.080078125 c 2,48,-1
 330.322265625 188.426757812 l 1,37,-1
EndSplineSet
EndChar

StartChar: uniFECA
Encoding: 65226 65226 210
Width: 1359
VWidth: 2472
GlyphClass: 2
Flags: W
AnchorPoint: "Anchor-10" 464.277 1204.85 basechar 0
AnchorPoint: "Anchor-7" 403.334 -878.048 basechar 0
LayerCount: 2
Fore
SplineSet
1347.56738281 188 m 2,0,1
 1364 188 l 2,2,3
 1439.05273438 188 1439.05273438 188 1439.05273438 98 c 2,4,-1
 1439.05273438 92 l 2,5,6
 1439 0 1439 0 1364 0 c 2,7,-1
 1343.09375 0 l 2,8,9
 1032 0 1032 0 690 346.4609375 c 1,10,11
 204 175 204 175 206.396484375 -159.360351562 c 0,12,13
 209 -491 209 -491 827.346679688 -491.000976562 c 0,14,15
 1028 -491 1028 -491 1176 -457.209109499 c 0,16,17
 1225 -446 1225 -446 1196 -496.677572742 c 0,18,19
 1093 -677 1093 -677 790.318359375 -676.75 c 0,20,21
 102 -677 102 -677 101.49609375 -166.178710938 c 0,22,23
 101 257 101 257 550 481.118164062 c 1,24,25
 533 497 533 497 392.48046875 622.200195312 c 5,26,27
 392 729 392 729 391.48046875 835.200195312 c 1,28,29
 531 980 531 980 825.48046875 979.200195312 c 0,30,31
 1000 979 1000 979 1114.48046875 900.200195312 c 0,32,33
 1194 845 1194 845 1189.59179688 751.510742188 c 0,34,35
 1180 555 1180 555 839.48046875 415.200195312 c 1,36,37
 1056 188 1056 188 1347.56738281 188 c 2,0,1
743.48046875 804.200195312 m 0,38,39
 576 785 576 785 543.48046875 753.568359375 c 1,40,41
 544 711 544 711 544.48046875 668.200195312 c 1,42,43
 630 603 630 603 716.227539062 537.823242188 c 1,44,45
 877 601 877 601 965.466796875 651.90234375 c 0,46,47
 1042 696 1042 696 1041.60351562 738.913085938 c 0,48,49
 1041 784 1041 784 874.98046875 804.200195312 c 0,50,51
 812 812 812 812 743.48046875 804.200195312 c 0,38,39
EndSplineSet
EndChar

StartChar: uniFECB
Encoding: 65227 65227 211
Width: 1070
VWidth: 2469
GlyphClass: 2
Flags: W
AnchorPoint: "Anchor-10" 353.774 1366.36 basechar 0
AnchorPoint: "Anchor-7" 517.778 -307.026 basechar 0
LayerCount: 2
Fore
SplineSet
20.0927734375 0 m 2,0,1
 -4.947265625 0 l 2,2,3
 -80 0 -80 0 -80 92 c 2,4,-1
 -80 98 l 2,5,6
 -80 188 -80 188 -4.947265625 188 c 2,7,-1
 38.8798828125 188 l 6,8,-1
 275.309570312 193.481445312 l 1,9,10
 78 319 78 319 72.169921875 469.265625 c 0,11,12
 67 603 67 603 157.989257812 716.365234375 c 0,13,14
 273 861 273 861 460.850585938 860.759765625 c 0,15,16
 622 861 622 861 699.190429688 770.306640625 c 0,17,18
 730 734 730 734 744.3359375 684.645507812 c 0,19,20
 768 603 768 603 714.309570312 639.784179688 c 0,21,22
 635 693 635 693 505.229492188 692.4453125 c 0,23,24
 380 692 380 692 294.909179688 617.10546875 c 0,25,26
 219 550 219 550 225.5 462.5 c 128,-1,27
 232 375 232 375 429.669921875 230.60546875 c 1,28,29
 717 294 717 294 844.309570312 314.21484375 c 0,30,31
 907 324 907 324 894.309570312 285.645507812 c 2,32,-1
 847.309570312 137.645507812 l 1,33,34
 664 100 664 100 400 42 c 0,35,36
 208 0 208 0 20.0927734375 0 c 2,0,1
EndSplineSet
EndChar

StartChar: uniFECC
Encoding: 65228 65228 212
Width: 1125
VWidth: 2472
GlyphClass: 2
Flags: W
AnchorPoint: "Anchor-10" 491.108 1198.97 basechar 0
AnchorPoint: "Anchor-7" 532.321 -253.778 basechar 0
LayerCount: 2
Fore
SplineSet
1049.09375 0 m 2,0,1
 779 0 779 0 556.934570312 166.5390625 c 1,2,3
 364 0 364 0 30.0927734375 0 c 2,4,-1
 -4.947265625 0 l 2,5,6
 -80 0 -80 0 -80 92 c 2,7,-1
 -80 98 l 2,8,9
 -80 188 -80 188 -4.947265625 188 c 2,10,-1
 28.8798828125 188 l 2,11,12
 255 188 255 188 411 269 c 1,13,14
 286 344 286 344 160 420 c 1,15,-1
 162 639 l 1,16,17
 322 804 322 804 596 803 c 0,18,19
 770 803 770 803 885 724 c 0,20,21
 977 661 977 661 960.111328125 555.310546875 c 0,22,23
 941 432 941 432 680 259 c 1,24,25
 780 188 780 188 1053.56738281 188 c 2,26,-1
 1130 188 l 2,27,28
 1205.05273438 188 1205.05273438 188 1205.05273438 98 c 2,29,-1
 1205.05273438 92 l 2,30,31
 1205 0 1205 0 1130 0 c 2,32,-1
 1049.09375 0 l 2,0,1
514 628 m 0,33,34
 371 611 371 611 314 557.368164062 c 1,35,36
 314 516 314 516 315 485 c 5,37,38
 426 421 426 421 537.747070312 356.623046875 c 1,39,40
 663 415 663 415 735.986328125 475.702148438 c 0,41,42
 812 539 812 539 812.123046875 562.712890625 c 0,43,44
 812 606 812 606 645.5 628 c 0,45,46
 583 636 583 636 514 628 c 0,33,34
EndSplineSet
EndChar

StartChar: uniFEDA
Encoding: 65242 65242 226
Width: 1889
VWidth: 2448
GlyphClass: 2
Flags: W
AnchorPoint: "Anchor-10" 605.559 1564.29 basechar 0
AnchorPoint: "Anchor-7" 641.047 -309.244 basechar 0
LayerCount: 2
Fore
SplineSet
1101.28222656 1284.37402344 m 1,0,-1
 1101.28222656 1175.19238281 l 1,1,-1
 1078.25878906 1173.36621094 l 2,2,3
 909.323242188 1159.96777344 909.323242188 1159.96777344 870.751953125 1094.53222656 c 0,4,5
 853.471679688 1065.21777344 853.471679688 1065.21777344 882.643554688 1025.62988281 c 0,6,7
 895.979492188 1007.28613281 895.979492188 1007.28613281 952.327148438 999.318359375 c 0,8,9
 1040.99414062 986.780273438 1040.99414062 986.780273438 1076.50878906 954.374023438 c 128,-1,10
 1112.02441406 921.966796875 1112.02441406 921.966796875 1111.8984375 865.338867188 c 0,11,12
 1112.01367188 739.249023438 1112.01367188 739.249023438 996.887695312 675.719726562 c 0,13,14
 907.370117188 625.936523438 907.370117188 625.936523438 797.87890625 627 c 0,15,16
 726.913085938 627 726.913085938 627 665.01953125 637.404296875 c 2,17,-1
 644.1640625 640.91015625 l 1,18,-1
 644.1640625 757.391601562 l 1,19,-1
 672.350585938 753.76953125 l 2,20,21
 905.931640625 723.755859375 905.931640625 723.755859375 980.518554688 800.833984375 c 0,22,23
 1022.73730469 844.462890625 1022.73730469 844.462890625 980.513671875 879.369140625 c 0,24,25
 960.274414062 896.102539062 960.274414062 896.102539062 897.591796875 905.303710938 c 128,-1,26
 834.909179688 914.505859375 834.909179688 914.505859375 793.362304688 957.231445312 c 128,-1,27
 751.815429688 999.95703125 751.815429688 999.95703125 753.181640625 1076.03417969 c 0,28,29
 755.3203125 1177.47460938 755.3203125 1177.47460938 850.803710938 1226.05078125 c 128,-1,30
 946.286132812 1274.62695312 946.286132812 1274.62695312 1074.71289062 1282.70410156 c 2,31,-1
 1101.28222656 1284.37402344 l 1,0,-1
1622.8125 284 m 1,32,33
 1624.61621094 281.571289062 l 2,34,35
 1690.39396605 193.001025416 1690.39396605 193.001025416 1874.53710938 192.689453125 c 2,36,-1
 1905.13574219 192.689453125 l 1,37,-1
 1905.13574219 -0.64453125 l 1,38,-1
 1866.80664062 -0.64453125 l 2,39,40
 1682.69498488 -0.64453125 1682.69498488 -0.64453125 1550 154 c 1,41,42
 1528 130 1528 130 1484.55761719 102.173828125 c 0,43,44
 1264 -39 1264 -39 832.400390625 -43.2001953125 c 0,45,46
 478 -46 478 -46 292.400390625 73.4404296875 c 0,47,48
 110 191 110 191 112.040039062 455.759765625 c 0,49,50
 113 587 113 587 150.919921875 671.759765625 c 0,51,52
 173 721 173 721 202.759765625 717.66015625 c 0,53,54
 233 714 233 714 217.145507812 643.064453125 c 0,55,56
 203 578 203 578 204.919921875 490.3203125 c 0,57,58
 211 228 211 228 586.16015625 170.639648438 c 0,59,60
 723 150 723 150 881 150.458984375 c 0,61,62
 1131 151 1131 151 1333.80078125 208.71875 c 0,63,64
 1532 265 1532 265 1523 424 c 2,65,-1
 1480.24316406 1190.1328125 l 2,66,67
 1466.34474991 1439.16974164 1466.34474991 1439.16974164 1631.0546875 1520.26660156 c 6,68,-1
 1648.37792969 1528.77734375 l 5,69,-1
 1648.37792969 464.50390625 l 0,70,71
 1648 362 1648 362 1622.8125 284 c 1,32,33
EndSplineSet
EndChar

StartChar: uniFEDB
Encoding: 65243 65243 227
Width: 948
VWidth: 2449
GlyphClass: 2
Flags: W
AnchorPoint: "Anchor-10" 254.371 1481.47 basechar 0
AnchorPoint: "Anchor-7" 324.999 -310.351 basechar 0
LayerCount: 2
Fore
SplineSet
20.0927734375 0 m 6,0,1
 -4.947265625 0 l 6,2,3
 -80 0 -80 0 -80 92 c 6,4,-1
 -80 98 l 6,5,6
 -80 188 -80 188 -4.947265625 188 c 6,7,-1
 18.8798828125 188 l 6,8,9
 270.864161122 188 270.864161122 188 392.040039062 253.799804688 c 0,10,11
 464 293 464 293 456.149414062 341.020507812 c 0,12,13
 449 381 449 381 406.080078125 441.719726562 c 0,14,15
 56 923 56 923 38.1103515625 993.353515625 c 0,16,17
 -6.03919292941 1168.15517689 -6.03919292941 1168.15517689 169.651367188 1234.81738281 c 2,18,-1
 904.14453125 1513.50585938 l 1,19,-1
 904.14453125 1489.35644531 l 2,20,21
 904.00030613 1304.39260128 904.00030613 1304.39260128 666.360351562 1228.71972656 c 2,22,-1
 185.759765625 1075.6796875 l 1,23,24
 272 904 272 904 569.16015625 451.440429688 c 1,25,26
 613 384 613 384 601.7890625 294.610351562 c 0,27,28
 594 231 594 231 550.491210938 178.015625 c 16,29,30
 411 0 411 0 20.0927734375 0 c 6,0,1
EndSplineSet
EndChar

StartChar: uniFEDC
Encoding: 65244 65244 228
Width: 965
VWidth: 2449
GlyphClass: 2
Flags: W
AnchorPoint: "Anchor-10" 248.625 1432.83 basechar 0
AnchorPoint: "Anchor-7" 329.765 -299.492 basechar 0
LayerCount: 2
Fore
SplineSet
929.09375 0 m 6,0,1
 724 0 724 0 559.440429688 218.16015625 c 1,2,3
 446 0 446 0 20.0927734375 0 c 2,4,-1
 -4.947265625 0 l 2,5,6
 -80 0 -80 0 -80 92 c 2,7,-1
 -80 98 l 2,8,9
 -80 188 -80 188 -4.947265625 188 c 2,10,-1
 18.8798828125 188 l 2,11,12
 275 188 275 188 392.040039062 253.799804688 c 0,13,14
 462 293 462 293 456.149414062 341.020507812 c 0,15,16
 451 379 451 379 412.559570312 433.080078125 c 0,17,18
 76 907 76 907 41.0400390625 1002.24023438 c 0,19,20
 -19 1165 -19 1165 169.961914062 1236.73046875 c 2,21,-1
 903.403320312 1516.36816406 l 1,22,-1
 903.403320312 1492.21875 l 2,23,24
 903.403320312 1304.12724209 903.403320312 1304.12724209 660.959960938 1227.63964844 c 2,25,-1
 186.0703125 1077.59277344 l 1,26,27
 455 599 455 599 696.288085938 296.665039062 c 0,28,29
 783 188 783 188 953.567382812 188 c 2,30,-1
 970 188 l 2,31,32
 1045 188 1045 188 1045.05273438 98 c 2,33,-1
 1045.05273438 92 l 2,34,35
 1045.05273438 0 1045.05273438 0 970 0 c 2,36,-1
 929.09375 0 l 6,0,1
EndSplineSet
EndChar

StartChar: uniFEDE
Encoding: 65246 65246 230
Width: 1474
VWidth: 2461
GlyphClass: 2
Flags: W
AnchorPoint: "Anchor-7" 256.771 -598.004 basechar 0
LayerCount: 2
Fore
SplineSet
1442.56738281 188 m 6,0,1
 1479 188 l 2,2,3
 1554 188 1554 188 1554.05273438 98 c 2,4,-1
 1554.05273438 92 l 2,5,6
 1554.05273438 0 1554.05273438 0 1479 0 c 2,7,-1
 1438.09375 0 l 6,8,9
 1297 0 1297 0 1206.4921875 91.4970703125 c 1,10,11
 1206 50 1206 50 1204.25195312 13.7373046875 c 0,12,13
 1178 -522 1178 -522 636.391601562 -522.719726562 c 0,14,15
 309 -523 309 -523 167.788085938 -336.904296875 c 0,16,17
 89 -234 89 -234 91.2353515625 -63 c 0,18,19
 93 124 93 124 173.83984375 315.360351562 c 0,20,21
 216 416 216 416 254.83984375 408.100585938 c 0,22,23
 287 402 287 402 263.896484375 336.959960938 c 0,24,25
 159 41 159 41 247.143554688 -133.298828125 c 0,26,27
 350 -337 350 -337 641.08984375 -337.14453125 c 0,28,29
 1090 -338 1090 -338 1106.1875 3.4453125 c 24,30,31
 1109 74 1109 74 1101.06738281 189.528320312 c 2,32,-1
 1038.85449219 1096.71289062 l 2,33,34
 1016.32948701 1425.17114005 1016.32948701 1425.17114005 1177.01953125 1508.63574219 c 2,35,-1
 1206.41601562 1523.95019531 l 1,36,-1
 1206.41601562 509.20703125 l 2,37,38
 1206.41601562 188 1206.41601562 188 1442.56738281 188 c 6,0,1
EndSplineSet
EndChar

StartChar: uniFEDF
Encoding: 65247 65247 231
Width: 525
VWidth: 2448
GlyphClass: 2
Flags: W
AnchorPoint: "Anchor-10" 275.844 1626.41 basechar 0
AnchorPoint: "Anchor-7" 199.143 -270.325 basechar 0
LayerCount: 2
Fore
SplineSet
20.0927734375 0 m 6,0,1
 -4.947265625 0 l 2,2,3
 -80 0 -80 0 -80 92 c 2,4,-1
 -80 98 l 2,5,6
 -80 188 -80 188 -4.947265625 188 c 2,7,-1
 18.8798828125 188 l 6,8,9
 149 188 149 188 221.813476562 284.8671875 c 0,10,11
 276 358 276 358 264.171875 514.48046875 c 2,12,-1
 215.345703125 1141.69433594 l 2,13,14
 192.905911437 1429.95262003 192.905911437 1429.95262003 368.177734375 1518.21386719 c 2,15,-1
 385.103515625 1526.69335938 l 1,16,-1
 385.103515625 499.78125 l 2,17,18
 385.103515625 264.14938225 385.103515625 264.14938225 309.03515625 154.375976562 c 0,19,20
 202 0 202 0 20.0927734375 0 c 6,0,1
EndSplineSet
EndChar

StartChar: uniFEE0
Encoding: 65248 65248 232
Width: 663
VWidth: 2448
GlyphClass: 2
Flags: W
AnchorPoint: "Anchor-10" 298.005 1607.39 basechar 0
AnchorPoint: "Anchor-7" 259.081 -327.53 basechar 0
LayerCount: 2
Fore
SplineSet
-4.947265625 0 m 2,0,1
 -80 0 -80 0 -80 92 c 2,2,-1
 -80 98 l 2,3,4
 -80 188 -80 188 -4.947265625 188 c 1026,5,-1
611.567382812 188 m 2,6,-1
 668 188 l 6,7,8
 743 188 743 188 743.052734375 98 c 2,9,-1
 743.052734375 92 l 2,10,11
 743.052734375 0 743.052734375 0 668 0 c 2,12,-1
 607.09375 0 l 2,13,14
 444 0 444 0 324.248046875 142.651367188 c 1,15,16
 199 0 199 0 20.0927734375 0 c 2,17,-1
 -4.947265625 0 l 2,18,19
 -80 0 -80 0 -80 92 c 2,20,-1
 -80 98 l 2,21,22
 -80 188 -80 188 -4.947265625 188 c 2,23,-1
 18.8798828125 188 l 2,24,25
 303 188 303 188 281.473632812 458.166992188 c 2,26,-1
 228.08203125 1138.99414062 l 2,27,28
 205.591171984 1425.78807696 205.591171984 1425.78807696 373.561523438 1512.85839844 c 2,29,-1
 398.10546875 1525.50488281 l 1,30,-1
 398.10546875 458.166992188 l 2,31,32
 398.10546875 188 398.10546875 188 611.567382812 188 c 2,6,-1
EndSplineSet
EndChar

StartChar: uniFEE2
Encoding: 65250 65250 234
Width: 1226
VWidth: 2498
GlyphClass: 2
Flags: W
AnchorPoint: "Anchor-10" 509.958 1146.14 basechar 0
AnchorPoint: "Anchor-7" 202.103 -830.682 basechar 0
LayerCount: 2
Fore
SplineSet
1214.56738281 188 m 6,0,1
 1231 188 l 6,2,3
 1306 188 1306 188 1306.05273438 98 c 6,4,-1
 1306.05273438 92 l 6,5,6
 1306.05273438 0 1306.05273438 0 1231 0 c 6,7,-1
 1210.09375 0 l 6,8,9
 1065 0 1065 0 1005 77 c 1,10,11
 914 -143 914 -143 745 -141.741210938 c 0,12,13
 399 -139 399 -139 443.198242188 418.432617188 c 1,14,15
 306 406 306 406 265.6796875 286.440429688 c 0,16,17
 226 169 226 169 237.69921875 9.73828125 c 2,18,-1
 263.018554688 -330.755859375 l 2,19,20
 278.951675411 -545.024284949 278.951675411 -545.024284949 129.137695312 -620.311523438 c 2,21,-1
 98.7568359375 -635.518554688 l 1,22,-1
 101.997070312 77.7578125 l 2,23,24
 104.178701916 558.002784049 104.178701916 558.002784049 503.23046875 564.219726562 c 1,25,26
 534 648 534 648 577.490234375 698.073242188 c 1,27,28
 617 648 617 648 719 575.024414062 c 0,29,30
 935 421 935 421 1026 277 c 0,31,32
 1082 188 1082 188 1214.56738281 188 c 6,0,1
589.275390625 488.396484375 m 1,33,34
 542 247 542 247 603 113 c 0,35,36
 644 24 644 24 757.346679688 25.248046875 c 0,37,38
 855.608602368 25.9895009439 855.608602368 25.9895009439 891 128 c 0,39,40
 923.602986916 221.973315229 923.602986916 221.973315229 717.776367188 386.897460938 c 0,41,42
 654 438 654 438 589.275390625 488.396484375 c 1,33,34
EndSplineSet
EndChar

StartChar: uniFEE3
Encoding: 65251 65251 235
Width: 973
VWidth: 2477
GlyphClass: 2
Flags: W
AnchorPoint: "Anchor-10" 410.35 1092.82 basechar 0
AnchorPoint: "Anchor-7" 369.138 -258.05 basechar 0
LayerCount: 2
Fore
SplineSet
10.0927734375 0 m 6,0,1
 -4.947265625 0 l 6,2,3
 -80 0 -80 0 -80 92 c 6,4,-1
 -80 98 l 6,5,6
 -80 188 -80 188 -4.947265625 188 c 6,7,-1
 8.8798828125 188 l 6,8,9
 103 188 103 188 223.099609375 377.296875 c 0,10,11
 297 493 297 493 394.51953125 603.759765625 c 0,12,13
 467 686 467 686 582 685 c 0,14,15
 778 683 778 683 852.400390625 399.3203125 c 0,16,17
 913 164 913 164 798 52 c 0,18,19
 734 -10 734 -10 637 -12.9942499868 c 0,20,21
 546 -15 546 -15 453 20 c 0,22,23
 321 69 321 69 245.16015625 137.16015625 c 1,24,25
 154 0 154 0 10.0927734375 0 c 6,0,1
496 202.959960938 m 0,26,27
 633.473252647 140.32880385 633.473252647 140.32880385 703.524414062 185.990234375 c 0,28,29
 759 222 759 222 724.959960938 331.559570312 c 0,30,31
 681 477 681 477 613.440429688 516.240234375 c 0,32,33
 542 557 542 557 464.400390625 464.400390625 c 0,34,35
 395 381 395 381 340.19921875 290.6796875 c 1,36,37
 415 240 415 240 496 202.959960938 c 0,26,27
EndSplineSet
EndChar

StartChar: uniFEE4
Encoding: 65252 65252 236
Width: 1083
VWidth: 2477
GlyphClass: 2
Flags: W
AnchorPoint: "Anchor-10" 462.481 1053.89 basechar 0
AnchorPoint: "Anchor-7" 421.27 -268.353 basechar 0
LayerCount: 2
Fore
SplineSet
1071.56738281 188 m 6,0,1
 1088 188 l 6,2,3
 1163 188 1163 188 1163.05273438 98 c 6,4,-1
 1163.05273438 92 l 6,5,6
 1163.05273438 0 1163.05273438 0 1088 0 c 6,7,-1
 1067.09375 0 l 6,8,9
 916 0 916 0 850.817382812 103 c 1,10,11
 832 55 832 55 798 22 c 0,12,13
 735 -39 735 -39 640 -43.130859375 c 0,14,15
 561 -47 561 -47 464 -13.5927734375 c 0,16,17
 328 34 328 34 245.16015625 107.16015625 c 1,18,19
 126 0 126 0 10.0927734375 0 c 2,20,-1
 -4.947265625 0 l 2,21,22
 -80 0 -80 0 -80 92 c 2,23,-1
 -80 98 l 2,24,25
 -80 188 -80 188 -4.947265625 188 c 2,26,-1
 8.8798828125 188 l 2,27,28
 120 188 120 188 223.099609375 347.296875 c 0,29,30
 302 469 302 469 394.51953125 573.759765625 c 0,31,32
 467 656 467 656 582 655 c 0,33,34
 776 653 776 653 852.400390625 369.3203125 c 8,35,36
 901 188 901 188 1071.56738281 188 c 6,0,1
496 173.959960938 m 0,37,38
 643 111 643 111 703.524414062 155.990234375 c 0,39,40
 754 194 754 194 724.959960938 291.559570312 c 0,41,42
 677 449 677 449 613.440429688 486.240234375 c 0,43,44
 542 527 542 527 464.400390625 434.400390625 c 0,45,46
 395 351 395 351 340.19921875 260.6796875 c 1,47,48
 410 211 410 211 496 173.959960938 c 0,37,38
EndSplineSet
EndChar

StartChar: uniFEEA
Encoding: 65258 65258 242
Width: 1055
VWidth: 2465
GlyphClass: 2
Flags: W
AnchorPoint: "Anchor-10" 575.893 1304.8 basechar 0
AnchorPoint: "Anchor-7" 362.21 -243.746 basechar 0
LayerCount: 2
Fore
SplineSet
1043.56738281 188 m 2,0,1
 1060 188 l 2,2,3
 1135.05273438 188 1135.05273438 188 1135.05273438 98 c 2,4,-1
 1135.05273438 92 l 2,5,6
 1135 0 1135 0 1060 0 c 2,7,-1
 1039.09375 0 l 2,8,9
 782 0 782 0 700.787109375 217.73046875 c 1,10,11
 419 161 419 161 239.860351562 249.33203125 c 0,12,13
 106 315 106 315 104.216796875 429.260742188 c 0,14,15
 100 727 100 727 609.970703125 796.536132812 c 1,16,17
 603 853 603 853 601.95703125 865.731445312 c 0,18,19
 596.029093988 949.588434534 596.029093988 949.588434534 701.751953125 978.340820312 c 6,20,-1
 721.07421875 983.595703125 l 5,21,-1
 798.158203125 421.33984375 l 6,22,23
 830 188 830 188 1043.56738281 188 c 2,0,1
676.508789062 382.196289062 m 1,24,-1
 630.755859375 644.092773438 l 1,25,26
 243.424804688 591.022460938 243.424804688 591.022460938 259.462890625 463.104492188 c 0,27,28
 266.161132812 412.822265625 266.161132812 412.822265625 326.416992188 387.244140625 c 0,29,30
 486.6171875 317.06640625 486.6171875 317.06640625 676.508789062 382.196289062 c 1,24,-1
EndSplineSet
EndChar

StartChar: uniFEEB
Encoding: 65259 65259 243
Width: 1163
VWidth: 2469
GlyphClass: 2
Flags: W
AnchorPoint: "Anchor-10" 605.718 1362.26 basechar 0
AnchorPoint: "Anchor-7" 403.937 -291.033 basechar 0
LayerCount: 2
Fore
SplineSet
-4.947265625 188 m 2,0,1
 213.719726562 188.040039062 l 5,2,3
 113 281 113 281 116 421.569335938 c 0,4,5
 121 667 121 667 397.233398438 774.1328125 c 1,6,7
 387 778 387 778 377.12890625 782.493164062 c 0,8,9
 317.464909321 809.787320521 317.464909321 809.787320521 360.176757812 932.217773438 c 2,10,-1
 366.186523438 949.444335938 l 1,11,-1
 688.142578125 752.556640625 l 2,12,13
 1064 523 1064 523 1062.609375 304 c 0,14,15
 1062 206 1062 206 1015.48925781 126 c 0,16,17
 954 20 954 20 806 0 c 0,18,19
 638 -23 638 -23 364.465820312 79.2060546875 c 1,20,21
 218 -3 218 -3 38.0009765625 0 c 1,22,-1
 -4.947265625 0 l 2,23,24
 -80 0 -80 0 -80 92 c 2,25,-1
 -80 98 l 2,26,27
 -80 188 -80 188 -4.947265625 188 c 2,0,1
716.838867188 552.302734375 m 1,28,29
 708 352 708 352 537.75 203.987304688 c 1,30,31
 696 154 696 154 783 154.296801742 c 0,32,33
 943 155 943 155 943.634765625 284 c 0,34,35
 944 412 944 412 716.838867188 552.302734375 c 1,28,29
565.919921875 424.440429688 m 0,36,37
 651 570 651 570 548.6171875 635.520507812 c 0,38,39
 509 661 509 661 462 661 c 0,40,41
 363 661 363 661 300.240234375 584.280273438 c 0,42,43
 243 515 243 515 241 439 c 0,44,45
 238 345 238 345 396 256 c 1,46,47
 521 347 521 347 565.919921875 424.440429688 c 0,36,37
EndSplineSet
EndChar

StartChar: uniFEEC
Encoding: 65260 65260 244
Width: 997
VWidth: 2489
GlyphClass: 2
Flags: W
AnchorPoint: "Anchor-7" 282.605 -800.244 basechar 0
AnchorPoint: "Anchor-10" 442.739 1232.91 basechar 0
LayerCount: 2
Fore
SplineSet
985.567382812 188 m 6,0,1
 1002 188 l 6,2,3
 1077 188 1077 188 1077.05273438 98 c 6,4,-1
 1077.05273438 92 l 6,5,6
 1077.05273438 0 1077.05273438 0 1002 0 c 6,7,-1
 981.09375 0 l 6,8,9
 531 0 531 0 685 -428 c 1,10,-1
 576.760742188 -546.600585938 l 1,11,12
 289 -330 289 -330 202.40625 -0.1376953125 c 1,13,-1
 -4.947265625 0 l 2,14,15
 -80 0.0498395683459 -80 0.0498395683459 -80 92 c 2,16,-1
 -80 98 l 2,17,18
 -80 188 -80 188 -4.947265625 188 c 2,19,-1
 200.303710938 188.376953125 l 1,20,21
 232 585 232 585 380.156740444 832 c 0,22,23
 413 887 413 887 463.004050455 848 c 0,24,25
 702.979961718 660.833951368 702.979961718 660.833951368 701 348 c 0,26,27
 700 189 700 189 596 96 c 0,28,29
 488 0 488 0 316.806640625 -0.1376953125 c 1,30,31
 380 -192 380 -192 506 -284 c 1,32,33
 615 188 615 188 985.567382812 188 c 6,0,1
309.758789062 188.21875 m 1,34,-1
 355.571289062 188.623046875 l 2,35,36
 459 190 459 190 509 223 c 0,37,38
 582 271 582 271 581.180664062 350 c 0,39,40
 579 515 579 515 444 638 c 1,41,42
 345 472 345 472 309.758789062 188.21875 c 1,34,-1
EndSplineSet
EndChar

StartChar: uniFEEE
Encoding: 65262 65262 246
Width: 925
VWidth: 2491
GlyphClass: 2
Flags: W
AnchorPoint: "Anchor-10" 401.721 1207.94 basechar 0
AnchorPoint: "Anchor-7" 604.94 -707.58 basechar 0
LayerCount: 2
Fore
SplineSet
817.626953125 188 m 13,0,1
 930 188 l 6,2,3
 1005 188 1005 188 1005.05273438 98 c 6,4,-1
 1005.05273438 92 l 6,5,6
 1005.05273438 0 1005.05273438 0 930 0 c 6,7,-1
 813.959960938 0 l 21,8,9
 770 -254 770 -254 598 -381 c 24,10,11
 492 -459 492 -459 406 -459 c 0,12,13
 269 -459 269 -459 104 -418.690429688 c 0,14,15
 47 -405 47 -405 39.65234375 -371 c 0,16,17
 34 -345 34 -345 120 -330.262695312 c 0,18,19
 541 -258 541 -258 657 -75.505859375 c 0,20,21
 680 -39 680 -39 692.854492188 1 c 1,22,23
 606 -4 606 -4 526.349609375 -4.7265625 c 0,24,25
 333 -6 333 -6 261.284179688 79.7919921875 c 0,26,27
 193 161 193 161 211.59765625 296.192382812 c 0,28,29
 241 510 241 510 357.521484375 616.749023438 c 0,30,31
 431 684 431 684 523.481445312 683.17578125 c 0,32,33
 664.409520837 681.996573357 664.409520837 681.996573357 744.120117188 517.3203125 c 0,34,35
 811 379.151367188 811 379.151367188 817.626953125 188 c 13,0,1
495.267578125 508.27734375 m 0,36,37
 385 499 385 499 344.9375 309.765625 c 0,38,39
 317 177 317 177 522.51953125 182.217773438 c 0,40,41
 609 184 609 184 694.819335938 186.125976562 c 1,42,43
 681 326 681 326 636.850585938 415.609375 c 0,44,45
 587 516 587 516 495.267578125 508.27734375 c 0,36,37
EndSplineSet
PairPos2: "'kern' Horizontal Kerning lookup 15-1" uniFB90 dx=-150 dy=0 dh=-150 dv=0 dx=0 dy=0 dh=0 dv=0
PairPos2: "'kern' Horizontal Kerning lookup 15-1" uniFB8E dx=-150 dy=0 dh=-150 dv=0 dx=0 dy=0 dh=0 dv=0
PairPos2: "'kern' Horizontal Kerning lookup 15-1" uni06A9 dx=-150 dy=0 dh=-150 dv=0 dx=0 dy=0 dh=0 dv=0
PairPos2: "'kern' Horizontal Kerning lookup 15-1" uni064A dx=-50 dy=0 dh=-50 dv=0 dx=0 dy=0 dh=0 dv=0
PairPos2: "'kern' Horizontal Kerning lookup 15-1" afii57414 dx=-50 dy=0 dh=-50 dv=0 dx=0 dy=0 dh=0 dv=0
PairPos2: "'kern' Horizontal Kerning lookup 15-1" uni0649 dx=-50 dy=0 dh=-50 dv=0 dx=0 dy=0 dh=0 dv=0
PairPos2: "'kern' Horizontal Kerning lookup 15-1" uni0648 dx=-50 dy=0 dh=-50 dv=0 dx=0 dy=0 dh=0 dv=0
PairPos2: "'kern' Horizontal Kerning lookup 15-1" afii57412 dx=-50 dy=0 dh=-50 dv=0 dx=0 dy=0 dh=0 dv=0
PairPos2: "'kern' Horizontal Kerning lookup 15-1" uniFEEB dx=-50 dy=0 dh=-50 dv=0 dx=0 dy=0 dh=0 dv=0
PairPos2: "'kern' Horizontal Kerning lookup 15-1" uni0647 dx=-50 dy=0 dh=-50 dv=0 dx=0 dy=0 dh=0 dv=0
PairPos2: "'kern' Horizontal Kerning lookup 15-1" uniFEE7 dx=-50 dy=0 dh=-50 dv=0 dx=0 dy=0 dh=0 dv=0
PairPos2: "'kern' Horizontal Kerning lookup 15-1" uni0646 dx=-50 dy=0 dh=-50 dv=0 dx=0 dy=0 dh=0 dv=0
PairPos2: "'kern' Horizontal Kerning lookup 15-1" uniFEE3 dx=-50 dy=0 dh=-50 dv=0 dx=0 dy=0 dh=0 dv=0
PairPos2: "'kern' Horizontal Kerning lookup 15-1" uni0645 dx=-50 dy=0 dh=-50 dv=0 dx=0 dy=0 dh=0 dv=0
PairPos2: "'kern' Horizontal Kerning lookup 15-1" uniFEFB dx=-50 dy=0 dh=-50 dv=0 dx=0 dy=0 dh=0 dv=0
PairPos2: "'kern' Horizontal Kerning lookup 15-1" uniFEDF dx=-50 dy=0 dh=-50 dv=0 dx=0 dy=0 dh=0 dv=0
PairPos2: "'kern' Horizontal Kerning lookup 15-1" uni0644 dx=-50 dy=0 dh=-50 dv=0 dx=0 dy=0 dh=0 dv=0
PairPos2: "'kern' Horizontal Kerning lookup 15-1" uniFEDB dx=-150 dy=0 dh=-150 dv=0 dx=0 dy=0 dh=0 dv=0
PairPos2: "'kern' Horizontal Kerning lookup 15-1" uni0643 dx=-50 dy=0 dh=-50 dv=0 dx=0 dy=0 dh=0 dv=0
PairPos2: "'kern' Horizontal Kerning lookup 15-1" uniFED7 dx=-50 dy=0 dh=-50 dv=0 dx=0 dy=0 dh=0 dv=0
PairPos2: "'kern' Horizontal Kerning lookup 15-1" uni0642 dx=-50 dy=0 dh=-50 dv=0 dx=0 dy=0 dh=0 dv=0
PairPos2: "'kern' Horizontal Kerning lookup 15-1" uniFED3 dx=-50 dy=0 dh=-50 dv=0 dx=0 dy=0 dh=0 dv=0
PairPos2: "'kern' Horizontal Kerning lookup 15-1" uni0641 dx=-50 dy=0 dh=-50 dv=0 dx=0 dy=0 dh=0 dv=0
PairPos2: "'kern' Horizontal Kerning lookup 15-1" uniFECF dx=-50 dy=0 dh=-50 dv=0 dx=0 dy=0 dh=0 dv=0
PairPos2: "'kern' Horizontal Kerning lookup 15-1" uniFECB dx=-50 dy=0 dh=-50 dv=0 dx=0 dy=0 dh=0 dv=0
PairPos2: "'kern' Horizontal Kerning lookup 15-1" uniFEC7 dx=-50 dy=0 dh=-50 dv=0 dx=0 dy=0 dh=0 dv=0
PairPos2: "'kern' Horizontal Kerning lookup 15-1" uni0638 dx=-50 dy=0 dh=-50 dv=0 dx=0 dy=0 dh=0 dv=0
PairPos2: "'kern' Horizontal Kerning lookup 15-1" uniFEC3 dx=-50 dy=0 dh=-50 dv=0 dx=0 dy=0 dh=0 dv=0
PairPos2: "'kern' Horizontal Kerning lookup 15-1" uni0637 dx=-50 dy=0 dh=-50 dv=0 dx=0 dy=0 dh=0 dv=0
PairPos2: "'kern' Horizontal Kerning lookup 15-1" uniFEBF dx=-50 dy=0 dh=-50 dv=0 dx=0 dy=0 dh=0 dv=0
PairPos2: "'kern' Horizontal Kerning lookup 15-1" uni0636 dx=-50 dy=0 dh=-50 dv=0 dx=0 dy=0 dh=0 dv=0
PairPos2: "'kern' Horizontal Kerning lookup 15-1" uniFEBB dx=-50 dy=0 dh=-50 dv=0 dx=0 dy=0 dh=0 dv=0
PairPos2: "'kern' Horizontal Kerning lookup 15-1" uni0635 dx=-50 dy=0 dh=-50 dv=0 dx=0 dy=0 dh=0 dv=0
PairPos2: "'kern' Horizontal Kerning lookup 15-1" uniFEB7 dx=-50 dy=0 dh=-50 dv=0 dx=0 dy=0 dh=0 dv=0
PairPos2: "'kern' Horizontal Kerning lookup 15-1" uni0634 dx=-50 dy=0 dh=-50 dv=0 dx=0 dy=0 dh=0 dv=0
PairPos2: "'kern' Horizontal Kerning lookup 15-1" uniFEB3 dx=-50 dy=0 dh=-50 dv=0 dx=0 dy=0 dh=0 dv=0
PairPos2: "'kern' Horizontal Kerning lookup 15-1" uni0633 dx=-50 dy=0 dh=-50 dv=0 dx=0 dy=0 dh=0 dv=0
PairPos2: "'kern' Horizontal Kerning lookup 15-1" uni0632 dx=-50 dy=0 dh=-50 dv=0 dx=0 dy=0 dh=0 dv=0
PairPos2: "'kern' Horizontal Kerning lookup 15-1" uni0631 dx=-50 dy=0 dh=-50 dv=0 dx=0 dy=0 dh=0 dv=0
PairPos2: "'kern' Horizontal Kerning lookup 15-1" uni0630 dx=-50 dy=0 dh=-50 dv=0 dx=0 dy=0 dh=0 dv=0
PairPos2: "'kern' Horizontal Kerning lookup 15-1" uni062F dx=-50 dy=0 dh=-50 dv=0 dx=0 dy=0 dh=0 dv=0
PairPos2: "'kern' Horizontal Kerning lookup 15-1" uniFEA7 dx=-50 dy=0 dh=-50 dv=0 dx=0 dy=0 dh=0 dv=0
PairPos2: "'kern' Horizontal Kerning lookup 15-1" uniFEA3 dx=-50 dy=0 dh=-50 dv=0 dx=0 dy=0 dh=0 dv=0
PairPos2: "'kern' Horizontal Kerning lookup 15-1" uniFE9F dx=-50 dy=0 dh=-50 dv=0 dx=0 dy=0 dh=0 dv=0
PairPos2: "'kern' Horizontal Kerning lookup 15-1" uniFE9B dx=-50 dy=0 dh=-50 dv=0 dx=0 dy=0 dh=0 dv=0
PairPos2: "'kern' Horizontal Kerning lookup 15-1" uni062B dx=-50 dy=0 dh=-50 dv=0 dx=0 dy=0 dh=0 dv=0
PairPos2: "'kern' Horizontal Kerning lookup 15-1" uniFE97 dx=-50 dy=0 dh=-50 dv=0 dx=0 dy=0 dh=0 dv=0
PairPos2: "'kern' Horizontal Kerning lookup 15-1" uni062A dx=-50 dy=0 dh=-50 dv=0 dx=0 dy=0 dh=0 dv=0
PairPos2: "'kern' Horizontal Kerning lookup 15-1" uni0629 dx=-50 dy=0 dh=-50 dv=0 dx=0 dy=0 dh=0 dv=0
PairPos2: "'kern' Horizontal Kerning lookup 15-1" uniFE91 dx=-50 dy=0 dh=-50 dv=0 dx=0 dy=0 dh=0 dv=0
PairPos2: "'kern' Horizontal Kerning lookup 15-1" uni0628 dx=-50 dy=0 dh=-50 dv=0 dx=0 dy=0 dh=0 dv=0
PairPos2: "'kern' Horizontal Kerning lookup 15-1" uni0627 dx=-50 dy=0 dh=-50 dv=0 dx=0 dy=0 dh=0 dv=0
PairPos2: "'kern' Horizontal Kerning lookup 15-1" uni0623 dx=-50 dy=0 dh=-50 dv=0 dx=0 dy=0 dh=0 dv=0
PairPos2: "'kern' Horizontal Kerning lookup 15-1" uni0622 dx=-100 dy=0 dh=-100 dv=0 dx=0 dy=0 dh=0 dv=0
PairPos2: "'kern' Horizontal Kerning lookup 15-1" uni0621 dx=-50 dy=0 dh=-50 dv=0 dx=0 dy=0 dh=0 dv=0
PairPos2: "'kern' Horizontal Kerning lookup 15-1" uniFB94 dx=-150 dy=0 dh=-150 dv=0 dx=0 dy=0 dh=0 dv=0
PairPos2: "'kern' Horizontal Kerning lookup 15-1" uniFB92 dx=-150 dy=0 dh=-150 dv=0 dx=0 dy=0 dh=0 dv=0
PairPos2: "'kern' Horizontal Kerning lookup 15-1" afii57509 dx=-150 dy=0 dh=-150 dv=0 dx=0 dy=0 dh=0 dv=0
PairPos2: "'kern' Horizontal Kerning lookup 15-1" afii57508 dx=-50 dy=0 dh=-50 dv=0 dx=0 dy=0 dh=0 dv=0
PairPos2: "'kern' Horizontal Kerning lookup 15-1" uniFB7C dx=-50 dy=0 dh=-50 dv=0 dx=0 dy=0 dh=0 dv=0
PairPos2: "'kern' Horizontal Kerning lookup 15-1" afii57506 dx=-50 dy=0 dh=-50 dv=0 dx=0 dy=0 dh=0 dv=0
PairPos2: "'kern' Horizontal Kerning lookup 15-1" uniFE8B dx=-50 dy=0 dh=-50 dv=0 dx=0 dy=0 dh=0 dv=0
EndChar

StartChar: uniFEF0
Encoding: 65264 65264 248
Width: 1477
VWidth: 2506
GlyphClass: 2
Flags: W
AnchorPoint: "Anchor-10" 669.247 540.899 basechar 0
AnchorPoint: "Anchor-7" 228.112 -834.444 basechar 0
LayerCount: 2
Fore
SplineSet
1482 0 m 2,0,1
 1156.03808594 0.3466796875 l 2,2,3
 1071.9781057 0.436082425744 1071.9781057 0.436082425744 1073.61230469 -32.11328125 c 0,4,5
 1075 -66 1075 -66 1217.85644531 -88.51171875 c 0,6,7
 1364 -112 1364 -112 1381.56347656 -207.267578125 c 0,8,9
 1394 -276 1394 -276 1355.88085938 -349.1640625 c 0,10,11
 1283 -490 1283 -490 1062.83984375 -580.559570312 c 0,12,13
 882 -655 882 -655 651.930664062 -657.85546875 c 0,14,15
 179 -663 179 -663 105.83984375 -302.400390625 c 0,16,17
 81 -181 81 -181 102.599609375 -39.9599609375 c 0,18,19
 121 78 121 78 180.360351562 193.3203125 c 0,20,21
 254 336 254 336 298.360351562 326.44921875 c 0,22,23
 333 319 333 319 310.736328125 269.025390625 c 0,24,25
 276 192 276 192 258.229492188 133.973632812 c 0,26,27
 233 51 233 51 223.3359375 -43.1474609375 c 0,28,29
 205 -220 205 -220 299.7890625 -339.928710938 c 0,30,31
 407 -476 407 -476 678.87890625 -474.8125 c 0,32,33
 876 -474 876 -474 1053.48046875 -414.021484375 c 0,34,35
 1189 -368 1189 -368 1234.92089844 -312.31640625 c 0,36,37
 1278 -261 1278 -261 1228.16015625 -237.032226562 c 0,38,39
 1202 -224 1202 -224 1104.52148438 -211.846679688 c 0,40,41
 901 -186 901 -186 894.748046875 -56.9853515625 c 0,42,43
 882 188 882 188 1321.48242188 188 c 6,44,-1
 1482 188 l 1,45,46
 1557 188 1557 188 1557.05273438 98 c 2,47,-1
 1557.05273438 92 l 2,48,49
 1557.05273438 -0.0798230019424 1557.05273438 -0.0798230019424 1482 0 c 2,0,1
EndSplineSet
EndChar

StartChar: uniFEFB
Encoding: 65275 65275 259
Width: 1132
VWidth: 2448
GlyphClass: 3
Flags: W
AnchorPoint: "Anchor-9" 925.839 1639.37 baselig 0
AnchorPoint: "Anchor-6" 887.088 -231.465 baselig 0
AnchorPoint: "Anchor-6" 232.132 -262.106 baselig 1
AnchorPoint: "Anchor-9" 193.478 1582.76 baselig 1
LayerCount: 2
Fore
SplineSet
637.896484375 215.865234375 m 1,0,1
 746 232 746 232 812.309570312 316.375976562 c 0,2,3
 882.553142694 404.439778588 882.553142694 404.439778588 871.131835938 554.440429688 c 2,4,-1
 822.305664062 1195.69433594 l 6,5,6
 802.996931238 1444.03946981 802.996931238 1444.03946981 975.137695312 1519.29394531 c 6,7,-1
 992.063476562 1526.69335938 l 5,8,-1
 992.063476562 539.741210938 l 2,9,10
 992 328 992 328 886.830078125 190.015625 c 0,11,12
 741.892071163 -0.1416015625 741.892071163 -0.1416015625 489.4765625 -0.1416015625 c 2,13,14
 310.478515625 -0.1416015625 l 2,15,16
 106.247132911 -0.000171139772476 106.247132911 -0.000171139772476 107.266601562 153.360351562 c 2,17,-1
 107.438476562 179.215820312 l 1,18,19
 450 156 450 156 545.918945312 185.759765625 c 1,20,21
 460 573 460 573 160.41796875 1017.10351562 c 0,22,23
 -19.1716698235 1284.25537059 -19.1716698235 1284.25537059 130.360351562 1400.82714844 c 2,24,-1
 149.353515625 1415.63378906 l 1,25,26
 552 761 552 761 637.896484375 215.865234375 c 1,0,1
EndSplineSet
LCarets2: 1 0
Ligature2: "'rlig' Required Ligatures in Arabic lookup 16 subtable" uniFEDF uniFE8E
EndChar

StartChar: uniFEFC
Encoding: 65276 65276 260
Width: 1330
VWidth: 2448
GlyphClass: 3
Flags: W
AnchorPoint: "Anchor-9" 966.526 1591.34 baselig 0
AnchorPoint: "Anchor-6" 951.471 -252.037 baselig 0
AnchorPoint: "Anchor-6" 256.133 -280.884 baselig 1
AnchorPoint: "Anchor-9" 49.1729 1511.51 baselig 1
LayerCount: 2
Fore
SplineSet
1304.09375 0 m 6,0,1
 1027 0 1027 0 949.020507812 397.043945312 c 1,2,3
 914 284 914 284 820.80078125 180.802734375 c 0,4,5
 654 -2 654 -2 338.375 -0.634765625 c 0,6,7
 102.255078344 0.998235882355 102.255078344 0.998235882355 105.143554688 158.36328125 c 2,8,-1
 105.540039062 179.963867188 l 1,9,10
 441 160 441 160 557.220703125 208.696289062 c 1,11,12
 470 598 470 598 171.719726562 1040.04003906 c 0,13,14
 -8.69465501039 1306.54894306 -8.69465501039 1306.54894306 141.662109375 1423.76367188 c 2,15,-1
 160.655273438 1438.5703125 l 1,16,17
 562 788 562 788 647.038085938 252.840820312 c 1,18,19
 824 338 824 338 887.544921875 557.442382812 c 1,20,21
 939.898114685 753.618219332 939.898114685 753.618219332 909.446289062 984.2578125 c 2,22,-1
 882.197265625 1190.63964844 l 2,23,24
 849.988323431 1436.08898169 849.988323431 1436.08898169 1022.94238281 1513.2578125 c 2,25,-1
 1048.30957031 1524.57617188 l 1,26,-1
 1048.30957031 722.87890625 l 2,27,28
 1048 497 1048 497 1094.81738281 345.204101562 c 0,29,30
 1143 188 1143 188 1308.56738281 188 c 6,31,-1
 1335 188 l 2,32,33
 1410.05273438 188 1410.05273438 188 1410.05273438 98 c 2,34,-1
 1410.05273438 92 l 2,35,36
 1410 0 1410 0 1335 0 c 2,37,-1
 1304.09375 0 l 6,0,1
EndSplineSet
LCarets2: 1 0
Ligature2: "'rlig' Required Ligatures in Arabic lookup 16 subtable" uniFEE0 uniFE8E
EndChar

StartChar: arabic_dot
Encoding: 65536 -1 261
Width: 162
VWidth: 2211
GlyphClass: 2
Flags: W
LayerCount: 2
Fore
SplineSet
105.31537561 194.08359595 m 2,0,-1
 190.286343001 109.112628534 l 2,1,2
 201.170451343 98.2271918894 201.170451343 98.2271918894 201.271855024 89.186253274 c 0,3,4
 201.333652297 83.5728136593 201.333652297 83.5728136593 198.587705896 79.0838803682 c 128,-1,5
 195.841759495 74.5949470772 195.841759495 74.5949470772 190.808997021 69.6102207723 c 2,6,-1
 101.711403514 -19.4873727344 l 2,7,8
 97.9772381699 -23.0772909862 97.9772381699 -23.0772909862 95.1794641161 -25.2499575072 c 128,-1,9
 92.3816900622 -27.4226240282 92.3816900622 -27.4226240282 88.4753340199 -29.0965246728 c 128,-1,10
 84.5689779775 -30.7704253175 84.5689779775 -30.7704253175 80.5429493042 -30.8110275175 c 0,11,12
 70.5318305601 -30.9107331228 70.5318305601 -30.9107331228 59.1782027702 -19.4580335371 c 2,13,-1
 -29.3193064662 69.0404509751 l 2,14,15
 -40.0448070747 79.1678176551 -40.0448070747 79.1678176551 -39.3958832978 89.6440572166 c 0,16,17
 -38.7721329566 99.7069167297 -38.7721329566 99.7069167297 -26.1257553119 112.353294374 c 2,18,-1
 56.495093113 194.974142799 l 2,19,20
 69.1370170086 207.730073305 69.1370170086 207.730073305 80.7026286322 207.491031002 c 128,-1,21
 92.1455731923 207.254643858 92.1455731923 207.254643858 105.31537561 194.08359595 c 2,0,-1
EndSplineSet
EndChar

StartChar: arabic_2dots
Encoding: 65537 -1 262
Width: 488
VWidth: 2211
GlyphClass: 2
Flags: W
LayerCount: 2
Fore
SplineSet
136.529746422 190.356751078 m 2,0,-1
 221.309947968 105.577526094 l 2,1,2
 226.192218693 100.695255369 226.192218693 100.695255369 228.711925993 96.674363668 c 0,3,4
 230.785062553 93.3660994157 230.785062553 93.3660994157 230.831707663 89.1330556375 c 0,5,6
 230.856191435 86.9811069966 230.856191435 86.9811069966 230.378753389 85.1757209125 c 128,-1,7
 229.901315343 83.3703348285 229.901315343 83.3703348285 228.908582619 81.7488264927 c 0,8,9
 228.131585997 80.4796968788 228.131585997 80.4796968788 227.104303532 79.1151531176 c 128,-1,10
 226.077021067 77.7506093564 226.077021067 77.7506093564 224.748296542 76.2413501026 c 128,-1,11
 223.419572018 74.7320908487 223.419572018 74.7320908487 221.850006525 73.1627277757 c 2,12,-1
 133.291199111 -15.3970561898 l 2,13,14
 130.647460465 -18.0405044746 130.647460465 -18.0405044746 128.188039039 -20.048752512 c 128,-1,15
 125.728617612 -22.0570005495 125.728617612 -22.0570005495 123.515264879 -23.4079171018 c 2,16,-1
 115.053371717 -25.8102924287 l 2,17,18
 107.241862429 -25.8891021154 107.241862429 -25.8891021154 97.2896808041 -15.9369204913 c 2,19,-1
 8.2499218401 73.1018614315 l 2,20,21
 5.41341510352 76.0820338504 5.41341510352 76.0820338504 3.65620299577 78.4825516603 c 0,22,23
 2.12786229852 80.5704094933 2.12786229852 80.5704094933 0.995000877957 83.6758955245 c 0,24,25
 -0.0234266408794 86.4676866263 -0.0234266408794 86.4676866263 0.154106660067 89.3346840329 c 0,26,27
 0.637460152608 97.1335542737 0.637460152608 97.1335542737 11.4537269444 108.302138839 c 2,28,-1
 94.58928887 191.436723861 l 2,29,30
 100.15697567 197.004968881 100.15697567 197.004968881 105.382563385 199.975639153 c 0,31,32
 109.997358976 202.599083026 109.997358976 202.599083026 115.15992165 202.491120689 c 0,33,34
 124.591344377 202.296261713 124.591344377 202.296261713 136.529746422 190.356751078 c 2,0,-1
392.489707367 190.357727633 m 2,35,-1
 477.270885468 105.577526094 l 2,36,37
 486.714544197 96.1338673655 486.714544197 96.1338673655 486.791666669 89.1322486544 c 128,-1,38
 486.871511765 82.1352967772 486.871511765 82.1352967772 477.792538517 73.1452986383 c 2,39,-1
 389.250377656 -15.3978385935 l 2,40,41
 379.374038483 -25.2741777659 379.374038483 -25.2741777659 370.746776312 -25.8200287219 c 0,42,43
 363.115462364 -25.8889644849 363.115462364 -25.8889644849 353.234263885 -15.9215426347 c 2,44,-1
 264.68617599 72.6265452614 l 2,45,46
 260.377959274 76.6939686968 260.377959274 76.6939686968 257.945841208 81.0979746395 c 0,47,48
 255.840070708 84.9110402644 255.840070708 84.9110402644 256.11407007 89.3337473579 c 0,49,50
 256.410085173 94.1093093044 256.410085173 94.1093093044 259.056500331 98.2352536866 c 0,51,52
 262.112867389 103.00034145 262.112867389 103.00034145 267.930265516 108.817739577 c 2,53,-1
 350.566947843 191.455471148 l 2,54,55
 361.697043038 202.68708743 361.697043038 202.68708743 371.119869003 202.49112097 c 128,-1,56
 380.55227631 202.296267293 380.55227631 202.296267293 392.489707367 190.357727633 c 2,35,-1
EndSplineSet
EndChar

StartChar: arabic_3dots
Encoding: 65538 -1 263
Width: 491
VWidth: 2211
GlyphClass: 2
Flags: W
LayerCount: 2
Fore
SplineSet
261.770507812 382.3984375 m 2,0,-1
 347.284179688 296.884765625 l 2,1,2
 355.286132812 288.8828125 355.286132812 288.8828125 355.341796875 283.918945312 c 128,-1,3
 355.395507812 279.040039062 355.395507812 279.040039062 347.823242188 271.541015625 c 2,4,-1
 259.263671875 182.981445312 l 2,5,6
 250.374023438 174.090820312 250.374023438 174.090820312 244.512695312 174.032226562 c 128,-1,7
 238.727539062 173.973632812 238.727539062 173.973632812 230.334960938 182.44140625 c 2,8,-1
 141.719726562 271.0546875 l 2,9,10
 134.294921875 278.06640625 134.294921875 278.06640625 134.654296875 283.868164062 c 0,11,12
 135.043945312 290.155273438 135.043945312 290.155273438 145.014648438 300.124023438 c 2,13,-1
 227.634765625 382.744140625 l 2,14,15
 237.551757812 392.662109375 237.551757812 392.662109375 244.338867188 392.713867188 c 128,-1,16
 251.119140625 392.766601562 251.119140625 392.766601562 261.770507812 382.3984375 c 2,0,-1
393.274414062 173.861328125 m 2,17,-1
 478.0546875 89.08203125 l 2,18,19
 486.057617188 81.0791015625 486.057617188 81.0791015625 486.112304688 76.1162109375 c 128,-1,20
 486.165039062 71.30859375 486.165039062 71.30859375 478.594726562 63.73828125 c 2,21,-1
 390.034179688 -24.8212890625 l 2,22,23
 381.143554688 -33.7119140625 381.143554688 -33.7119140625 375.283203125 -33.7705078125 c 128,-1,24
 369.571289062 -33.828125 369.571289062 -33.828125 361.10546875 -25.361328125 c 2,25,-1
 272.545898438 63.1982421875 l 2,26,27
 265.088867188 70.654296875 265.088867188 70.654296875 265.423828125 76.0654296875 c 0,28,29
 265.813476562 82.3505859375 265.813476562 82.3505859375 275.78515625 92.3212890625 c 2,30,-1
 358.404296875 174.94140625 l 2,31,32
 368.14453125 184.680664062 368.14453125 184.680664062 375.3359375 184.533203125 c 0,33,34
 382.7578125 184.379882812 382.7578125 184.379882812 393.274414062 173.861328125 c 2,17,-1
132.994140625 173.861328125 m 2,35,-1
 217.774414062 89.08203125 l 2,36,37
 225.77734375 81.0791015625 225.77734375 81.0791015625 225.83203125 76.1162109375 c 128,-1,38
 225.884765625 71.30859375 225.884765625 71.30859375 218.314453125 63.73828125 c 2,39,-1
 129.755859375 -24.8212890625 l 2,40,41
 120.864257812 -33.7119140625 120.864257812 -33.7119140625 115.002929688 -33.7705078125 c 128,-1,42
 109.291992188 -33.828125 109.291992188 -33.828125 100.825195312 -25.361328125 c 2,43,-1
 11.8291015625 63.6337890625 l 2,44,45
 4.830078125 70.9873046875 4.830078125 70.9873046875 5.14453125 76.0654296875 c 0,46,47
 5.5341796875 82.3505859375 5.5341796875 82.3505859375 15.5048828125 92.3212890625 c 2,48,-1
 98.125 174.94140625 l 2,49,50
 107.865234375 184.680664062 107.865234375 184.680664062 115.055664062 184.533203125 c 0,51,52
 122.477539062 184.379882812 122.477539062 184.379882812 132.994140625 173.861328125 c 2,35,-1
EndSplineSet
EndChar

StartChar: arabic_3dots_a
Encoding: 65539 -1 264
Width: 490
VWidth: 2211
GlyphClass: 2
Flags: W
LayerCount: 2
Fore
SplineSet
256.060546875 -9.5615234375 m 6,0,-1
 341.165039062 -94.6669921875 l 6,1,2
 349.166992188 -102.669921875 349.166992188 -102.669921875 349.22265625 -107.6328125 c 132,-1,3
 349.276367188 -112.512695312 349.276367188 -112.512695312 341.705078125 -120.010742188 c 6,4,-1
 253.145507812 -208.5703125 l 6,5,6
 244.254882812 -217.4609375 244.254882812 -217.4609375 238.392578125 -217.51953125 c 132,-1,7
 232.608398438 -217.578125 232.608398438 -217.578125 224.21484375 -209.110351562 c 6,8,-1
 135.600585938 -120.497070312 l 6,9,10
 128.176757812 -113.485351562 128.176757812 -113.485351562 128.536132812 -107.68359375 c 4,11,12
 128.924804688 -101.397460938 128.924804688 -101.397460938 138.89453125 -91.4267578125 c 6,13,-1
 221.799804688 -8.5224609375 l 6,14,15
 231.859375 1.0322265625 231.859375 1.0322265625 238.685546875 0.7783203125 c 132,-1,16
 245.708007812 0.517578125 245.708007812 0.517578125 256.060546875 -9.5615234375 c 6,0,-1
392.043945312 195.61328125 m 2,17,-1
 476.975585938 110.681640625 l 2,18,19
 484.977539062 102.6796875 484.977539062 102.6796875 485.032226562 97.7158203125 c 128,-1,20
 485.084960938 92.908203125 485.084960938 92.908203125 477.515625 85.337890625 c 2,21,-1
 388.955078125 -3.2216796875 l 2,22,23
 380.065429688 -12.1123046875 380.065429688 -12.1123046875 374.203125 -12.1708984375 c 128,-1,24
 368.490234375 -12.228515625 368.490234375 -12.228515625 360.024414062 -3.76171875 c 2,25,-1
 271.41015625 84.853515625 l 2,26,27
 264.008789062 92.2548828125 264.008789062 92.2548828125 264.344726562 97.6650390625 c 0,28,29
 264.734375 103.951171875 264.734375 103.951171875 274.704101562 113.921875 c 2,30,-1
 357.341796875 196.55859375 l 2,31,32
 367.063476562 206.28125 367.063476562 206.28125 374.255859375 206.1328125 c 0,33,34
 381.677734375 205.979492188 381.677734375 205.979492188 392.043945312 195.61328125 c 2,17,-1
132.995117188 195.461914062 m 2,35,-1
 217.775390625 110.681640625 l 2,36,37
 225.77734375 102.6796875 225.77734375 102.6796875 225.83203125 97.7158203125 c 128,-1,38
 225.884765625 92.908203125 225.884765625 92.908203125 218.315429688 85.337890625 c 2,39,-1
 129.755859375 -3.2216796875 l 2,40,41
 120.865234375 -12.1123046875 120.865234375 -12.1123046875 115.002929688 -12.1708984375 c 128,-1,42
 109.291015625 -12.228515625 109.291015625 -12.228515625 100.825195312 -3.76171875 c 2,43,-1
 12.2099609375 84.8525390625 l 2,44,45
 4.810546875 92.251953125 4.810546875 92.251953125 5.14453125 97.6650390625 c 0,46,47
 5.5341796875 103.951171875 5.5341796875 103.951171875 15.5048828125 113.921875 c 2,48,-1
 98.1416015625 196.55859375 l 2,49,50
 107.864257812 206.28125 107.864257812 206.28125 115.055664062 206.1328125 c 0,51,52
 122.477539062 205.979492188 122.477539062 205.979492188 132.995117188 195.461914062 c 2,35,-1
EndSplineSet
EndChar

StartChar: uni066E.fina
Encoding: 65540 -1 265
Width: 1971
VWidth: 2471
GlyphClass: 2
Flags: W
AnchorPoint: "Anchor-10" 735.292 1191.76 basechar 0
AnchorPoint: "Anchor-7" 735.292 -227.22 basechar 0
LayerCount: 2
Fore
SplineSet
1953.73535156 0 m 6,0,1
 1640 0 1640 0 1645.36035156 238.6796875 c 1,2,3
 1587 175 1587 175 1474.55761719 102.173828125 c 24,4,5
 1248 -44 1248 -44 822.400390625 -43.2001953125 c 0,6,7
 462 -42 462 -42 282.400390625 73.4404296875 c 0,8,9
 100 191 100 191 102.040039062 455.759765625 c 0,10,11
 103 583 103 583 140.919921875 671.759765625 c 0,12,13
 163 721 163 721 192.759765625 717.66015625 c 0,14,15
 223 714 223 714 207.145507812 643.064453125 c 0,16,17
 193 578 193 578 194.919921875 490.3203125 c 0,18,19
 201 228 201 228 576.16015625 170.639648438 c 0,20,21
 713 150 713 150 871 150.458984375 c 0,22,23
 1130 151 1130 151 1323.80078125 208.71875 c 24,24,25
 1587 287 1587 287 1603.20703125 416.084960938 c 0,26,27
 1623 571 1623 571 1731.90039062 566.3671875 c 2,28,-1
 1758.46875 565.287109375 l 1,29,30
 1732 459 1732 459 1729.38378906 406.848632812 c 24,31,32
 1718 188 1718 188 1959.56738281 188 c 2,33,-1
 1976 188 l 2,34,35
 2051 188 2051 188 2051.05273438 98 c 2,36,-1
 2051.05273438 92 l 2,37,38
 2051.05273438 0 2051.05273438 0 1976 0 c 2,39,-1
 1953.73535156 0 l 6,0,1
EndSplineSet
EndChar

StartChar: uni06A1.fina
Encoding: 65543 -1 266
Width: 2026
VWidth: 2471
GlyphClass: 2
Flags: W
AnchorPoint: "Anchor-10" 549.959 1309.59 basechar 0
AnchorPoint: "Anchor-7" 672.452 -282.836 basechar 0
LayerCount: 2
Fore
SplineSet
1894.56738281 188 m 6,0,1
 2031 188 l 2,2,3
 2106 188 2106 188 2106.05273438 98 c 2,4,-1
 2106.05273438 92 l 2,5,6
 2106.05273438 0 2106.05273438 0 2031 0 c 2,7,-1
 1890.09375 0 l 6,8,9
 1641 0 1641 0 1494.55761719 102.173828125 c 1,10,11
 1277 -44 1277 -44 847.799804688 -43.2001953125 c 0,12,13
 482 -42 482 -42 302.400390625 73.4404296875 c 0,14,15
 120 191 120 191 122.040039062 455.759765625 c 0,16,17
 123 587 123 587 160.919921875 671.759765625 c 0,18,19
 183 721 183 721 212.759765625 717.66015625 c 0,20,21
 243 714 243 714 227.145507812 643.064453125 c 0,22,23
 213 578 213 578 214.919921875 490.3203125 c 0,24,25
 221 231 221 231 596.16015625 170.639648438 c 0,26,27
 725 150 725 150 891 150.458984375 c 0,28,29
 1140 151 1140 151 1329.64160156 204.357421875 c 1,30,31
 1145 302 1145 302 1144.84082031 496.638671875 c 0,32,33
 1145 614 1145 614 1218.84082031 703.638671875 c 0,34,35
 1315 820 1315 820 1472.72070312 821.818359375 c 0,36,37
 1643 824 1643 824 1738.4921875 690.518554688 c 0,38,39
 1793 614 1793 614 1791.89941406 512.598632812 c 0,40,41
 1790 331 1790 331 1664.84082031 207.638671875 c 1,42,43
 1721 188 1721 188 1894.56738281 188 c 6,0,1
1506.84082031 259.638671875 m 1,44,45
 1639 354 1639 354 1653.48535156 486.638671875 c 0,46,47
 1660 544 1660 544 1612.32128906 592.859375 c 0,48,49
 1554 653 1554 653 1463.34082031 650.138671875 c 0,50,51
 1383 648 1383 648 1324.84082031 587.638671875 c 0,52,53
 1282 544 1282 544 1282.74316406 492.638671875 c 0,54,55
 1283 366 1283 366 1506.84082031 259.638671875 c 1,44,45
EndSplineSet
EndChar

StartChar: uni06A1.init
Encoding: 65544 -1 267
Width: 753
VWidth: 2491
GlyphClass: 2
Flags: W
AnchorPoint: "Anchor-10" 470.555 1351.6 basechar 0
AnchorPoint: "Anchor-7" 367.522 -224.826 basechar 0
LayerCount: 2
Fore
SplineSet
-4.947265625 188 m 2,0,-1
 198.639648438 188 l 2,1,2
 513 188 513 188 542.19921875 396.353515625 c 1,3,4
 430 365 430 365 341 365.369613022 c 0,5,6
 164 366 164 366 93.060546875 465.771484375 c 0,7,8
 56 518 56 518 53.2041037788 619 c 0,9,10
 51 694 51 694 110.884765625 838 c 0,11,12
 196 1046 196 1046 360.953125 1049.33691406 c 0,13,14
 527 1052 527 1052 604.626953125 855.55078125 c 0,15,16
 659 718 659 718 659.655273438 532.440429688 c 0,17,18
 660 471 660 471 654.7578125 402.977539062 c 8,19,20
 637 155 637 155 457.825195312 53.78125 c 0,21,22
 363 0 363 0 193.169921875 0 c 2,23,-1
 -4.947265625 0 l 2,24,25
 -80 0 -80 0 -80 92 c 2,26,-1
 -80 98 l 2,27,28
 -80 188 -80 188 -4.947265625 188 c 2,0,-1
178.544921875 683.182617188 m 0,29,30
 149 542 149 542 359 547 c 0,31,32
 443 549 443 549 544.543945312 573.025390625 c 1,33,34
 533 669 533 669 483.986328125 763.053710938 c 0,35,36
 431 864 431 864 355.3203125 864.506835938 c 0,37,38
 216 865 216 865 178.544921875 683.182617188 c 0,29,30
EndSplineSet
EndChar

StartChar: uni06A1.medi
Encoding: 65545 -1 268
Width: 1027
VWidth: 2471
GlyphClass: 2
Flags: W
AnchorPoint: "Anchor-10" 591.923 1067.74 basechar 0
AnchorPoint: "Anchor-7" 591.923 -220.283 basechar 0
LayerCount: 2
Fore
SplineSet
941.09375 0 m 6,0,1
 742 0 742 0 537.805664062 91.626953125 c 1,2,3
 374 0 374 0 50.0927734375 0 c 2,4,-1
 -4.947265625 0 l 2,5,6
 -80 0 -80 0 -80 92 c 2,7,-1
 -80 98 l 2,8,9
 -80 188 -80 188 -4.947265625 188 c 2,10,-1
 48.8798828125 188 l 2,11,12
 211 188 211 188 371.80078125 208.71875 c 1,13,14
 187 306 187 306 187 501 c 0,15,16
 187 618 187 618 261 708 c 0,17,18
 358 825 358 825 514.879882812 826.1796875 c 0,19,20
 687 828 687 828 780.651367188 694.879882812 c 0,21,22
 835 618 835 618 834.05859375 516.959960938 c 0,23,24
 833 376 833 376 707 212 c 1,25,26
 808 188 808 188 945.567382812 188 c 6,27,-1
 1032 188 l 2,28,29
 1107.05273438 188 1107.05273438 188 1107.05273438 98 c 2,30,-1
 1107.05273438 92 l 2,31,32
 1107 0 1107 0 1032 0 c 2,33,-1
 941.09375 0 l 6,0,1
549 264 m 1,34,35
 706 402 706 402 705.64453125 521 c 1,36,37
 692 559 692 559 654.48046875 597.220703125 c 0,38,39
 599.667011955 656.740377185 599.667011955 656.740377185 510.5 654.5 c 0,40,41
 425 652 425 652 367 592 c 0,42,43
 324 548 324 548 324.90234375 497 c 0,44,45
 325 370 325 370 549 264 c 1,34,35
EndSplineSet
EndChar

StartChar: uni066F.fina
Encoding: 65546 -1 269
Width: 1425
VWidth: 2491
GlyphClass: 2
Flags: W
AnchorPoint: "Anchor-10" 376.133 1030.23 basechar 0
AnchorPoint: "Anchor-7" 471.89 -822.999 basechar 0
LayerCount: 2
Fore
SplineSet
1314.62695312 188 m 9,0,1
 1430 188 l 2,2,3
 1505 188 1505 188 1505.05273438 98 c 2,4,-1
 1505.05273438 92 l 2,5,6
 1505.05273438 0 1505.05273438 0 1430 0 c 2,7,-1
 1310.95996094 0 l 17,8,9
 1307 -57 1307 -57 1292.25683594 -119.879882812 c 0,10,11
 1193 -544 1193 -544 661.930664062 -545.791015625 c 0,12,13
 343 -547 343 -547 187.1328125 -346.896484375 c 0,14,15
 56 -178 56 -178 114.48046875 114.48046875 c 0,16,17
 135 217 135 217 190.567382812 336.994140625 c 0,18,19
 219 399 219 399 255.419921875 388.259765625 c 0,20,21
 292 378 292 378 265.825195312 307.799804688 c 0,22,23
 179 75 179 75 235.631835938 -109.409179688 c 0,24,25
 313 -364 313 -364 665.360351562 -362.66796875 c 0,26,27
 1164 -361 1164 -361 1195.05664062 -14.005859375 c 0,28,-1
 1197 0 l 1,29,30
 1109 -1 1109 -1 1026.34960938 -2.7265625 c 0,31,32
 831 -7 831 -7 761.284179688 79.7919921875 c 0,33,34
 693 165 693 165 711.59765625 296.192382812 c 0,35,36
 741 510 741 510 857.521484375 616.749023438 c 0,37,38
 931 684 931 684 1023.48144531 683.17578125 c 0,39,40
 1164 682 1164 682 1244.12011719 517.3203125 c 0,41,42
 1304 395 1304 395 1314.62695312 188 c 9,0,1
995.267578125 508.27734375 m 0,43,44
 885 499 885 499 844.9375 309.765625 c 0,45,46
 817 178 817 178 1022.51953125 183.217773438 c 0,47,48
 1109 185 1109 185 1194.81933594 186.125976562 c 1,49,50
 1181 326 1181 326 1136.85058594 415.609375 c 0,51,52
 1087 516 1087 516 995.267578125 508.27734375 c 0,43,44
EndSplineSet
EndChar

StartChar: arabic_gaf_bar
Encoding: 65550 -1 270
Width: 727
VWidth: 2211
GlyphClass: 2
Flags: W
LayerCount: 2
Fore
SplineSet
546.48046875 1634 m 6,0,-1
 0 1426.6796875 l 1,1,-1
 0 1445.04003906 l 2,2,3
 0 1562.79847877 0 1562.79847877 113.400390625 1604.33984375 c 2,4,-1
 682.559570312 1812.83691406 l 5,5,-1
 682.559570312 1795.55664062 l 6,6,7
 683 1686 683 1686 546.48046875 1634 c 6,0,-1
EndSplineSet
EndChar

StartChar: uni066E.init.math
Encoding: 65560 -1 280
Width: 981
VWidth: 2476
GlyphClass: 2
Flags: W
LayerCount: 2
Fore
SplineSet
635.109375 87.4482421875 m 0,0,1
 552.469726562 -10.4541015625 552.469726562 -10.4541015625 370.451171875 -10.4541015625 c 2,2,-1
 -25.4208984375 -10.4541015625 l 1,3,-1
 -25.4208984375 173.721679688 l 1,4,-1
 303.079101562 173.721679688 l 2,5,6
 432.884765625 173.721679688 432.884765625 173.721679688 492.815429688 233.653320312 c 0,7,8
 558.874023438 299.7109375 558.874023438 299.7109375 558.874023438 438.08984375 c 2,9,-1
 558.874023438 683.293945312 l 1,10,-1
 743.048828125 683.293945312 l 1,11,-1
 743.048828125 438.08984375 l 2,12,13
 743.048828125 217.159179688 743.048828125 217.159179688 635.109375 87.4482421875 c 0,0,1
EndSplineSet
EndChar

StartChar: guillemotleft
Encoding: 171 171 281
Width: 1079
VWidth: 2612
Flags: W
LayerCount: 2
Fore
SplineSet
516.614257812 1030.69238281 m 5,0,-1
 484.989257812 975.086914062 l 6,1,2
 333.115234375 708.05078125 333.115234375 708.05078125 332.89453125 516.478515625 c 4,3,4
 333.115234375 335 333.115234375 335 484.9375 69.0029296875 c 6,5,-1
 516.720703125 13.341796875 l 5,6,-1
 348.282226562 13.341796875 l 5,7,-1
 337.078125 30.9892578125 l 6,8,9
 151.115234375 323.897460938 151.115234375 323.897460938 151.482421875 516.572265625 c 4,10,11
 151.115234375 719 151.115234375 719 337.290039062 1013.36523438 c 6,12,-1
 348.247070312 1030.69238281 l 5,13,-1
 516.614257812 1030.69238281 l 5,0,-1
777.196289062 13.341796875 m 5,14,15
 580.115234375 323 580.115234375 323 580.39453125 516.405273438 c 4,16,17
 580.115234375 719 580.115234375 719 766.206054688 1013.36523438 c 6,18,-1
 777.161132812 1030.69238281 l 5,19,-1
 945.529296875 1030.69238281 l 5,20,-1
 913.904296875 975.086914062 l 6,21,22
 762.115234375 708.200195312 762.115234375 708.200195312 761.810546875 516.477539062 c 4,23,24
 762.115234375 335 762.115234375 335 913.852539062 69.0029296875 c 6,25,-1
 945.6328125 13.341796875 l 5,26,-1
 777.196289062 13.341796875 l 5,14,15
EndSplineSet
EndChar

StartChar: guillemotright
Encoding: 187 187 282
Width: 1079
VWidth: 2612
Flags: W
LayerCount: 2
Fore
SplineSet
580.500976562 1030.69238281 m 5,0,-1
 748.868164062 1030.69238281 l 5,1,-1
 759.825195312 1013.36523438 l 6,2,3
 946 719 946 719 945.6328125 516.572265625 c 4,4,5
 946 323.897460938 946 323.897460938 760.037109375 30.9892578125 c 6,6,-1
 748.833007812 13.341796875 l 5,7,-1
 580.39453125 13.341796875 l 5,8,-1
 612.177734375 69.0029296875 l 6,9,10
 764 335 764 335 764.220703125 516.478515625 c 4,11,12
 764 708.05078125 764 708.05078125 612.125976562 975.086914062 c 6,13,-1
 580.500976562 1030.69238281 l 5,0,-1
319.918945312 13.341796875 m 5,14,-1
 151.482421875 13.341796875 l 5,15,-1
 183.262695312 69.0029296875 l 6,16,17
 335 335 335 335 335.3046875 516.477539062 c 4,18,19
 335 708.200195312 335 708.200195312 183.2109375 975.086914062 c 6,20,-1
 151.5859375 1030.69238281 l 5,21,-1
 319.954101562 1030.69238281 l 5,22,-1
 330.909179688 1013.36523438 l 6,23,24
 517 719 517 719 516.720703125 516.405273438 c 4,25,26
 517 323 517 323 319.918945312 13.341796875 c 5,14,-1
EndSplineSet
EndChar

StartChar: exclam
Encoding: 33 33 291
Width: 676
VWidth: -1
Flags: W
LayerCount: 2
Fore
SplineSet
200 158.837890625 m 128,-1,1
 200 215.537109375 200 215.537109375 240.5 256.037109375 c 128,-1,2
 281 296.537109375 281 296.537109375 337.700195312 296.537109375 c 128,-1,3
 394.400390625 296.537109375 394.400390625 296.537109375 435.912109375 257.049804688 c 0,4,5
 475.400390625 215.537109375 475.400390625 215.537109375 475.400390625 158.837890625 c 128,-1,6
 475.400390625 102.137695312 475.400390625 102.137695312 434.900390625 61.6376953125 c 128,-1,7
 394.400390625 21.1376953125 394.400390625 21.1376953125 337.700195312 21.1376953125 c 128,-1,8
 281 21.1376953125 281 21.1376953125 240.5 61.6376953125 c 128,-1,0
 200 102.137695312 200 102.137695312 200 158.837890625 c 128,-1,1
345.767578125 1444.90722656 m 5,9,-1
 358.110351562 1444.54785156 l 6,10,11
 454.067579243 1441.99820437 454.067579243 1441.99820437 444.993164062 1298.71875 c 6,12,-1
 396.88671875 539.147460938 l 2,13,14
 395 516 395 516 341.177734375 515.6640625 c 0,15,16
 278.847572743 516.000823543 278.847572743 516.000823543 277.04296875 540.154296875 c 2,17,-1
 220.389648438 1298.42285156 l 6,18,19
 220 1310 220 1310 219.446289062 1321.57421875 c 4,20,21
 218.001087108 1444.90722656 218.001087108 1444.90722656 317.345703125 1444.90722656 c 6,22,-1
 345.767578125 1444.90722656 l 5,9,-1
EndSplineSet
EndChar

StartChar: colon
Encoding: 58 58 292
Width: 676
VWidth: 3384
Flags: W
LayerCount: 2
Fore
SplineSet
200 878.837890625 m 132,-1,1
 200 935.537109375 200 935.537109375 240.5 976.037109375 c 132,-1,2
 281 1016.53710938 281 1016.53710938 337.700195312 1016.53710938 c 132,-1,3
 394.400390625 1016.53710938 394.400390625 1016.53710938 435.912109375 977.049804688 c 4,4,5
 475.400390625 935.537109375 475.400390625 935.537109375 475.400390625 878.837890625 c 132,-1,6
 475.400390625 822.137695312 475.400390625 822.137695312 434.900390625 781.637695312 c 132,-1,7
 394.400390625 741.137695312 394.400390625 741.137695312 337.700195312 741.137695312 c 132,-1,8
 281 741.137695312 281 741.137695312 240.5 781.637695312 c 132,-1,0
 200 822.137695312 200 822.137695312 200 878.837890625 c 132,-1,1
200 158.837890625 m 128,-1,10
 200 215.537109375 200 215.537109375 240.5 256.037109375 c 128,-1,11
 281 296.537109375 281 296.537109375 337.700195312 296.537109375 c 128,-1,12
 394.400390625 296.537109375 394.400390625 296.537109375 435.912109375 257.049804688 c 0,13,14
 475.400390625 215.537109375 475.400390625 215.537109375 475.400390625 158.837890625 c 128,-1,15
 475.400390625 102.137695312 475.400390625 102.137695312 434.900390625 61.6376953125 c 128,-1,16
 394.400390625 21.1376953125 394.400390625 21.1376953125 337.700195312 21.1376953125 c 128,-1,17
 281 21.1376953125 281 21.1376953125 240.5 61.6376953125 c 128,-1,9
 200 102.137695312 200 102.137695312 200 158.837890625 c 128,-1,10
EndSplineSet
EndChar

StartChar: period
Encoding: 46 46 293
Width: 676
VWidth: 3384
Flags: W
LayerCount: 2
Fore
SplineSet
200 158.837890625 m 132,-1,1
 200 215.537109375 200 215.537109375 240.5 256.037109375 c 132,-1,2
 281 296.537109375 281 296.537109375 337.700195312 296.537109375 c 132,-1,3
 394.400390625 296.537109375 394.400390625 296.537109375 435.912109375 257.049804688 c 4,4,5
 475.400390625 215.537109375 475.400390625 215.537109375 475.400390625 158.837890625 c 132,-1,6
 475.400390625 102.137695312 475.400390625 102.137695312 434.900390625 61.6376953125 c 132,-1,7
 394.400390625 21.1376953125 394.400390625 21.1376953125 337.700195312 21.1376953125 c 132,-1,8
 281 21.1376953125 281 21.1376953125 240.5 61.6376953125 c 132,-1,0
 200 102.137695312 200 102.137695312 200 158.837890625 c 132,-1,1
EndSplineSet
EndChar
